<svg id="Ebene_1" data-name="Ebene 1" xmlns="http://www.w3.org/2000/svg" viewBox="0 0 80.49 79.37"><defs><style>.cls-1{fill:#039a9a;fill-rule:evenodd;}.cls-2{fill:#90d033;}</style></defs><title>DATEV_Logo_RGB_test</title><path class="cls-1" d="M3.87,76.26H6a5.86,5.86,0,0,0,6.08-6.08c.14-3.82-2-6.08-5.09-6.08H3.87V76.26ZM.06,61H7.27c4.94,0,8.48,3.68,8.62,9.33A9.14,9.14,0,0,1,6.7,79.37H.06V61Zm48.48,0h12.3V64.1H52.5v4.1h7.77v3.11H52.5V76.4h8.76v3H48.54V61ZM24.09,79.37v-3h5.09L24.65,64.81,19.14,79.37h-4L22.25,61h4.8l7.21,18.38ZM31.15,64.1V61H47V64.1h-5.8V79.37h-4.1V64.1ZM70.73,61V64.1H75.4L71.16,75.27,65.93,61h-4.1L69,79.37h4.38L80.49,61Z"/><polygon class="cls-2" points="0 0 80.2 0 80.2 56.74 0 56.74 0 0 0 0"/></svg>