<?xml version="1.0" encoding="UTF-8"?><svg id="Ebene_1" xmlns="http://www.w3.org/2000/svg" xmlns:xlink="http://www.w3.org/1999/xlink" viewBox="0 0 1024 385"><defs><style>.cls-1{fill:url(#Unbenannter_Verlauf_13-2);}.cls-2{fill:#a1acbf;}.cls-3{fill:#b9ccd7;}.cls-4{fill:#adccb2;}.cls-5{fill:#cfd7e5;}.cls-6{fill:#c3d9c6;}.cls-7{fill:#acc7d7;}.cls-8{fill:url(#Unbenannter_Verlauf_14);}.cls-9{fill:url(#Unbenannter_Verlauf_13);}</style><linearGradient id="Unbenannter_Verlauf_14" x1="108.3" y1="199.49" x2="140.97" y2="304.01" gradientTransform="matrix(1, 0, 0, 1, 0, 0)" gradientUnits="userSpaceOnUse"><stop offset="0" stop-color="#a1acbf"/><stop offset=".32" stop-color="#b4becf"/><stop offset=".72" stop-color="#c8d0df"/><stop offset="1" stop-color="#cfd7e5"/></linearGradient><linearGradient id="Unbenannter_Verlauf_13" x1="348.53" y1="194.01" x2="294.17" y2="137.51" gradientTransform="matrix(1, 0, 0, 1, 0, 0)" gradientUnits="userSpaceOnUse"><stop offset=".01" stop-color="#acc7d7"/><stop offset="1" stop-color="#8cadbf"/></linearGradient><linearGradient id="Unbenannter_Verlauf_13-2" x1="282.13" y1="139.4" x2="243.63" y2="214.98" xlink:href="#Unbenannter_Verlauf_13"/></defs><line class="cls-3" x1="227.34" y1="295.99" x2="227.47" y2="295.84"/><g><path class="cls-7" d="M604.19,183.91l.71-7.48h-.35l-2.71,6.84-12.97,22.52h-1.78l-13.75-22.58-2.56-6.77h-.35l1,7.41v33.56h-5.56v-49.88h4.42l15.6,25.51,2.35,5.56h.14l2.21-5.7,14.89-25.37h4.63v49.88h-5.91v-33.49Z"/><path class="cls-7" d="M621.76,167.52h27.15v5.27h-21.23v16.32h19.45v5.27h-19.45v17.74h21.59v5.27h-27.5v-49.88Z"/><path class="cls-7" d="M667.32,184.76l-3.85-7.2h-.28l.71,7.2v32.63h-5.56v-50.66h3.13l23.87,33.27,3.7,6.84h.36l-.78-6.84v-32.49h5.56v50.66h-3.13l-23.73-33.42Z"/><path class="cls-7" d="M727.85,204.71c0-2-.59-3.62-1.78-4.88-1.19-1.26-2.67-2.38-4.45-3.35-1.78-.97-3.72-1.89-5.81-2.74-2.09-.86-4.02-1.89-5.81-3.1-1.78-1.21-3.26-2.71-4.45-4.49-1.19-1.78-1.78-4.05-1.78-6.8,0-3.89,1.35-6.98,4.06-9.26,2.71-2.28,6.56-3.42,11.54-3.42,2.9,0,5.53,.22,7.91,.64,2.37,.43,4.23,.97,5.56,1.64l-1.78,5.27c-1.09-.54-2.69-1.05-4.81-1.54-2.12-.49-4.5-.74-7.16-.74-3.13,0-5.49,.7-7.05,2.1-1.57,1.4-2.35,3.05-2.35,4.95s.59,3.4,1.78,4.63c1.19,1.23,2.67,2.34,4.45,3.31,1.78,.97,3.72,1.94,5.81,2.89,2.09,.95,4.03,2.05,5.81,3.31,1.78,1.26,3.27,2.77,4.45,4.53,1.19,1.76,1.78,3.94,1.78,6.55,0,2.14-.38,4.06-1.14,5.77-.76,1.71-1.88,3.18-3.35,4.42-1.47,1.24-3.25,2.19-5.34,2.85-2.09,.66-4.47,1-7.13,1-3.56,0-6.51-.27-8.84-.82-2.33-.54-4.13-1.15-5.41-1.82l2-5.27c1.09,.6,2.71,1.19,4.85,1.77,2.14,.58,4.54,.87,7.2,.87,1.57,0,3.04-.15,4.42-.46,1.38-.31,2.56-.81,3.56-1.5,1-.69,1.79-1.56,2.39-2.6,.59-1.04,.89-2.28,.89-3.7Z"/><path class="cls-7" d="M774.75,215.33c-1.42,1.09-3.23,1.85-5.41,2.28-2.19,.43-4.51,.64-6.98,.64-3,0-5.8-.51-8.41-1.53s-4.89-2.58-6.84-4.67c-1.95-2.09-3.49-4.76-4.63-8.01-1.14-3.25-1.71-7.11-1.71-11.58s.63-8.61,1.89-11.86c1.26-3.25,2.92-5.91,4.99-7.98,2.07-2.07,4.38-3.57,6.95-4.52,2.56-.95,5.18-1.43,7.84-1.43,2.85,0,5.18,.15,6.98,.46,1.8,.31,3.35,.73,4.63,1.25l-1.42,5.27c-2.28-1.14-5.53-1.71-9.76-1.71-1.95,0-3.87,.36-5.77,1.07-1.9,.71-3.6,1.88-5.09,3.49-1.5,1.62-2.7,3.73-3.6,6.34-.9,2.61-1.35,5.82-1.35,9.62,0,3.42,.43,6.41,1.28,8.98,.85,2.56,2.03,4.7,3.53,6.41,1.5,1.71,3.25,2.99,5.27,3.85,2.02,.85,4.21,1.28,6.59,1.28,2.13,0,4-.21,5.59-.64,1.59-.43,2.93-.97,4.03-1.64l1.42,4.63Z"/><path class="cls-7" d="M812.73,194.52h-23.94v22.87h-5.91v-49.88h5.91v21.73h23.94v-21.73h5.91v49.88h-5.91v-22.87Z"/><path class="cls-7" d="M859.8,217.39h-29.5v-49.88h5.91v44.6h23.58v5.27Z"/><path class="cls-7" d="M867.86,167.52h5.91v49.88h-5.91v-49.88Z"/><path class="cls-7" d="M918.1,215.33c-1.42,1.09-3.23,1.85-5.41,2.28-2.19,.43-4.51,.64-6.98,.64-3,0-5.8-.51-8.41-1.53-2.61-1.02-4.89-2.58-6.84-4.67-1.95-2.09-3.49-4.76-4.63-8.01-1.14-3.25-1.71-7.11-1.71-11.58s.63-8.61,1.89-11.86c1.26-3.25,2.92-5.91,4.99-7.98,2.07-2.07,4.38-3.57,6.95-4.52,2.56-.95,5.18-1.43,7.84-1.43,2.85,0,5.18,.15,6.98,.46,1.8,.31,3.35,.73,4.63,1.25l-1.42,5.27c-2.28-1.14-5.53-1.71-9.76-1.71-1.95,0-3.87,.36-5.77,1.07-1.9,.71-3.6,1.88-5.09,3.49-1.5,1.62-2.7,3.73-3.6,6.34s-1.35,5.82-1.35,9.62c0,3.42,.43,6.41,1.28,8.98,.85,2.56,2.03,4.7,3.53,6.41,1.5,1.71,3.25,2.99,5.27,3.85,2.02,.85,4.21,1.28,6.59,1.28,2.13,0,4-.21,5.59-.64,1.59-.43,2.93-.97,4.03-1.64l1.42,4.63Z"/><path class="cls-7" d="M956.09,194.52h-23.94v22.87h-5.91v-49.88h5.91v21.73h23.94v-21.73h5.91v49.88h-5.91v-22.87Z"/></g><g><path class="cls-4" d="M565.86,272.61h5.91v49.88h-5.91v-49.88Z"/><path class="cls-4" d="M595.39,289.85l-3.85-7.2h-.28l.71,7.2v32.63h-5.56v-50.66h3.13l23.87,33.27,3.7,6.84h.36l-.78-6.84v-32.49h5.56v50.66h-3.13l-23.73-33.42Z"/><path class="cls-4" d="M665.86,277.88h-15.54v44.6h-5.91v-44.6h-15.53v-5.27h36.98v5.27Z"/><path class="cls-4" d="M673.25,272.61h27.15v5.27h-21.23v16.32h19.45v5.27h-19.45v17.74h21.59v5.27h-27.5v-49.88Z"/><path class="cls-4" d="M739.23,322.49h-28.49v-49.88h5.91v44.6h22.58v5.27Z"/><path class="cls-4" d="M775.35,322.49h-28.49v-49.88h5.91v44.6h22.58v5.27Z"/><path class="cls-4" d="M783.27,272.61h5.91v49.88h-5.91v-49.88Z"/><path class="cls-4" d="M818.41,297.62h16.75v21.94c-.76,.57-1.68,1.09-2.75,1.57s-2.21,.88-3.42,1.21-2.47,.58-3.78,.75c-1.31,.17-2.58,.25-3.81,.25-3.18,0-6.1-.51-8.76-1.53-2.66-1.02-4.97-2.59-6.91-4.7-1.95-2.11-3.47-4.8-4.56-8.05-1.09-3.25-1.64-7.09-1.64-11.51s.66-8.55,1.99-11.83c1.33-3.28,3.06-5.95,5.2-8.02,2.14-2.07,4.54-3.57,7.2-4.52,2.66-.95,5.32-1.43,7.98-1.43,2.85,0,5.2,.15,7.06,.46,1.85,.31,3.42,.73,4.7,1.25l-1.5,5.27c-2.28-1.14-5.53-1.71-9.76-1.71-2,0-3.98,.34-5.95,1.03s-3.74,1.84-5.31,3.45c-1.57,1.62-2.85,3.73-3.85,6.34-1,2.62-1.5,5.84-1.5,9.69,0,3.52,.4,6.56,1.21,9.12,.8,2.56,1.93,4.69,3.37,6.38,1.44,1.69,3.18,2.94,5.22,3.78s4.26,1.25,6.68,1.25c3.03,0,5.61-.59,7.75-1.78v-13.89l-11.62-1.42v-3.35Z"/><path class="cls-4" d="M845.23,272.61h27.15v5.27h-21.23v16.32h19.45v5.27h-19.45v17.74h21.59v5.27h-27.5v-49.88Z"/><path class="cls-4" d="M891.18,289.85l-3.85-7.2h-.28l.71,7.2v32.63h-5.56v-50.66h3.13l23.87,33.27,3.7,6.84h.36l-.78-6.84v-32.49h5.56v50.66h-3.13l-23.73-33.42Z"/><path class="cls-4" d="M962,277.88h-15.54v44.6h-5.91v-44.6h-15.53v-5.27h36.98v5.27Z"/></g><line class="cls-3" x1="227.08" y1="296.03" x2="227.21" y2="295.88"/><path class="cls-2" d="M625.41,89.21h-3.35v23.08h-5.91V62.42h5.91v23.23l3.2-1,16.75-22.23h6.84l-16.67,21.45-2.99,2.35,3.63,2.85,18.24,23.23h-7.48l-18.17-23.08Z"/><path class="cls-2" d="M685.75,62.42h5.7v33.27c0,2.99-.39,5.58-1.17,7.77-.78,2.19-1.9,3.98-3.35,5.38-1.45,1.4-3.19,2.44-5.24,3.1-2.04,.67-4.3,1-6.77,1-5.89,0-10.33-1.33-13.32-3.99-2.99-2.66-4.49-6.7-4.49-12.11V62.42h5.91v31.64c0,2.52,.25,4.64,.75,6.38,.5,1.74,1.25,3.13,2.25,4.2,1,1.07,2.25,1.84,3.74,2.32,1.5,.48,3.24,.71,5.23,.71,3.85,0,6.6-1.06,8.27-3.17,1.66-2.11,2.49-5.59,2.49-10.44v-31.64Z"/><path class="cls-2" d="M712.9,79.66l-3.85-7.2h-.28l.71,7.2v32.63h-5.56V61.64h3.13l23.87,33.27,3.7,6.84h.36l-.78-6.84V62.42h5.56v50.66h-3.13l-23.73-33.42Z"/><path class="cls-2" d="M774.39,99.62c0-2-.59-3.62-1.78-4.88-1.19-1.26-2.67-2.38-4.45-3.35-1.78-.97-3.72-1.89-5.81-2.74-2.09-.86-4.02-1.89-5.81-3.1-1.78-1.21-3.26-2.71-4.45-4.49-1.19-1.78-1.78-4.05-1.78-6.8,0-3.89,1.35-6.98,4.06-9.26,2.71-2.28,6.56-3.42,11.54-3.42,2.9,0,5.53,.22,7.91,.64,2.37,.43,4.23,.97,5.56,1.64l-1.78,5.27c-1.09-.54-2.69-1.05-4.81-1.54-2.12-.49-4.5-.74-7.16-.74-3.13,0-5.49,.7-7.05,2.1-1.57,1.4-2.35,3.05-2.35,4.95s.59,3.4,1.78,4.63c1.19,1.23,2.67,2.34,4.45,3.31,1.78,.97,3.72,1.94,5.81,2.89,2.09,.95,4.03,2.05,5.81,3.31,1.78,1.26,3.27,2.77,4.45,4.53,1.19,1.76,1.78,3.94,1.78,6.55,0,2.14-.38,4.06-1.14,5.77-.76,1.71-1.88,3.18-3.35,4.42-1.47,1.24-3.25,2.19-5.34,2.85-2.09,.66-4.47,1-7.13,1-3.56,0-6.51-.27-8.84-.82-2.33-.54-4.13-1.15-5.41-1.82l2-5.27c1.09,.6,2.71,1.19,4.85,1.77s4.54,.87,7.2,.87c1.57,0,3.04-.15,4.42-.46,1.38-.31,2.56-.81,3.56-1.5,1-.69,1.79-1.56,2.39-2.6,.59-1.04,.89-2.28,.89-3.7Z"/><path class="cls-2" d="M822.91,67.69h-15.54v44.6h-5.91v-44.6h-15.53v-5.27h36.98v5.27Z"/><path class="cls-2" d="M859.8,112.3h-29.5V62.42h5.91v44.6h23.58v5.27Z"/><path class="cls-2" d="M867.86,62.42h5.91v49.88h-5.91V62.42Z"/><path class="cls-2" d="M918.1,110.23c-1.42,1.09-3.23,1.85-5.41,2.28-2.19,.43-4.51,.64-6.98,.64-3,0-5.8-.51-8.41-1.53-2.61-1.02-4.89-2.58-6.84-4.67-1.95-2.09-3.49-4.76-4.63-8.01-1.14-3.25-1.71-7.11-1.71-11.58s.63-8.61,1.89-11.86c1.26-3.25,2.92-5.91,4.99-7.98,2.07-2.07,4.38-3.57,6.95-4.52,2.56-.95,5.18-1.43,7.84-1.43,2.85,0,5.18,.15,6.98,.46,1.8,.31,3.35,.73,4.63,1.25l-1.42,5.27c-2.28-1.14-5.53-1.71-9.76-1.71-1.95,0-3.87,.36-5.77,1.07-1.9,.71-3.6,1.88-5.09,3.49-1.5,1.62-2.7,3.73-3.6,6.34s-1.35,5.82-1.35,9.62c0,3.42,.43,6.41,1.28,8.98,.85,2.56,2.03,4.7,3.53,6.41,1.5,1.71,3.25,2.99,5.27,3.85,2.02,.85,4.21,1.28,6.59,1.28,2.13,0,4-.21,5.59-.64,1.59-.43,2.93-.97,4.03-1.64l1.42,4.63Z"/><path class="cls-2" d="M956.09,89.43h-23.94v22.87h-5.91V62.42h5.91v21.73h23.94v-21.73h5.91v49.88h-5.91v-22.87Z"/><g><rect class="cls-2" x="663.63" y="51.37" width="6.54" height="6.54"/><rect class="cls-2" x="678.39" y="51.37" width="6.54" height="6.54"/></g><g><line class="cls-3" x1="227.34" y1="295.99" x2="227.47" y2="295.84"/><line class="cls-3" x1="227.08" y1="296.03" x2="227.21" y2="295.88"/><g><rect class="cls-6" x="423.44" y="62.45" width="70.99" height="260.03"/><g><polygon class="cls-5" points="131.16 62.45 62 145.01 62 244.39 214.48 62.45 131.16 62.45"/><polygon class="cls-8" points="62 244.39 124.64 322.48 207.07 322.48 104.89 193.22 62 244.39"/></g><g><g><polygon class="cls-9" points="313.97 141.36 313.97 322.48 380.11 322.48 380.11 62.45 313.97 141.36"/><polygon class="cls-1" points="296.44 62.45 210.02 165.56 252.49 214.72 380.11 62.45 296.44 62.45"/></g><polygon class="cls-7" points="189.89 142.25 147.32 193.04 164.52 214.72 252.49 214.72 189.89 142.25"/></g></g></g></svg>