<svg xmlns="http://www.w3.org/2000/svg" viewBox="0 0 104.08 47.37"><defs><style>.cls-1{fill:#706f6f;}.cls-2{fill:#e67807;}.cls-3{fill:#2b79ac;}</style></defs><g id="Layer_2" data-name="Layer 2"><g id="Layer_1-2" data-name="Layer 1"><path class="cls-1" d="M50.09,23.46H48.92c-2,0-4.12.42-5.05,1.29a9.94,9.94,0,0,0-5.45-1.32c-4.61,0-7.64,2.27-7.69,5.35a9.24,9.24,0,0,0,0,1.29,4.63,4.63,0,0,0,1.9,3.58,2.57,2.57,0,0,0-1.81,2.67,4.26,4.26,0,0,0,1.5,3.08,3.29,3.29,0,0,0-2.29,3c0,2.66,2.15,5,9,5,6.33,0,9.24-2.53,9.24-5.92,0-2.88-1.85-4.17-8.74-3.94-4,.14-4.82-1.22-4.82-2a.83.83,0,0,1,.7-.73,7.62,7.62,0,0,0,3.09.56c4.67,0,7.81-1.93,7.81-5.6a6.28,6.28,0,0,0-.22-1.54,9,9,0,0,0-.57-1.34h3.3l1.29-3.37ZM34.79,40.61a30.26,30.26,0,0,0,6.57.26c2.24-.06,2.8.14,2.8.89S42.87,44,38.84,44c-3.52,0-5-1.24-5-2.42,0-.64.47-.75,1-1Zm7.13-10c-.25.87-1.12,1.62-3.47,1.62s-3.33-.81-3.58-1.65a3.27,3.27,0,0,1,.05-1.88c.37-.83,1.52-1.65,3.53-1.65s3.11.76,3.47,1.65a3,3,0,0,1,0,1.91Z"></path><path class="cls-1" d="M27,40.54c-.17-.14-.25-4.39-.25-11.33,0-3.39-2-5.77-5.85-5.77-3.19,0-5,.84-6.19,2.38-1.09-1.71-3-2.38-5.37-2.38a6.35,6.35,0,0,0-5.18,2.13V23.72H0V40.54H4.17V30.66c0-2,1.48-3.3,3.72-3.3,2.44,0,3.5,1.15,3.5,3V40.54h4.17V30.66c0-2,1.51-3.3,3.81-3.3,2.52,0,3.33,1.15,3.33,3,0,5.12,0,9.93.14,10.21H27"></path><path class="cls-1" d="M67.06,32A31.54,31.54,0,0,0,66.92,28c-.62-3.05-3.58-4.55-8.06-4.62-2.35,0-3.89,0-5,0L52.56,26.8c2-.08,5,.06,5.87.12,2.49.18,4.46.95,4.6,3-6.33.06-12.91.82-13,5.38a9.12,9.12,0,0,0,0,.92c.08,2.69,1.95,4.42,6.8,4.42,3.13,0,5.17-.72,6.24-1.7a6.5,6.5,0,0,0,.25,1.56h4.28c-.56-.36-.61-2.38-.64-4s0-3.78,0-4.53Zm-4,1.11c0,.23,0,.65-.06,1a3.26,3.26,0,0,1-1.51,2.12,7.67,7.67,0,0,1-3.66,1c-1.54,0-2.91-.3-3.39-1a1.4,1.4,0,0,1-.28-.89,1.18,1.18,0,0,1,.59-1c1.2-.75,5.12-1.12,8.31-1.15ZM50,23.79l.07-.18h-.11l0,.18Z"></path><path class="cls-1" d="M95.45,29.68a1.81,1.81,0,0,0-.22-.44c-1.39-2.09-2.86-4.11-4.38-6.09a1.9,1.9,0,0,0-2-.74c-1.92.33-3.83.68-5.75,1l-2.55.45A2.25,2.25,0,0,0,78.8,25.4c-.51,1.34-1,2.68-1.47,4h0c-.48,1.3-.94,2.61-1.43,3.91a2,2,0,0,0,.44,2.19c1.62,1.79,3.31,3.53,5,5.24a2.18,2.18,0,0,0,2.12.62c1.22-.26,2.43-.52,3.63-.83s2.43-.68,3.64-1a2.58,2.58,0,0,0,1.61-1.35q1.36-2.69,2.49-5.47l.6-1.51a2.1,2.1,0,0,0,0-1.5Zm-2,1.31c-.23.57-.45,1.15-.69,1.72-.65,1.59-1.35,3.17-2.1,4.72a.46.46,0,0,1-.31.27q-3.37,1-6.8,1.66a.34.34,0,0,1-.33-.1c-1.59-1.66-3.14-3.34-4.67-5a.27.27,0,0,1,0-.33c.46-1.18.91-2.37,1.28-3.34l1.43-3.83a.32.32,0,0,1,.27-.24c.68-.11,1.35-.24,2-.37l5.47-1a.26.26,0,0,1,.31.1c1.4,1.81,2.78,3.63,4.12,5.49a.3.3,0,0,1,0,.34Z"></path><path class="cls-2" d="M91.92,10.08a2.43,2.43,0,0,0-.45-.72A67.53,67.53,0,0,0,86.18,4a2.55,2.55,0,0,0-1.9-.67,62.73,62.73,0,0,0-6.85.64c-.25,0-.51.06-.76.11a2,2,0,0,0-1.36.84,3.55,3.55,0,0,0-.3.54c-.82,1.68-1.59,3.38-2.33,5.09-.19.47-.39.94-.59,1.42A1.94,1.94,0,0,0,72.43,14c.88,1.05,1.78,2.09,2.67,3.13s1.82,2.15,2.72,3.23a2.34,2.34,0,0,0,2.35.85l8.18-1.39A2,2,0,0,0,90,18.38q1-3.33,1.91-6.72c0-.13.06-.27.1-.4a1.77,1.77,0,0,0-.1-1.18Zm-2.14.51,0,.08c-.6,2.15-1.26,4.28-1.94,6.41a.3.3,0,0,1-.28.22l-2.71.42-4.81.8a.28.28,0,0,1-.32-.12c-.17-.21-.36-.42-.54-.63q-2.22-2.58-4.45-5.14a.29.29,0,0,1-.06-.36c.41-1,.8-1.93,1.26-3.06.42-.94.91-2.05,1.39-3.16a.34.34,0,0,1,.29-.22c2.3-.34,4.61-.6,6.94-.75a.42.42,0,0,1,.35.12c.68.69,1.39,1.36,2,2.06.94,1,1.85,2,2.78,3a.31.31,0,0,1,.08.35Z"></path><path class="cls-3" d="M57.05,9,57,9.24a1.13,1.13,0,0,0,0,.68,23.83,23.83,0,0,0,1.59,2.88c.2.36.41.71.62,1.06a1.13,1.13,0,0,0,1.42.55c.2-.05.39-.12.59-.19,2.13-.66,4.29-1.24,6.46-1.75a2.57,2.57,0,0,0,1.88-1.6c1-2.2,2-4.37,3.09-6.49a1.13,1.13,0,0,0-.28-1.53A29.77,29.77,0,0,0,69.05.38a3.45,3.45,0,0,1-.32-.2A1,1,0,0,0,67.91,0a3.06,3.06,0,0,0-.58.14A26.82,26.82,0,0,0,62.06,2.6a6.54,6.54,0,0,0-1.58,1.34,27.76,27.76,0,0,0-3.26,4.65,4,4,0,0,0-.17.36Zm3.71,3.24-.49-.76A30.89,30.89,0,0,1,58.6,8.6a.3.3,0,0,1,0-.33c.23-.38.45-.77.68-1.16a27.06,27.06,0,0,1,2.47-3.28.78.78,0,0,1,.24-.2,30,30,0,0,1,4.94-2.31.33.33,0,0,1,.37.06A31.37,31.37,0,0,1,70,3.62l.49.46-.09.19c-1,1.87-2,3.78-2.88,5.74a.42.42,0,0,1-.32.27q-2.44.62-4.85,1.39l-1.55.52Z"></path><path class="cls-1" d="M103.49,25.71c0,.1-.08.19-.13.29a1.09,1.09,0,0,1-.46.49,25.32,25.32,0,0,1-3.07,1.19l-1.15.41a1.15,1.15,0,0,1-1.45-.49l-.33-.52c-1.2-1.89-2.48-3.72-3.82-5.5a2.54,2.54,0,0,1-.41-2.43c.68-2.3,1.3-4.62,1.8-7a1.13,1.13,0,0,1,1.2-1,30.26,30.26,0,0,1,4.14.24l.37.05a1.07,1.07,0,0,1,.72.4,3.34,3.34,0,0,1,.36.48,27.12,27.12,0,0,1,2.47,5.26,6.72,6.72,0,0,1,.35,2,28.23,28.23,0,0,1-.49,5.66c0,.13-.07.25-.1.38Zm-4.93.1.87-.26c1-.33,2.08-.67,3.09-1.1a.29.29,0,0,0,.2-.25c.07-.45.16-.89.23-1.34a28,28,0,0,0,.22-4.1,1,1,0,0,0,0-.3,32.23,32.23,0,0,0-2.3-5,.36.36,0,0,0-.33-.19,33.47,33.47,0,0,0-3.47,0l-.67,0a1.6,1.6,0,0,0,0,.21q-.6,3.15-1.49,6.24a.45.45,0,0,0,.07.42c1,1.36,1.94,2.76,2.83,4.18l.85,1.39Z"></path></g></g></svg>