<?xml version="1.0" encoding="UTF-8" standalone="no"?>
<!-- Created with Inkscape (http://www.inkscape.org/) -->

<svg
   version="1.1"
   id="svg2"
   width="377.94666"
   height="377.94666"
   viewBox="0 0 377.94666 377.94666"
   sodipodi:docname="trilogIQa.eps"
   xmlns:inkscape="http://www.inkscape.org/namespaces/inkscape"
   xmlns:sodipodi="http://sodipodi.sourceforge.net/DTD/sodipodi-0.dtd"
   xmlns="http://www.w3.org/2000/svg"
   xmlns:svg="http://www.w3.org/2000/svg">
  <defs
     id="defs6" />
  <sodipodi:namedview
     id="namedview4"
     pagecolor="#ffffff"
     bordercolor="#000000"
     borderopacity="0.25"
     inkscape:showpageshadow="2"
     inkscape:pageopacity="0.0"
     inkscape:pagecheckerboard="0"
     inkscape:deskcolor="#d1d1d1" />
  <g
     id="g8"
     inkscape:groupmode="layer"
     inkscape:label="ink_ext_XXXXXX"
     transform="matrix(1.3333333,0,0,-1.3333333,0,377.94667)">
    <g
       id="g10"
       transform="scale(0.1)">
      <path
         d="M 2834.65,0 H 0 V 2834.65 H 2834.65 V 0"
         style="fill:#ffffff;fill-opacity:1;fill-rule:nonzero;stroke:none"
         id="path12" />
      <path
         d="m 226.777,357.648 v 368.5 h 23.309 v -368.5 h -23.309"
         style="fill:#fbbc09;fill-opacity:1;fill-rule:nonzero;stroke:none"
         id="path14" />
      <path
         d="m 459.66,497.469 26.199,-4.149 c -3.015,-22.879 -10.57,-40.351 -22.675,-52.39 -12.102,-12.039 -26.649,-18.071 -43.629,-18.071 -20.598,0 -37.551,8.461 -50.856,25.379 -13.308,16.934 -19.965,41.942 -19.965,75.071 0,33.363 6.715,58.382 20.141,75.07 13.434,16.68 30.684,25.019 51.762,25.019 16.261,0 29.961,-5.058 41.101,-15.179 11.141,-10.117 18.274,-25.289 21.41,-45.528 L 457.313,558 c -2.528,12.949 -6.93,22.621 -13.188,29.039 -6.266,6.422 -13.797,9.621 -22.586,9.621 -13.129,0 -23.996,-5.808 -32.605,-17.43 -8.614,-11.628 -12.918,-30.082 -12.918,-55.371 0,-26.148 4.125,-45.05 12.371,-56.738 8.254,-11.68 18.816,-17.519 31.711,-17.519 10.117,0 18.757,3.886 25.925,11.648 7.165,7.77 11.711,19.84 13.637,36.219"
         style="fill:#1e2c61;fill-opacity:1;fill-rule:nonzero;stroke:none"
         id="path16" />
      <path
         d="m 519.539,427.199 v 264.852 h 26.559 V 597.02 c 6.257,8.789 13.34,15.378 21.23,19.789 7.887,4.39 16.586,6.589 26.102,6.589 16.738,0 29.961,-5.328 39.66,-15.988 9.691,-10.66 14.539,-30.199 14.539,-58.629 V 427.199 h -26.555 v 121.582 c 0,16.617 -2.957,28.551 -8.855,35.778 -5.903,7.23 -14.031,10.839 -24.391,10.839 -11.558,0 -21.41,-4.636 -29.535,-13.918 -8.133,-9.269 -12.195,-25.71 -12.195,-49.32 V 427.199 h -26.559"
         style="fill:#1e2c61;fill-opacity:1;fill-rule:nonzero;stroke:none"
         id="path18" />
      <path
         d="m 799.648,523.488 c -9.757,-4.816 -24.273,-8.91 -43.543,-12.289 -11.199,-1.918 -19.031,-4.121 -23.484,-6.59 -4.461,-2.468 -7.922,-5.961 -10.387,-10.48 -2.468,-4.508 -3.707,-9.731 -3.707,-15.617 0,-9.16 2.828,-16.481 8.493,-21.961 5.66,-5.481 13.488,-8.223 23.488,-8.223 9.512,0 18.152,2.473 25.926,7.41 7.765,4.942 13.574,11.532 17.433,19.793 3.852,8.239 5.781,20.258 5.781,36.039 z m 2.168,-72.617 c -8.918,-9.281 -18.191,-16.269 -27.824,-20.961 -9.637,-4.699 -19.633,-7.051 -29.988,-7.051 -16.383,0 -29.449,4.942 -39.207,14.821 -9.754,9.871 -14.633,23.179 -14.633,39.929 0,11.071 2.285,20.891 6.867,29.442 4.574,8.551 10.836,15.23 18.789,20.051 7.95,4.82 19.989,8.378 36.129,10.66 21.684,3.187 37.582,6.976 47.699,11.386 l 0.18,8.301 c 0,13.141 -2.348,22.34 -7.047,27.653 -6.625,7.699 -16.801,11.558 -30.531,11.558 -12.406,0 -21.68,-2.582 -27.824,-7.719 -6.141,-5.14 -10.656,-14.8 -13.547,-28.953 l -26.199,4.34 c 3.73,20.582 11.297,35.582 22.672,44.981 11.386,9.39 27.671,14.089 48.871,14.089 16.5,0 29.449,-3.109 38.843,-9.308 9.395,-6.199 15.329,-13.879 17.793,-23.031 2.469,-9.161 3.707,-22.528 3.707,-40.11 V 507.59 c 0,-30.352 0.571,-49.481 1.715,-57.36 1.145,-7.89 3.403,-15.558 6.778,-23.031 h -27.825 c -2.773,6.621 -4.578,14.512 -5.418,23.672"
         style="fill:#1e2c61;fill-opacity:1;fill-rule:nonzero;stroke:none"
         id="path20" />
      <path
         d="m 879.223,427.199 v 191.86 h 24.027 v -27.098 c 5.773,10.539 12.836,18.41 21.191,23.629 8.356,5.199 17.946,7.808 28.766,7.808 8.41,0 16.199,-1.66 23.356,-4.968 7.152,-3.309 12.921,-7.649 17.312,-13.008 4.391,-5.363 7.665,-12.32 9.825,-20.863 2.17,-8.547 3.25,-21.68 3.25,-39.387 V 427.199 h -26.555 v 116.832 c 0,14.098 -1.207,24.418 -3.614,30.93 -2.414,6.5 -6.172,11.539 -11.293,15.098 -5.121,3.55 -11.05,5.339 -17.793,5.339 -12.769,0 -22.945,-4.769 -30.535,-14.296 -7.586,-9.524 -11.379,-25.864 -11.379,-49 V 427.199 h -26.558"
         style="fill:#1e2c61;fill-opacity:1;fill-rule:nonzero;stroke:none"
         id="path22" />
      <path
         d="m 1075.86,526.559 c 0,-25.231 4.17,-43.649 12.49,-55.239 8.33,-11.59 18.53,-17.39 30.6,-17.39 12.07,0 22.33,5.679 30.77,17.031 8.46,11.348 12.68,29.398 12.68,54.16 0,24.149 -4.35,42.109 -13.04,53.879 -8.68,11.77 -19.24,17.66 -31.68,17.66 -11.1,0 -20.85,-5.89 -29.23,-17.66 -8.39,-11.77 -12.59,-29.25 -12.59,-52.441 z m -22.04,-115.258 26.02,-4.699 c 1.2,-10.301 4.81,-17.961 10.84,-22.993 6.02,-5.027 14.39,-7.55 25.11,-7.55 11.68,0 20.99,2.82 27.91,8.41 6.93,5.609 11.65,13.953 14.18,25.031 1.57,6.738 2.35,20.961 2.35,42.641 -5.78,-8.25 -12.28,-14.469 -19.51,-18.661 -7.23,-4.191 -15.24,-6.281 -24.03,-6.281 -18.79,0 -34.39,7.949 -46.79,23.84 -14.21,18.313 -21.32,42.82 -21.32,73.539 0,20.594 3.13,38.594 9.4,54.012 6.26,15.422 14.48,26.738 24.66,33.969 10.18,7.222 21.59,10.839 34.23,10.839 9.28,0 17.74,-2.277 25.39,-6.82 7.65,-4.547 14.42,-11.367 20.32,-20.457 v 22.938 h 24.57 V 453.211 c 0,-29.512 -2.41,-50.551 -7.22,-63.141 -4.82,-12.582 -12.71,-22.519 -23.67,-29.808 -10.96,-7.282 -24.15,-10.934 -39.57,-10.934 -20.35,0 -36.01,5.481 -46.97,16.442 -10.96,10.96 -16.26,26.128 -15.9,45.531"
         style="fill:#1e2c61;fill-opacity:1;fill-rule:nonzero;stroke:none"
         id="path24" />
      <path
         d="m 1258.77,541.551 h 87.81 c -1.21,16.621 -4.77,29.039 -10.66,37.23 -8.56,11.91 -19.46,17.879 -32.7,17.879 -11.93,0 -22.11,-4.969 -30.54,-14.898 -8.43,-9.942 -13.07,-23.34 -13.91,-40.211 z m 87.62,-52.571 27.47,-4.148 c -4.58,-20.48 -12.86,-35.922 -24.85,-46.344 -11.98,-10.418 -26.82,-15.629 -44.53,-15.629 -22.28,0 -40.32,8.461 -54.11,25.379 -13.79,16.934 -20.68,41.352 -20.68,73.262 0,33.129 6.95,58.379 20.86,75.789 13.91,17.41 31.53,26.109 52.85,26.109 20.35,0 37.33,-8.558 50.94,-25.66 13.61,-17.097 20.42,-41.847 20.42,-74.25 l -0.18,-8.679 h -117.43 c 1.08,-21.547 6.08,-37.809 14.99,-48.77 8.91,-10.961 19.75,-16.437 32.52,-16.437 19.99,0 33.9,13.117 41.73,39.378"
         style="fill:#1e2c61;fill-opacity:1;fill-rule:nonzero;stroke:none"
         id="path26" />
      <path
         d="m 1573.47,456.281 3.61,-28.722 c -7.35,-1.93 -13.97,-2.887 -19.86,-2.887 -9.28,0 -16.75,1.828 -22.41,5.508 -5.66,3.672 -9.55,8.699 -11.66,15.082 -2.11,6.386 -3.16,19.09 -3.16,38.129 V 593.77 h -19.51 v 25.289 h 19.51 v 47.511 l 26.56,19.512 v -67.023 h 26.92 V 593.77 h -26.92 v -112.2 c 0,-10.351 0.78,-17.039 2.34,-20.05 2.3,-4.329 6.58,-6.5 12.84,-6.5 3,0 6.92,0.421 11.74,1.261"
         style="fill:#1e2c61;fill-opacity:1;fill-rule:nonzero;stroke:none"
         id="path28" />
      <path
         d="m 1628.71,523.219 c 0,-24.84 4.51,-43.321 13.55,-55.438 9.02,-12.133 20.24,-18.179 33.59,-18.179 12.53,0 23.29,6.117 32.26,18.359 8.97,12.23 13.46,30.66 13.46,55.258 0,24.722 -4.52,43.14 -13.55,55.261 -9.04,12.11 -20.23,18.18 -33.61,18.18 -12.64,0 -23.42,-6.09 -32.33,-18.269 -8.92,-12.18 -13.37,-30.571 -13.37,-55.172 z m -27.29,-0.09 c 0,33.121 6.96,58.109 20.87,74.973 13.92,16.867 31.53,25.296 52.84,25.296 20.96,0 38.49,-8.429 52.58,-25.296 14.09,-16.864 21.13,-41.192 21.13,-72.981 0,-34.449 -6.92,-60.101 -20.77,-76.973 -13.85,-16.859 -31.49,-25.289 -52.94,-25.289 -21.07,0 -38.63,8.461 -52.65,25.379 -14.04,16.934 -21.06,41.891 -21.06,74.891"
         style="fill:#1e2c61;fill-opacity:1;fill-rule:nonzero;stroke:none"
         id="path30" />
      <path
         d="m 1876.69,427.199 v 264.852 h 26.56 V 427.199 h -26.56"
         style="fill:#1e2c61;fill-opacity:1;fill-rule:nonzero;stroke:none"
         id="path32" />
      <path
         d="m 1975.96,541.551 h 87.79 c -1.2,16.621 -4.76,29.039 -10.66,37.23 -8.55,11.91 -19.45,17.879 -32.7,17.879 -11.92,0 -22.1,-4.969 -30.53,-14.898 -8.43,-9.942 -13.06,-23.34 -13.9,-40.211 z m 87.61,-52.571 27.46,-4.148 c -4.58,-20.48 -12.86,-35.922 -24.84,-46.344 -11.98,-10.418 -26.83,-15.629 -44.53,-15.629 -22.29,0 -40.32,8.461 -54.11,25.379 -13.79,16.934 -20.69,41.352 -20.69,73.262 0,33.129 6.96,58.379 20.87,75.789 13.91,17.41 31.53,26.109 52.84,26.109 20.36,0 37.34,-8.558 50.95,-25.66 13.62,-17.097 20.41,-41.847 20.41,-74.25 l -0.17,-8.679 h -117.44 c 1.09,-21.547 6.09,-37.809 14.99,-48.77 8.92,-10.961 19.76,-16.437 32.52,-16.437 20,0 33.91,13.117 41.74,39.378"
         style="fill:#1e2c61;fill-opacity:1;fill-rule:nonzero;stroke:none"
         id="path34" />
      <path
         d="m 2236.19,523.488 c -9.76,-4.816 -24.27,-8.91 -43.54,-12.289 -11.21,-1.918 -19.03,-4.121 -23.49,-6.59 -4.45,-2.468 -7.92,-5.961 -10.38,-10.48 -2.47,-4.508 -3.7,-9.731 -3.7,-15.617 0,-9.16 2.82,-16.481 8.48,-21.961 5.67,-5.481 13.49,-8.223 23.49,-8.223 9.51,0 18.15,2.473 25.93,7.41 7.76,4.942 13.57,11.532 17.43,19.793 3.86,8.239 5.78,20.258 5.78,36.039 z m 2.17,-72.617 c -8.92,-9.281 -18.19,-16.269 -27.82,-20.961 -9.64,-4.699 -19.63,-7.051 -29.99,-7.051 -16.38,0 -29.46,4.942 -39.2,14.821 -9.77,9.871 -14.64,23.179 -14.64,39.929 0,11.071 2.28,20.891 6.86,29.442 4.58,8.551 10.84,15.23 18.79,20.051 7.95,4.82 19.99,8.378 36.13,10.66 21.68,3.187 37.58,6.976 47.7,11.386 l 0.18,8.301 c 0,13.141 -2.35,22.34 -7.05,27.653 -6.62,7.699 -16.8,11.558 -30.53,11.558 -12.4,0 -21.68,-2.582 -27.82,-7.719 -6.15,-5.14 -10.66,-14.8 -13.55,-28.953 l -26.19,4.34 c 3.73,20.582 11.29,35.582 22.66,44.981 11.39,9.39 27.68,14.089 48.88,14.089 16.5,0 29.45,-3.109 38.84,-9.308 9.39,-6.199 15.32,-13.879 17.79,-23.031 2.47,-9.161 3.7,-22.528 3.7,-40.11 V 507.59 c 0,-30.352 0.58,-49.481 1.72,-57.36 1.15,-7.89 3.41,-15.558 6.78,-23.031 h -27.82 c -2.78,6.621 -4.58,14.512 -5.42,23.672"
         style="fill:#1e2c61;fill-opacity:1;fill-rule:nonzero;stroke:none"
         id="path36" />
      <path
         d="m 2315.75,427.199 v 191.86 h 24.03 v -27.098 c 5.77,10.539 12.84,18.41 21.19,23.629 8.36,5.199 17.94,7.808 28.77,7.808 8.41,0 16.2,-1.66 23.35,-4.968 7.15,-3.309 12.93,-7.649 17.32,-13.008 4.38,-5.363 7.66,-12.32 9.83,-20.863 2.16,-8.547 3.24,-21.68 3.24,-39.387 V 427.199 h -26.56 v 116.832 c 0,14.098 -1.2,24.418 -3.61,30.93 -2.4,6.5 -6.17,11.539 -11.29,15.098 -5.12,3.55 -11.05,5.339 -17.79,5.339 -12.77,0 -22.95,-4.769 -30.53,-14.296 -7.6,-9.524 -11.39,-25.864 -11.39,-49 V 427.199 h -26.56"
         style="fill:#1e2c61;fill-opacity:1;fill-rule:nonzero;stroke:none"
         id="path38" />
      <path
         d="m 2584.38,358.988 v 368.5 h 23.3 v -368.5 h -23.3"
         style="fill:#fbbc09;fill-opacity:1;fill-rule:nonzero;stroke:none"
         id="path40" />
      <path
         d="m 328.387,1020.88 6.836,-54.349 c -13.899,-3.64 -26.434,-5.472 -37.598,-5.472 -17.547,0 -31.676,3.48 -42.383,10.429 -10.711,6.953 -18.058,16.461 -22.043,28.542 -3.992,12.07 -5.984,36.11 -5.984,72.12 v 208.84 h -36.914 v 47.85 h 36.914 v 89.9 l 50.246,36.91 v -126.81 h 50.926 v -47.85 h -50.926 v -212.26 c 0,-19.6 1.48,-32.25 4.441,-37.94 4.328,-8.2 12.418,-12.3 24.27,-12.3 5.691,0 13.101,0.79 22.215,2.39"
         style="fill:#1e2c61;fill-opacity:1;fill-rule:nonzero;stroke:none"
         id="path42" />
      <path
         d="m 434.988,965.852 v 362.988 h 45.457 v -55.03 c 11.621,25.52 22.27,42.44 31.957,50.76 9.684,8.32 20.563,12.48 32.645,12.48 16.859,0 34.062,-6.62 51.609,-19.83 l -17.09,-57.08 c -12.535,8.88 -24.726,13.33 -36.574,13.33 -10.711,0 -20.504,-3.76 -29.39,-11.28 -8.887,-7.52 -15.157,-18.01 -18.801,-31.45 -6.383,-23.47 -9.571,-48.43 -9.571,-74.85 V 965.852 h -50.242"
         style="fill:#1e2c61;fill-opacity:1;fill-rule:nonzero;stroke:none"
         id="path44" />
      <path
         d="m 663.973,965.852 v 362.988 h 50.242 V 965.852 Z m 0,430.328 v 70.75 h 50.242 v -70.75 h -50.242"
         style="fill:#1e2c61;fill-opacity:1;fill-rule:nonzero;stroke:none"
         id="path46" />
      <path
         d="m 830.035,965.852 v 501.078 h 50.246 V 965.852 h -50.246"
         style="fill:#1e2c61;fill-opacity:1;fill-rule:nonzero;stroke:none"
         id="path48" />
      <path
         d="m 1009.71,1147.51 c 0,-46.99 8.54,-81.95 25.63,-104.88 17.09,-22.93 38.29,-34.4 63.58,-34.4 23.69,0 44.03,11.58 61.01,34.74 16.97,23.15 25.46,58 25.46,104.54 0,46.77 -8.54,81.62 -25.63,104.55 -17.09,22.93 -38.28,34.4 -63.58,34.4 -23.92,0 -44.32,-11.53 -61.18,-34.57 -16.86,-23.04 -25.29,-57.84 -25.29,-104.38 z m -51.612,-0.17 c 0,62.66 13.16,109.95 39.476,141.85 26.316,31.9 59.646,47.86 99.976,47.86 39.65,0 72.8,-15.96 99.46,-47.86 26.66,-31.9 39.99,-77.93 39.99,-138.09 0,-65.17 -13.1,-113.71 -39.3,-145.6 -26.21,-31.91 -59.59,-47.852 -100.15,-47.852 -39.88,0 -73.09,16 -99.632,48.022 -26.551,32.01 -39.82,79.23 -39.82,141.67"
         style="fill:#1e2c61;fill-opacity:1;fill-rule:nonzero;stroke:none"
         id="path50" />
      <path
         d="m 1356.26,1153.85 c 0,-47.76 7.88,-82.59 23.63,-104.52 15.76,-21.93 35.05,-32.89 57.89,-32.89 22.83,0 42.24,10.73 58.22,32.2 15.98,21.48 23.98,55.63 23.98,102.46 0,45.69 -8.22,79.67 -24.66,101.95 -16.45,22.26 -36.42,33.41 -59.94,33.41 -21.01,0 -39.45,-11.15 -55.31,-33.41 -15.88,-22.28 -23.81,-55.35 -23.81,-99.2 z m -41.7,-218.08 49.22,-8.879 c 2.28,-19.493 9.11,-33.981 20.51,-43.5 11.39,-9.512 27.23,-14.27 47.51,-14.27 22.09,0 39.7,5.301 52.8,15.891 13.1,10.609 22.05,26.386 26.83,47.347 2.96,12.77 4.45,39.653 4.45,80.681 -10.94,-15.622 -23.25,-27.392 -36.92,-35.31 -13.67,-7.921 -28.83,-11.878 -45.45,-11.878 -35.55,0 -65.06,15.039 -88.53,45.118 -26.89,34.63 -40.33,81 -40.33,139.11 0,38.96 5.92,73.03 17.77,102.2 11.85,29.16 27.4,50.59 46.66,64.26 19.25,13.67 40.84,20.51 64.77,20.51 17.54,0 33.55,-4.31 48.01,-12.9 14.48,-8.61 27.29,-21.51 38.46,-38.72 v 43.41 h 46.48 v -313.77 c 0,-55.82 -4.56,-95.648 -13.67,-119.449 -9.12,-23.812 -24.04,-42.609 -44.77,-56.41 -20.75,-13.781 -45.69,-20.672 -74.85,-20.672 -38.51,0 -68.14,10.371 -88.87,31.102 -20.74,20.738 -30.76,49.449 -30.08,86.129"
         style="fill:#1e2c61;fill-opacity:1;fill-rule:nonzero;stroke:none"
         id="path52" />
      <path
         d="m 1673.76,965.852 v 501.078 h 82.71 V 965.852 h -82.71"
         style="fill:#fbbc09;fill-opacity:1;fill-rule:nonzero;stroke:none"
         id="path54" />
      <path
         d="m 2145.49,1086.5 c 21.41,29.62 32.12,72.81 32.12,129.55 0,58.78 -10.61,102.31 -31.83,130.57 -21.22,28.25 -48.5,42.38 -81.81,42.38 -33.32,0 -60.65,-14.13 -81.99,-42.38 -21.34,-28.26 -32,-71.68 -32,-130.23 0,-59.48 10.64,-103.52 31.96,-132.1 21.3,-28.61 47.78,-42.9 79.46,-42.9 11.85,0 23.13,2.39 33.84,7.17 -17.32,13.68 -34.41,24.16 -51.27,31.45 l 23.24,57.76 c 27.35,-11.39 53.43,-28.48 78.28,-51.27 z m 66.65,-57.08 c 20.27,-17.54 42.38,-31.682 66.3,-42.381 l -30.42,-71.43 c -12.3,4.563 -24.38,10.711 -36.23,18.45 -2.73,1.601 -21.3,16.531 -55.71,44.781 -27.12,-14.36 -58.1,-21.531 -92.97,-21.531 -59.25,0 -107.15,22.152 -143.73,66.471 -36.56,44.32 -54.85,108.53 -54.85,192.61 0,84.31 18.42,148.57 55.24,192.78 36.84,44.2 85.13,66.3 144.89,66.3 59.06,0 106.89,-22.16 143.5,-66.48 36.6,-44.32 54.9,-108.52 54.9,-192.6 0,-40.79 -4.07,-75.88 -12.21,-105.28 -8.15,-29.39 -21.05,-56.63 -38.71,-81.69"
         style="fill:#fbbc09;fill-opacity:1;fill-rule:nonzero;stroke:none"
         id="path56" />
      <path
         d="m 2558.76,1148.03 c -18.46,-9.12 -45.92,-16.87 -82.38,-23.24 -21.19,-3.66 -36,-7.82 -44.43,-12.48 -8.44,-4.67 -14.99,-11.28 -19.66,-19.82 -4.67,-8.55 -7,-18.41 -7,-29.57 0,-17.32 5.35,-31.16 16.06,-41.52 10.71,-10.38 25.52,-15.56 44.44,-15.56 18,0 34.35,4.67 49.04,14.01 14.71,9.34 25.69,21.82 32.99,37.43 7.28,15.6 10.94,38.34 10.94,68.19 z m 4.1,-137.39 c -16.87,-17.55 -34.42,-30.781 -52.64,-39.66 -18.23,-8.878 -37.15,-13.332 -56.74,-13.332 -30.99,0 -55.71,9.332 -74.17,28.024 -18.45,18.688 -27.68,43.858 -27.68,75.538 0,20.96 4.32,39.53 12.99,55.71 8.65,16.18 20.5,28.82 35.54,37.94 15.04,9.11 37.83,15.83 68.36,20.17 41.02,6.02 71.1,13.19 90.24,21.53 l 0.34,15.73 c 0,24.83 -4.44,42.26 -13.33,52.29 -12.54,14.58 -31.79,21.88 -57.76,21.88 -23.48,0 -41.02,-4.88 -52.64,-14.6 -11.62,-9.74 -20.17,-28 -25.64,-54.79 l -49.56,8.2 c 7.06,38.97 21.36,67.34 42.9,85.12 21.53,17.77 52.35,26.66 92.45,26.66 31.22,0 55.72,-5.87 73.49,-17.61 17.77,-11.73 29,-26.27 33.67,-43.58 4.66,-17.32 7,-42.62 7,-75.88 v -82.03 c 0,-57.42 1.08,-93.6 3.26,-108.53 2.15,-14.92 6.42,-29.451 12.81,-43.568 h -52.64 c -5.24,12.527 -8.66,27.449 -10.25,44.788"
         style="fill:#1e2c61;fill-opacity:1;fill-rule:nonzero;stroke:none"
         id="path58" />
      <path
         d="M 670.406,1905.1 H 227.754 v 226.22 c 0,0 1466.596,-1018.87 2389.356,440.32 0,0 -724.58,-811.96 -1946.704,-666.54"
         style="fill:#fbbc09;fill-opacity:1;fill-rule:nonzero;stroke:none"
         id="path60" />
    </g>
  </g>
</svg>
