<?xml version="1.0" encoding="utf-8"?>
<!-- Generator: Adobe Illustrator 27.2.0, SVG Export Plug-In . SVG Version: 6.00 Build 0)  -->
<svg version="1.1" id="Ebene_1" xmlns="http://www.w3.org/2000/svg" xmlns:xlink="http://www.w3.org/1999/xlink" x="0px" y="0px"
	 viewBox="0 0 3016 388" style="enable-background:new 0 0 3016 388;" xml:space="preserve">
<style type="text/css">
	.st0{fill-rule:evenodd;clip-rule:evenodd;fill:#1D1D1B;}
	.st1{fill-rule:evenodd;clip-rule:evenodd;fill:#888888;}
</style>
<path id="University_of_Applied_Sciences" class="st0" d="M393.2,197.6l-0.3,39.9c0.1,3.2-0.4,6.3-1.5,9.3c-0.8,2.3-2.1,4.3-3.8,6
	c-1.6,1.5-3.5,2.6-5.6,3.2c-2.2,0.7-4.5,1-6.8,1c-5.8,0-10.1-1.4-13.2-4.2s-4.5-7.1-4.5-13.1c0-3,0-6,0-9.1s0.1-6.1,0.1-9.2
	l0.2-23.9h-8.1l-0.2,22.5c-0.1,3.3-0.1,6.4-0.1,9.4s0,5.7,0,8.3c-0.1,4.2,0.5,8.4,2,12.4c1.1,3.1,3,5.8,5.4,8c2.3,2,5,3.5,8,4.3
	c3.2,0.9,6.5,1.3,9.8,1.3c3.2,0,6.3-0.4,9.4-1.1c3-0.7,5.9-2.1,8.3-4c2.6-2.1,4.7-4.8,6-7.9c1.7-4,2.5-8.4,2.4-12.8l0.3-40.4
	L393.2,197.6L393.2,197.6z M415.1,262.4h7.5l0.4-32.6c1.9-2.5,4.3-4.7,6.9-6.5c2.1-1.4,4.5-2.1,7-2.1c2.2-0.1,4.4,0.5,6.2,1.8
	c1.5,1.2,2.3,3.1,2.3,5.6c0,2.3,0,4.5,0,6.6c0,2.1,0,4.2,0,6.2l-0.2,21h7.5l0.2-23.2c0-1.8,0-3.6,0-5.3c0-1.8,0-3.5,0-5.3
	c0-2-0.2-3.9-0.7-5.8c-0.8-3.5-3.4-6.2-6.8-7.4c-2.2-0.7-4.5-1-6.8-1c-3,0-5.9,0.8-8.5,2.3c-2.9,1.6-5.4,3.8-7.3,6.5h-0.2l0.3-7.5
	h-7.5L415.1,262.4z M465.2,206h8.1v-8.4h-8.1V206z M465.2,262.4h7.5l0.4-46.7h-7.5L465.2,262.4z M516.1,214.4l-14.6,39h-0.2
	l-13.2-39l-7.8,2.1l17.2,45.9h7.3l18.8-45.8L516.1,214.4z M536.6,233c0.3-1.6,0.8-3.2,1.5-4.7c0.7-1.5,1.6-2.9,2.7-4.2
	c1.1-1.2,2.4-2.2,3.8-3c3-1.5,6.6-1.5,9.6,0c1.3,0.7,2.4,1.7,3.2,2.9c0.8,1.3,1.4,2.7,1.8,4.1c0.4,1.6,0.6,3.2,0.6,4.8H536.6z
	 M567.2,238.1v-1.5c0-3-0.3-5.9-1-8.8c-0.6-2.5-1.7-4.9-3.2-7c-1.5-2-3.4-3.6-5.6-4.6c-5.4-2.4-11.5-2.2-16.7,0.4
	c-2.6,1.4-4.9,3.2-6.8,5.5c-1.9,2.4-3.4,5-4.4,7.9c-1.1,3-1.6,6.1-1.6,9.2c0,7.7,1.8,13.7,5.3,18.1c3.6,4.4,8.6,6.6,15.1,6.6
	c3.4,0,6.7-0.8,9.8-2.4c3-1.6,5.7-3.6,8.1-6l-3.7-4c-1.9,1.7-4,3.3-6.1,4.7c-2.1,1.4-4.6,2.1-7.2,2c-2.1,0.1-4.2-0.5-6.1-1.5
	c-1.7-1-3.1-2.4-4.1-4.1c-1.1-1.8-1.9-3.8-2.3-5.9c-0.5-2.3-0.7-4.6-0.7-7v-1.6L567.2,238.1L567.2,238.1z M576.9,262.4h7.5l0.4-30.7
	c0.9-1.7,1.9-3.3,3.1-4.7c1-1.2,2-2.2,3.2-3.1c0.9-0.7,2-1.3,3.1-1.7c0.8-0.3,1.7-0.5,2.6-0.5c0.5,0,1,0,1.5,0.1
	c0.5,0.1,0.9,0.2,1.4,0.3l2.2-7.1c-1.3-0.5-2.7-0.7-4-0.7c-1.6,0-3.2,0.4-4.6,1.1c-1.4,0.7-2.6,1.6-3.8,2.7c-1.1,1-2,2.2-2.8,3.4
	c-0.7,1.1-1.3,2.2-1.7,3.4l-0.2-0.2l0.1-9.1h-7.7L576.9,262.4z M602.9,259.2c2.1,1.4,4.4,2.5,6.8,3.3c2.5,0.9,5.1,1.3,7.8,1.3
	c1.9,0,3.8-0.3,5.7-0.9c1.8-0.6,3.5-1.5,4.9-2.8c1.5-1.2,2.6-2.8,3.5-4.5c0.9-1.9,1.4-3.9,1.4-6c0.1-2.2-0.5-4.5-1.6-6.4
	c-1-1.6-2.4-3-4-4c-1.6-1-3.4-1.9-5.2-2.6c-1.8-0.7-3.6-1.4-5.2-2.2c-1.5-0.6-2.8-1.5-4-2.6c-1.1-1-1.7-2.5-1.6-4
	c0-2.8,0.9-4.8,2.7-6c2-1.3,4.4-1.9,6.8-1.8c1.6,0,3.2,0.3,4.6,1c1.5,0.7,2.9,1.4,4.3,2.1l3.5-4.8c-1.9-1.3-4-2.2-6.1-2.9
	c-2.4-0.7-4.9-1.1-7.5-1.1c-2.1,0-4.1,0.3-6,0.9c-1.8,0.6-3.5,1.5-5,2.7c-1.4,1.2-2.6,2.7-3.4,4.4c-0.9,1.8-1.3,3.9-1.3,5.9
	c-0.1,2.2,0.4,4.4,1.6,6.3c1.1,1.6,2.4,2.9,4,3.8c1.6,1,3.4,1.8,5.2,2.5c1.8,0.6,3.5,1.3,5.2,2.2c1.5,0.7,2.9,1.7,4,2.9
	c1.8,2.3,2.1,5.4,0.8,8c-0.5,0.9-1.3,1.7-2.2,2.3c-0.9,0.6-1.9,1.1-3,1.4c-2.9,0.8-6.1,0.5-8.8-0.9c-1.6-0.8-3.2-1.6-4.6-2.6
	L602.9,259.2z M641.4,206h8.1v-8.4h-8.1V206z M641.4,262.4h7.5l0.4-46.7h-7.5L641.4,262.4z M656.7,215.8v5.6h8l-0.2,17.1
	c-0.1,3.3-0.1,5.9-0.1,8v5.4c0,3.7,0.8,6.7,2.3,8.8s4.1,3.1,7.7,3.1c2.1,0,4.3-0.4,6.2-1.2c1.9-0.7,3.8-1.7,5.5-2.8l-2.4-4.9
	c-1.1,0.7-2.3,1.3-3.5,1.8c-1.3,0.6-2.6,0.9-4,0.9c-1.3,0.1-2.6-0.4-3.4-1.5c-0.7-1.4-1-2.9-0.9-4.5v-4.4c0-1.8,0-4,0.1-6.7
	l0.2-19.1H685v-5.6h-12.8l0.2-17.2h-7.5l-0.2,17.2H656.7L656.7,215.8z M687.6,284.6h3c2.1,0,4.2-0.2,6.3-0.8
	c1.7-0.5,3.2-1.4,4.5-2.6c1.5-1.5,2.7-3.1,3.6-5c1.1-2.1,2.3-4.8,3.6-8l20.8-51.6l-7.4-2.2l-14.2,38h-0.2l-12.9-38l-8.1,2.2l17.3,45
	l-5.1,11.2c-0.4,1-1,1.9-1.6,2.8c-0.6,0.8-1.3,1.4-2.1,1.9c-1,0.5-2,0.9-3.1,1.1c-1.5,0.2-3,0.4-4.5,0.3V284.6L687.6,284.6z
	 M764.6,257.2c3.8,4.3,9.2,6.5,16.1,6.5c3.4,0.1,6.7-0.7,9.8-2.2c2.7-1.4,5.2-3.3,7.1-5.6c1.9-2.4,3.4-5,4.4-7.9
	c1-2.9,1.5-5.9,1.5-9c0-3.5-0.5-7-1.5-10.3c-0.9-2.9-2.4-5.5-4.3-7.8c-1.9-2.1-4.2-3.8-6.8-4.9c-2.9-1.2-6-1.7-9.2-1.7
	c-3.4-0.1-6.8,0.7-9.8,2.2c-2.8,1.4-5.2,3.3-7.2,5.6c-2,2.3-3.4,5-4.4,7.9c-1,2.9-1.4,5.9-1.5,9
	C758.9,246.8,760.8,252.9,764.6,257.2L764.6,257.2z M768.2,230.7c0.8-2.2,1.9-4.2,3.4-5.9c1.3-1.5,2.9-2.7,4.7-3.5
	c1.6-0.8,3.4-1.2,5.2-1.2c3.8,0,7.4,1.7,9.8,4.7c1.4,1.8,2.4,3.8,3,5.9c0.8,2.7,1.1,5.6,1.1,8.4c0.1,2.9-0.4,5.7-1.3,8.4
	c-0.8,2.2-1.9,4.2-3.4,5.9c-1.3,1.5-2.9,2.7-4.7,3.5c-1.6,0.8-3.4,1.2-5.2,1.2c-3.8,0-7.4-1.7-9.8-4.7c-1.4-1.8-2.4-3.8-3-5.9
	c-0.8-2.7-1.1-5.6-1.1-8.4C766.9,236.2,767.3,233.4,768.2,230.7L768.2,230.7z M808.1,221.4h9.1l-0.4,41.1h7.5l0.4-41.1h12.5v-5.6
	h-12.8l0.3-7.5c0.1-1.4,0.3-2.7,0.7-4c0.3-1.2,0.9-2.4,1.7-3.4c1.6-2.1,4.2-3.3,6.8-3.2h3.3v-6.2c-2.5,0-5,0.3-7.5,0.8
	c-2.2,0.5-4.2,1.4-6,2.6c-1.7,1.2-3.2,2.9-4.2,4.7c-1.1,2.2-1.8,4.7-2,7.2c-0.1,1.6-0.2,3.1-0.3,4.6s-0.1,3-0.1,4.4h-9.1
	L808.1,221.4L808.1,221.4z M902.9,234.1h-21.3l10.9-29.2h0.2L902.9,234.1z M861.8,261.4l7.5,2.3l9.5-22.9h26.8l8.8,22.9l8.1-2.6
	l-25.8-63.6H889L861.8,261.4z M937,229.2c0.6-1.1,1.3-2.1,2.2-3c0.9-1,1.9-2,3-2.8c1.1-0.8,2.4-1.5,3.7-2.1c1.4-0.5,2.8-0.8,4.3-0.8
	c1.6,0,3.2,0.4,4.7,1.1c1.6,0.8,2.9,2,3.9,3.4c1.2,1.7,2.2,3.7,2.7,5.7c0.7,2.7,1.1,5.5,1,8.2c0,2.3-0.3,4.6-1,6.8
	c-0.6,2.1-1.6,4.1-2.9,5.9c-1.2,1.7-2.7,3.1-4.4,4.2c-1.7,1.1-3.7,1.6-5.7,1.6c-4.6,0-8.5-2.5-11.7-7.5L937,229.2z M929,286.1h7.5
	l0.2-28.4h0.2c1.4,1.8,3.1,3.2,5.2,4.3c5.2,2.5,11.2,2.4,16.3-0.3c2.5-1.4,4.7-3.3,6.5-5.6c1.8-2.4,3.3-5.1,4.2-8
	c1-3,1.5-6.1,1.5-9.2c0.1-3.9-0.5-7.8-1.8-11.5c-1-2.8-2.6-5.4-4.6-7.5c-1.7-1.8-3.7-3.2-6-4.1c-2-0.8-4.1-1.2-6.3-1.2
	c-3.1-0.1-6.1,0.7-8.8,2.3c-2.3,1.3-4.3,3.1-5.7,5.3h-0.2v-6.3h-7.5L929,286.1z M987.9,229.3c0.6-1.1,1.3-2.1,2.2-3
	c0.9-1,1.9-2,3-2.8c1.1-0.8,2.4-1.5,3.7-2.1c1.4-0.5,2.8-0.8,4.3-0.8c1.6,0,3.2,0.4,4.7,1.1c1.6,0.8,2.9,2,3.9,3.4
	c1.2,1.7,2.2,3.7,2.7,5.7c0.7,2.7,1.1,5.5,1,8.2c0,2.3-0.3,4.6-1,6.8c-0.6,2.1-1.6,4.1-2.9,5.9c-1.2,1.7-2.7,3.1-4.4,4.2
	c-1.7,1.1-3.7,1.6-5.7,1.6c-4.6,0-8.5-2.5-11.7-7.5L987.9,229.3z M979.9,286.1h7.5l0.2-28.4h0.2c1.4,1.8,3.1,3.2,5.2,4.3
	c5.2,2.5,11.2,2.4,16.3-0.3c2.5-1.4,4.7-3.3,6.5-5.6c1.8-2.4,3.3-5.1,4.2-8c1-3,1.5-6.1,1.5-9.2c0.1-3.9-0.5-7.8-1.8-11.5
	c-1-2.8-2.6-5.4-4.6-7.5c-1.7-1.8-3.8-3.2-6-4.1c-2-0.8-4.1-1.2-6.3-1.2c-3.1-0.1-6.1,0.7-8.8,2.3c-2.3,1.3-4.3,3.1-5.7,5.3H988
	v-6.3h-7.5L979.9,286.1z M1030.4,262.4h7.5l0.6-70.3h-7.5L1030.4,262.4z M1050,206h8.1v-8.4h-8.1V206z M1050,262.4h7.5l0.4-46.7
	h-7.5L1050,262.4z M1075.7,233c0.3-1.6,0.8-3.2,1.5-4.7c0.7-1.5,1.6-2.9,2.7-4.2c1.1-1.2,2.4-2.2,3.8-3c1.5-0.8,3.1-1.1,4.8-1.1
	c1.7,0,3.3,0.3,4.8,1.1c1.3,0.7,2.4,1.7,3.2,2.9c0.8,1.3,1.4,2.7,1.8,4.1c0.4,1.6,0.6,3.2,0.6,4.8H1075.7L1075.7,233z M1106.3,238.1
	v-1.5c0-3-0.3-5.9-1-8.8c-0.6-2.5-1.7-4.9-3.2-7c-1.5-2-3.4-3.6-5.6-4.6c-5.4-2.4-11.5-2.2-16.7,0.4c-2.6,1.4-4.9,3.2-6.8,5.5
	c-1.9,2.3-3.4,5-4.4,7.9c-1.1,3-1.6,6.1-1.6,9.2c0,7.7,1.8,13.7,5.3,18.1s8.6,6.6,15.1,6.6c3.4,0,6.7-0.8,9.8-2.4
	c3-1.6,5.7-3.6,8.1-6l-3.7-4c-1.9,1.7-4,3.3-6.1,4.7c-2.1,1.4-4.6,2.1-7.2,2c-2.1,0.1-4.2-0.5-6.1-1.5c-1.7-1-3.1-2.4-4.1-4.1
	c-1.1-1.8-1.9-3.8-2.3-5.9c-0.5-2.3-0.7-4.6-0.7-7v-1.6L1106.3,238.1L1106.3,238.1z M1145.7,248.9c-0.5,1.1-1.1,2.1-1.9,3
	c-0.8,1-1.8,2-2.9,2.8c-1.1,0.9-2.3,1.6-3.7,2.1c-1.4,0.5-2.8,0.8-4.3,0.8c-1.6,0-3.2-0.4-4.6-1.1c-1.5-0.8-2.9-2-3.9-3.4
	c-1.3-1.7-2.2-3.7-2.8-5.7c-0.7-2.7-1.1-5.5-1-8.2c0-2.3,0.3-4.6,1-6.8c0.6-2.1,1.6-4.1,2.9-5.9c1.2-1.7,2.7-3.1,4.4-4.2
	c1.7-1.1,3.7-1.6,5.7-1.6c2.2,0,4.3,0.5,6.1,1.6c2.2,1.5,4,3.5,5.2,5.9L1145.7,248.9z M1145.9,220.5h-0.2c-1.1-1.8-2.7-3.3-4.6-4.3
	c-2.3-1.2-4.8-1.9-7.4-1.8c-2.7,0-5.3,0.7-7.7,1.9c-2.6,1.3-4.9,3.1-6.8,5.2c-2,2.3-3.7,5-4.8,7.9c-1.2,3.1-1.9,6.5-1.8,9.9
	c-0.1,3.9,0.5,7.9,1.8,11.6c1,2.8,2.6,5.3,4.6,7.5c1.7,1.8,3.8,3.2,6.1,4.1c3.5,1.4,7.3,1.6,11,0.6c1.4-0.4,2.8-0.9,4.1-1.7
	c1.2-0.7,2.3-1.5,3.2-2.4c0.9-0.8,1.6-1.8,2.2-2.9h0.2l-0.2,6.3h7.6l0.8-70.3h-7.7L1145.9,220.5z M1188.6,258.6
	c2.6,1.6,5.4,2.9,8.3,3.8c3.1,0.9,6.3,1.4,9.5,1.3c3.2,0.1,6.3-0.5,9.3-1.5c2.5-0.9,4.7-2.3,6.6-4.2c1.7-1.7,3-3.7,3.9-6
	c0.8-2.2,1.3-4.6,1.3-7c0.1-2.9-0.6-5.9-2.2-8.4c-1.4-2.2-3.3-4.1-5.4-5.6c-2.2-1.6-4.6-2.9-7-3.9c-2.5-1.1-4.9-2.2-7-3.4
	c-2-1.1-3.8-2.4-5.4-4.1c-1.5-1.6-2.2-3.7-2.2-5.9c0-1.7,0.3-3.5,1.1-5.1c0.7-1.4,1.6-2.6,2.8-3.6c1.1-0.9,2.4-1.6,3.8-2.1
	c1.4-0.4,2.8-0.7,4.3-0.7c2.7-0.1,5.3,0.4,7.7,1.5c2.1,1,4.1,2.1,6.1,3.3l3.1-5.9c-2.6-1.5-5.3-2.8-8.2-3.7c-2.9-0.9-6-1.4-9-1.4
	c-2.7,0-5.4,0.4-7.9,1.3c-2.3,0.8-4.4,2-6.2,3.5c-1.7,1.5-3.1,3.3-4.1,5.4c-1,2.2-1.5,4.5-1.4,6.9c0,3.8,0.7,6.9,2.1,9.1
	c1.4,2.2,3.2,4.2,5.3,5.7c2.1,1.5,4.5,2.8,6.9,3.8c2.4,0.9,4.7,2,6.9,3.2c2,1,3.8,2.4,5.3,4.1c1.5,1.9,2.2,4.2,2.1,6.6
	c0.2,3.3-1.2,6.4-3.6,8.6c-2.6,2.2-5.9,3.3-9.3,3.2c-2.6,0-5.1-0.5-7.5-1.5c-2.2-0.9-4.3-2-6.3-3.3L1188.6,258.6z M1271.1,222.2
	c-1.8-2.4-4.1-4.3-6.7-5.7c-2.6-1.4-5.6-2.1-8.6-2.1c-3.1,0-6.1,0.7-8.8,2.1c-2.6,1.3-5,3.2-6.9,5.5c-1.9,2.3-3.5,5-4.5,7.9
	c-1.1,3-1.6,6.1-1.6,9.2c-0.1,3.5,0.5,7.1,1.6,10.4c0.9,2.8,2.4,5.5,4.4,7.7c1.8,2.1,4.1,3.7,6.6,4.8c2.6,1.1,5.4,1.7,8.2,1.7
	c3,0,5.9-0.6,8.6-1.9c2.8-1.4,5.2-3.5,7.2-5.9l-3.8-4.4c-1.3,1.6-2.9,3-4.6,4.1c-1.8,1.2-3.8,1.8-5.9,1.9c-1.8,0-3.6-0.4-5.2-1.2
	c-1.7-0.8-3.2-2-4.4-3.4c-1.3-1.6-2.4-3.4-3.1-5.4c-0.8-2.3-1.2-4.7-1.2-7.1c0-2.9,0.4-5.8,1.2-8.6c0.7-2.3,1.8-4.4,3.2-6.2
	c1.2-1.6,2.7-2.8,4.5-3.8c1.6-0.8,3.4-1.3,5.2-1.3c3.8,0,7.2,1.8,10.1,5.4L1271.1,222.2z M1277,206h8.1v-8.4h-8.1V206z M1277,262.4
	h7.5l0.4-46.7h-7.5L1277,262.4z M1302.7,233c0.3-1.6,0.8-3.2,1.5-4.7c0.7-1.5,1.6-2.9,2.7-4.2c1.1-1.2,2.4-2.2,3.8-3
	c3-1.5,6.6-1.5,9.6,0c1.3,0.7,2.4,1.7,3.2,2.9c0.8,1.3,1.4,2.7,1.8,4.1c0.4,1.6,0.6,3.2,0.6,4.8H1302.7z M1333.4,238.1v-1.5
	c0-3-0.3-5.9-1-8.8c-0.6-2.5-1.7-4.9-3.2-7c-1.5-2-3.4-3.6-5.6-4.6c-5.4-2.4-11.5-2.2-16.7,0.4c-2.6,1.4-4.9,3.2-6.8,5.5
	c-1.9,2.3-3.4,5-4.4,7.9c-1.1,3-1.6,6.1-1.6,9.2c0,7.7,1.8,13.7,5.3,18.1c3.6,4.4,8.6,6.6,15.1,6.6c3.4,0,6.7-0.8,9.8-2.4
	c3-1.6,5.7-3.6,8.1-6l-3.7-4c-1.9,1.7-4,3.3-6.1,4.7c-2.1,1.4-4.6,2.1-7.2,2c-2.1,0.1-4.2-0.5-6.1-1.5c-1.7-1-3.1-2.4-4.1-4.1
	c-1.1-1.8-1.9-3.8-2.3-5.9c-0.5-2.3-0.7-4.6-0.7-7v-1.6L1333.4,238.1L1333.4,238.1z M1343,262.4h7.5l0.4-32.6
	c1.9-2.5,4.3-4.7,6.9-6.5c2.1-1.4,4.5-2.1,7-2.1c2.2-0.1,4.4,0.5,6.2,1.8c1.5,1.2,2.3,3.1,2.3,5.6c0,2.3,0,4.5,0,6.6
	c0,2.1-0.1,4.2-0.1,6.2l-0.2,21h7.5l0.2-23.2c0-1.8,0-3.6,0.1-5.3s0-3.5,0-5.3c0-2-0.2-3.9-0.7-5.8c-0.8-3.5-3.4-6.2-6.8-7.4
	c-2.2-0.7-4.5-1-6.8-1c-3,0-5.9,0.8-8.5,2.3c-2.9,1.6-5.4,3.8-7.3,6.5h-0.2l0.3-7.5h-7.5L1343,262.4z M1427.7,222.2
	c-1.8-2.4-4.1-4.3-6.7-5.7c-2.6-1.4-5.6-2.1-8.6-2.1c-3.1,0-6.1,0.7-8.8,2.1c-2.6,1.3-5,3.2-6.9,5.5c-1.9,2.3-3.5,5-4.5,7.9
	c-1.1,3-1.6,6.1-1.6,9.2c-0.1,3.5,0.5,7.1,1.6,10.4c0.9,2.8,2.4,5.5,4.4,7.7c1.8,2.1,4.1,3.7,6.6,4.8c2.6,1.1,5.4,1.7,8.2,1.7
	c3,0,5.9-0.6,8.6-1.9c2.8-1.4,5.2-3.5,7.2-5.9l-3.8-4.4c-1.3,1.6-2.9,3-4.6,4.1c-1.8,1.2-3.8,1.8-5.9,1.9c-1.8,0-3.6-0.4-5.2-1.2
	c-1.7-0.8-3.2-2-4.4-3.4c-1.3-1.6-2.4-3.4-3.1-5.4c-0.8-2.3-1.2-4.7-1.2-7.1c0-2.9,0.4-5.8,1.2-8.6c0.7-2.3,1.8-4.4,3.2-6.2
	c1.2-1.6,2.7-2.8,4.5-3.8c1.6-0.8,3.4-1.3,5.2-1.3c3.8,0,7.2,1.8,10.1,5.4L1427.7,222.2z M1439.7,233c0.3-1.6,0.8-3.2,1.5-4.7
	c0.7-1.5,1.6-2.9,2.7-4.2c1.1-1.2,2.4-2.2,3.8-3c3-1.5,6.6-1.5,9.6,0c1.3,0.7,2.4,1.7,3.2,2.9c0.8,1.3,1.4,2.7,1.8,4.1
	c0.4,1.6,0.6,3.2,0.6,4.8H1439.7L1439.7,233z M1470.3,238.1v-1.5c0-3-0.3-5.9-1-8.8c-0.6-2.5-1.7-4.9-3.2-7c-1.5-2-3.4-3.6-5.6-4.6
	c-5.4-2.4-11.5-2.2-16.7,0.4c-2.6,1.4-4.9,3.2-6.8,5.5c-1.9,2.4-3.4,5-4.4,7.9c-1.1,3-1.6,6.1-1.6,9.2c0,7.7,1.8,13.7,5.3,18.1
	c3.6,4.4,8.6,6.6,15.1,6.6c3.4,0,6.7-0.8,9.8-2.4c3-1.6,5.7-3.6,8.1-6l-3.7-4c-1.9,1.7-4,3.3-6.1,4.7c-2.1,1.4-4.6,2.1-7.2,2
	c-2.1,0.1-4.2-0.5-6.1-1.5c-1.7-1-3.1-2.4-4.1-4.1c-1.1-1.8-1.9-3.8-2.3-5.9c-0.5-2.3-0.7-4.6-0.7-7v-1.6L1470.3,238.1L1470.3,238.1
	z M1476,259.2c2.1,1.4,4.4,2.5,6.8,3.3c2.5,0.9,5.1,1.3,7.8,1.3c1.9,0,3.8-0.3,5.7-0.9c1.8-0.6,3.5-1.5,4.9-2.8
	c1.5-1.2,2.7-2.8,3.5-4.5c0.9-1.9,1.4-3.9,1.4-6c0.1-2.3-0.5-4.5-1.6-6.4c-1-1.6-2.4-3-4-4c-1.6-1-3.4-1.9-5.2-2.6
	c-1.8-0.7-3.6-1.4-5.2-2.2c-1.5-0.6-2.8-1.5-4-2.6c-1.1-1-1.7-2.5-1.6-4c0-2.8,0.9-4.8,2.7-6c2-1.3,4.4-1.9,6.8-1.8
	c1.6,0,3.2,0.3,4.6,1c1.5,0.7,2.9,1.4,4.3,2.1l3.5-4.8c-1.9-1.3-4-2.2-6.1-2.9c-2.4-0.7-4.9-1.1-7.4-1.1c-2.1,0-4.1,0.3-6.1,0.9
	c-1.8,0.6-3.5,1.5-5,2.7c-1.4,1.2-2.6,2.7-3.4,4.4c-0.9,1.8-1.3,3.9-1.3,5.9c-0.1,2.2,0.4,4.4,1.6,6.3c1.1,1.6,2.4,2.9,4,3.8
	c1.6,1,3.4,1.8,5.2,2.5c1.8,0.6,3.5,1.3,5.2,2.2c1.5,0.7,2.9,1.7,4,2.9c1.8,2.3,2.1,5.4,0.8,8c-0.5,0.9-1.3,1.7-2.2,2.3
	c-0.9,0.6-1.9,1.1-3,1.4c-2.9,0.8-6.1,0.5-8.8-0.9c-1.6-0.8-3.2-1.6-4.6-2.6L1476,259.2z"/>
<path id="HOCHSCHULE_FÜR_MOBILITÄT_UNIVERSITY_FOR_MOBILITY" class="st1" d="M347.2,386.4h9.7l0.3-22.5H380l-0.3,22.5h9.8
	l0.5-51.9h-9.8l-0.1,21.1h-22.9l0.1-21.1h-9.7L347.2,386.4z M400.2,371.4c1.4,3.2,3.4,6.1,5.9,8.5c2.5,2.4,5.5,4.3,8.8,5.6
	c3.5,1.3,7.2,2,11,2c3.8,0,7.5-0.7,11-2.1c3.3-1.3,6.3-3.3,8.8-5.7c5.2-5,8.1-11.9,8-19.2c0-3.6-0.6-7.2-2-10.6
	c-1.3-3.2-3.2-6.1-5.6-8.5c-2.5-2.5-5.5-4.4-8.8-5.7c-3.6-1.4-7.5-2.2-11.4-2.1c-3.7,0-7.4,0.7-10.9,2.1c-3.3,1.3-6.3,3.3-8.9,5.7
	c-2.5,2.4-4.5,5.3-5.9,8.5c-1.5,3.3-2.2,7-2.2,10.6C398,364.2,398.7,367.9,400.2,371.4L400.2,371.4z M409.6,352.4
	c0.9-2.3,2.3-4.3,4.1-6c1.6-1.6,3.6-2.9,5.7-3.8c2-0.9,4.2-1.3,6.5-1.3c2.5,0,5,0.5,7.3,1.5c2.1,0.9,4,2.3,5.6,4
	c1.6,1.8,2.8,3.8,3.6,6.1c0.9,2.5,1.3,5,1.3,7.6c0,2.5-0.4,5-1.3,7.3c-0.8,2.3-2,4.3-3.6,6.1c-3.2,3.7-8,5.8-12.9,5.7
	c-2.5,0-5-0.4-7.3-1.4c-2.1-0.9-4-2.2-5.6-3.9c-1.6-1.7-2.8-3.8-3.6-6c-0.9-2.5-1.3-5.1-1.3-7.8C408.1,357.7,408.6,355,409.6,352.4
	L409.6,352.4z M501.1,375.9c-0.8,0.4-1.6,0.9-2.4,1.3c-2,0.9-4.1,1.6-6.2,1.8c-1.5,0.2-2.9,0.3-4.4,0.3c-2.3,0-4.6-0.5-6.6-1.6
	c-2-1-3.8-2.5-5.2-4.2c-1.5-1.8-2.6-3.9-3.4-6.1c-1.6-4.7-1.6-9.8,0-14.4c0.7-2.2,1.9-4.1,3.4-5.9c3.1-3.5,7.5-5.4,12.2-5.3
	c2.3,0,4.5,0.4,6.6,1.2c2.1,0.7,4.1,1.8,5.9,3.2l4.2-6.7c-2.4-2-5-3.5-8-4.5c-2.9-1-5.9-1.5-9-1.5c-3.6,0-7.3,0.6-10.6,2
	c-3.2,1.3-6,3.2-8.4,5.6c-2.4,2.5-4.3,5.4-5.5,8.6c-1.4,3.5-2,7.2-2,11c0,3.7,0.6,7.3,2,10.8c1.3,3.2,3.2,6.1,5.6,8.5
	c2.5,2.4,5.4,4.3,8.5,5.6c3.4,1.4,7.1,2.1,10.7,2c2.9,0,5.8-0.4,8.7-1.2c2.8-0.8,5.5-2.1,7.8-3.8L501.1,375.9z M510.8,386.4h9.7
	l0.3-22.5h22.9l-0.3,22.5h9.8l0.5-51.9h-9.8l-0.2,21.1h-22.9l0.2-21.1h-9.7L510.8,386.4z M561.2,383.5c2.1,1.3,4.4,2.3,6.8,3
	c2.4,0.7,4.8,1,7.3,1c2.4,0,4.7-0.4,6.9-1.2c2-0.7,3.9-1.9,5.4-3.3c1.5-1.4,2.7-3.1,3.6-5c0.9-2,1.3-4.1,1.3-6.2
	c0.1-2.4-0.5-4.7-1.6-6.8c-1-1.7-2.4-3.2-4-4.4c-1.6-1.2-3.4-2.2-5.2-3c-1.9-0.8-3.7-1.6-5.2-2.4c-1.5-0.7-2.8-1.7-4-2.8
	c-1.1-1.1-1.7-2.6-1.6-4.1c0-1.1,0.2-2.1,0.7-3c0.5-0.9,1.1-1.6,1.9-2.2c0.8-0.6,1.7-1,2.7-1.3c1-0.3,2.1-0.5,3.2-0.5
	c1.8,0,3.5,0.3,5.1,1.1c1.5,0.7,3.1,1.5,4.7,2.4l4-6.9c-2.2-1.3-4.6-2.3-7-3.1c-2.4-0.8-5-1.2-7.6-1.2c-2.4,0-4.8,0.4-7.1,1.2
	c-2,0.7-3.9,1.8-5.5,3.2c-1.5,1.3-2.7,3-3.5,4.8c-1.8,4.2-1.6,9,0.3,13.1c1,1.8,2.3,3.3,3.9,4.5c1.6,1.2,3.3,2.1,5.1,2.9
	c1.8,0.8,3.5,1.5,5.1,2.3c1.5,0.7,2.8,1.6,4,2.7c1.1,1.1,1.7,2.6,1.6,4.1c0,2-0.7,3.9-2.1,5.3c-1.7,1.5-3.9,2.3-6.2,2.2
	c-1.6,0-3.3-0.4-4.8-1.1c-1.5-0.6-3-1.5-4.4-2.4L561.2,383.5z M639.8,375.9c-0.8,0.4-1.6,0.9-2.4,1.3c-2,0.9-4.1,1.6-6.2,1.8
	c-1.5,0.2-2.9,0.3-4.4,0.3c-2.3,0-4.6-0.5-6.6-1.6c-2-1-3.8-2.5-5.2-4.2c-1.5-1.8-2.6-3.9-3.4-6.1c-1.6-4.7-1.6-9.8,0-14.4
	c0.7-2.2,1.9-4.1,3.4-5.9c1.5-1.7,3.3-3,5.3-3.9c2.2-1,4.5-1.5,6.9-1.4c2.3,0,4.5,0.4,6.6,1.2c2.1,0.7,4.1,1.8,5.8,3.2l4.2-6.7
	c-2.4-2-5-3.5-8-4.5c-2.9-1-5.9-1.5-9-1.5c-3.6,0-7.3,0.6-10.7,2c-3.2,1.3-6,3.2-8.4,5.6c-2.4,2.5-4.3,5.4-5.5,8.6
	c-1.4,3.5-2,7.2-2,11c0,3.7,0.6,7.3,2,10.8c1.3,3.2,3.2,6.1,5.6,8.5c2.5,2.4,5.4,4.3,8.5,5.6c3.4,1.4,7.1,2.1,10.7,2
	c2.9,0,5.8-0.4,8.7-1.2c2.8-0.8,5.5-2.1,7.8-3.8L639.8,375.9z M649.6,386.4h9.7l0.3-22.5h22.9l-0.3,22.5h9.8l0.5-51.9h-9.7
	l-0.2,21.1h-22.9l0.2-21.1H650L649.6,386.4z M745.5,334.5h-9.6l-0.3,32.6c0.1,3.2-1,6.3-3,8.7c-1.9,2.2-4.8,3.4-8.6,3.4
	c-1.5,0-3.1-0.3-4.5-0.8c-1.4-0.5-2.6-1.3-3.6-2.2c-1.1-1-1.9-2.3-2.4-3.6c-0.6-1.5-0.9-3.2-0.9-4.9c0-5.6,0-11.1,0.1-16.6
	s0.1-11,0.2-16.6h-9.6c-0.1,5.5-0.1,10.9-0.2,16.3c-0.1,5.4-0.1,10.9-0.1,16.3c-0.1,3,0.5,6,1.5,8.9c0.9,2.4,2.4,4.6,4.3,6.4
	c1.9,1.7,4.2,3,6.6,3.8c5.5,1.7,11.5,1.7,17,0c2.5-0.8,4.8-2.1,6.7-3.8c1.9-1.7,3.4-3.8,4.4-6.2c1.1-2.7,1.7-5.6,1.7-8.5
	L745.5,334.5z M756.5,386.4h29.9v-8.2h-20.3l0.5-43.6h-9.6L756.5,386.4z M792.5,386.4h28.3v-8.2h-18.5l0.1-14.2h18.1v-7.8h-18
	l0.2-13.4h18.2v-8.2H793L792.5,386.4z M848.9,386.4h9.8l0.1-22h19l0.1-8.2h-18.9l0.1-13.4h19l0.1-8.2h-28.7L848.9,386.4z
	 M928.1,334.5h-9.6l-0.3,32.6c0.1,3.2-1,6.3-3,8.7c-1.9,2.2-4.8,3.4-8.6,3.4c-1.5,0-3.1-0.3-4.5-0.8c-1.4-0.5-2.6-1.3-3.6-2.2
	c-1.1-1-1.9-2.3-2.4-3.6c-0.6-1.5-0.9-3.2-0.9-4.9c0-5.6,0-11.1,0.1-16.6s0.1-11,0.2-16.6h-9.6c-0.1,5.5-0.1,10.9-0.2,16.3
	c-0.1,5.4-0.1,10.9-0.1,16.3c-0.1,3,0.5,6,1.5,8.9c0.9,2.4,2.4,4.6,4.3,6.4c1.9,1.7,4.2,3,6.6,3.8c5.5,1.7,11.5,1.7,17,0
	c2.5-0.8,4.8-2.1,6.7-3.8c1.9-1.7,3.4-3.8,4.4-6.2c1.1-2.7,1.7-5.6,1.7-8.5L928.1,334.5z M896,329.6h8.2v-8.2H896V329.6z
	 M909.3,329.6h8.2v-8.2h-8.2V329.6z M948.6,357.9l0.2-15.5h5.5c2.2-0.1,4.4,0.6,6.2,1.9c1.7,1.3,2.7,3.4,2.5,5.6
	c0.1,1.4-0.3,2.9-0.9,4.1c-0.6,1-1.3,1.8-2.3,2.4c-0.9,0.6-1.8,1-2.8,1.2c-0.8,0.2-1.7,0.3-2.5,0.3L948.6,357.9L948.6,357.9z
	 M938.6,386.4h9.8l0.1-20.8h3c1.4,0,2.7,0.6,3.5,1.8l14.4,20l8.5-5.1L963.1,363c2.9-1,5.4-2.7,7.3-5.1c1.9-2.4,2.8-5.4,2.7-8.4
	c0-2-0.3-3.9-1-5.8c-0.6-1.8-1.7-3.4-3.1-4.8c-1.6-1.4-3.4-2.5-5.5-3.2c-2.6-0.9-5.3-1.3-8.1-1.2h-16.4L938.6,386.4z M1001.2,386.4
	l9.2,1l5.4-41h0.2l11.9,39.9h9.9l13.2-39.9h0.2l3.9,41l9.8-1l-7.7-51.9h-9.8l-14.4,41.5h-0.2l-12.6-41.5h-9.8L1001.2,386.4z
	 M1072.9,371.4c1.4,3.2,3.4,6.1,5.9,8.5c2.5,2.4,5.5,4.3,8.8,5.6c3.5,1.3,7.2,2,11,2c3.8,0,7.5-0.7,11-2.1c3.3-1.3,6.3-3.3,8.8-5.7
	c2.5-2.4,4.5-5.3,5.9-8.5c1.4-3.4,2.2-7,2.1-10.6c0-3.6-0.6-7.2-2-10.6c-1.3-3.2-3.2-6.1-5.6-8.5c-2.5-2.5-5.5-4.4-8.8-5.7
	c-3.6-1.4-7.5-2.2-11.4-2.1c-3.7,0-7.4,0.7-10.9,2.1c-3.3,1.3-6.3,3.3-8.8,5.7c-2.5,2.4-4.5,5.3-5.9,8.5c-1.5,3.3-2.2,7-2.2,10.6
	C1070.7,364.2,1071.5,367.9,1072.9,371.4L1072.9,371.4z M1082.4,352.4c0.9-2.3,2.3-4.3,4.1-6c1.6-1.6,3.6-2.9,5.7-3.8
	c2-0.9,4.2-1.3,6.4-1.3c2.5,0,5,0.5,7.3,1.5c2.1,0.9,4,2.3,5.6,4c1.6,1.8,2.8,3.8,3.6,6.1c0.9,2.5,1.3,5,1.3,7.6
	c0,2.5-0.4,5-1.3,7.3c-0.8,2.3-2,4.3-3.6,6.1c-3.2,3.7-8,5.8-12.9,5.7c-2.5,0-5-0.4-7.3-1.4c-2.1-0.9-4-2.2-5.6-3.9
	c-1.6-1.7-2.8-3.8-3.6-6c-0.9-2.5-1.3-5.1-1.3-7.8C1080.8,357.7,1081.3,355,1082.4,352.4L1082.4,352.4z M1144.6,356.6l0.1-14.7h6.1
	c2.4-0.1,4.7,0.5,6.7,1.8c1.6,1.3,2.5,3.3,2.4,5.4c0,1.2-0.2,2.3-0.8,3.4c-0.5,0.9-1.2,1.7-2.1,2.3c-0.9,0.6-2,1.1-3.1,1.4
	c-1.2,0.3-2.4,0.5-3.6,0.5H1144.6z M1144.3,379.1l0.2-15.1h5.3c7,0,10.4,2.6,10.4,8c0.1,2-0.8,4-2.4,5.3c-1.6,1.3-3.9,1.9-7.1,1.9
	L1144.3,379.1L1144.3,379.1z M1134.5,386.4h18.9c2.3,0,4.5-0.3,6.7-1c1.9-0.6,3.7-1.5,5.2-2.8c1.4-1.2,2.6-2.8,3.3-4.5
	c0.8-1.8,1.2-3.8,1.2-5.9c0.1-2.9-0.8-5.8-2.6-8.1c-1.8-2.3-4.5-3.7-7.3-4.1V360c2.6-0.3,4.9-1.6,6.4-3.6c1.9-2.4,2.8-5.5,2.6-8.5
	c0-1.8-0.4-3.7-1.1-5.4c-0.8-1.6-1.9-3.1-3.3-4.2c-1.5-1.2-3.3-2.2-5.1-2.8c-2.2-0.7-4.4-1-6.7-1h-17.7L1134.5,386.4z M1179.1,386.4
	h9.6l0.4-51.9h-9.6L1179.1,386.4z M1199.8,386.4h29.9v-8.2h-20.3l0.4-43.6h-9.6L1199.8,386.4z M1235.5,386.4h9.6l0.4-51.9h-9.6
	L1235.5,386.4z M1265.7,386.4h9.6l0.4-43.6h14.3l0.1-8.2h-38.5l-0.1,8.2h14.6L1265.7,386.4z M1322.3,364.8h-12.7l6.5-20.2h0.2
	L1322.3,364.8z M1306.8,372.6h18.1l5.1,14.9l9.4-2.7l-18.5-50.2h-8.8l-19.9,50.2l8.9,2.7L1306.8,372.6z M1304.9,329.6h8.2v-8.2h-8.2
	V329.6z M1318.3,329.6h8.2v-8.2h-8.2V329.6z M1355.5,386.4h9.6l0.4-43.6h14.3l0.1-8.2h-38.5l-0.1,8.2h14.6L1355.5,386.4z
	 M1406,387.5h5.4v-57.3h-5.4V387.5z M1477.3,334.5l-0.2,32c0.1,2.5-0.3,5-1.2,7.4c-0.7,1.8-1.7,3.5-3.1,4.8
	c-1.3,1.2-2.8,2.1-4.5,2.6c-1.8,0.5-3.6,0.8-5.4,0.8c-4.6,0-8.1-1.1-10.5-3.3c-2.4-2.2-3.6-5.7-3.6-10.5c0-2.4,0-4.8,0-7.3
	c0-2.4,0.1-4.9,0.1-7.4l0.2-19.1h-6.4l-0.2,18c0,2.7-0.1,5.2-0.1,7.5c0,2.4,0,4.6,0,6.7c-0.1,3.4,0.4,6.7,1.6,9.9
	c0.9,2.4,2.4,4.6,4.3,6.4c1.8,1.6,4,2.8,6.4,3.5c2.6,0.7,5.2,1,7.9,1c2.5,0,5.1-0.3,7.5-0.9c2.4-0.6,4.7-1.6,6.7-3.2
	c2.1-1.7,3.8-3.9,4.8-6.3c1.4-3.2,2-6.7,1.9-10.2l0.2-32.3L1477.3,334.5L1477.3,334.5z M1495.4,386.4h6.6l0.3-41.4h0.2l28.5,42.5
	l5.6-2.1l0.4-50.9h-6.6l-0.3,41h-0.2l-28.7-42.1l-5.4,2.3L1495.4,386.4z M1549.2,386.4h6.4l0.4-51.9h-6.4L1549.2,386.4z
	 M1583.3,386.4h6l21.9-51.1l-6-1.8l-18.8,45.3l-17.2-45.3l-6.3,2.5L1583.3,386.4z M1617.5,386.4h27.4V381h-20.8l0.2-18.1h19.7v-5.4
	h-19.8l0.2-17.6h20.3v-5.4h-26.7L1617.5,386.4z M1660.9,339h7.7c1.8,0,3.6,0.2,5.4,0.9c1.3,0.5,2.6,1.3,3.6,2.3
	c0.9,0.9,1.6,2.1,2,3.3c0.4,1.3,0.6,2.6,0.6,4c0.1,1.6-0.3,3.3-1.1,4.7c-0.7,1.2-1.7,2.3-3,3c-1.3,0.8-2.7,1.3-4.2,1.6
	c-1.6,0.3-3.1,0.5-4.7,0.5h-6.4L1660.9,339z M1654,386.4h6.5l0.3-22.2h4.1c1.1,0,2.1,0.1,3.2,0.5c0.9,0.4,1.6,0.9,2.3,1.5
	c0.7,0.7,1.4,1.4,2,2.2c0.7,0.9,1.4,1.8,2.2,2.9l12.2,16.6l5.7-3.5l-10.4-13.8c-0.6-0.6-1.1-1.4-1.8-2.3c-0.6-0.9-1.3-1.7-2-2.5
	c-0.7-0.8-1.5-1.5-2.3-2.1c-0.7-0.6-1.6-1-2.5-1.2v-0.1c1.8-0.2,3.5-0.7,5.1-1.5c1.6-0.7,3-1.7,4.2-2.9c1.2-1.3,2.1-2.7,2.8-4.4
	c0.7-1.8,1-3.7,1-5.7c0-2-0.4-4-1.2-5.8c-0.8-1.7-1.9-3.1-3.4-4.3c-1.6-1.2-3.3-2.1-5.2-2.7c-2.2-0.6-4.4-1-6.7-0.9h-15.7
	L1654,386.4z M1695.8,383.4c2.1,1.3,4.3,2.3,6.6,3.1c2.5,0.7,5,1.1,7.6,1c2.5,0.1,5-0.4,7.4-1.2c2-0.7,3.8-1.9,5.2-3.3
	c1.4-1.3,2.4-3,3.1-4.8c0.7-1.8,1-3.7,1-5.6c0.1-2.4-0.5-4.7-1.7-6.7c-1.1-1.8-2.6-3.3-4.3-4.5c-1.8-1.2-3.6-2.3-5.6-3.1
	c-2-0.9-3.9-1.8-5.6-2.7c-1.6-0.9-3.1-2-4.3-3.3c-1.2-1.3-1.8-3-1.7-4.7c0-1.4,0.3-2.8,0.9-4c0.5-1.1,1.3-2.1,2.2-2.9
	c0.9-0.7,2-1.3,3.1-1.6c1.1-0.3,2.3-0.5,3.4-0.5c2.1-0.1,4.2,0.3,6.2,1.2c1.7,0.8,3.3,1.7,4.8,2.7l2.5-4.7c-2.1-1.2-4.3-2.2-6.6-3
	c-2.3-0.7-4.8-1.1-7.2-1.1c-2.2,0-4.3,0.3-6.3,1c-1.8,0.6-3.5,1.6-5,2.8c-1.4,1.2-2.5,2.7-3.3,4.3c-0.8,1.7-1.2,3.6-1.2,5.5
	c-0.1,2.5,0.5,5.1,1.7,7.3c1.1,1.8,2.5,3.3,4.2,4.5c1.7,1.2,3.6,2.2,5.5,3c1.9,0.8,3.7,1.6,5.5,2.5c1.6,0.8,3,1.9,4.2,3.3
	c1.2,1.5,1.8,3.4,1.7,5.2c0.1,2.6-0.9,5.1-2.8,6.9c-2.1,1.8-4.7,2.7-7.4,2.5c-2.1,0-4.1-0.4-6-1.2c-1.8-0.7-3.5-1.6-5-2.7
	L1695.8,383.4z M1736,386.4h6.4l0.4-51.9h-6.4L1736,386.4z M1750.1,339.9h16.4l-0.4,46.5h6.4l0.4-46.5h16.4v-5.4h-39.3V339.9z
	 M1808.2,386.4h6.4l0.4-22.2l19.7-27.5l-5.6-3.3l-16.9,25.8l-16-25.8l-5.8,3.2l18.2,27.5L1808.2,386.4z M1860.7,386.4h6.5l0.3-23.5
	h20.7v-5.4h-20.8l0.2-17.6h21.3v-5.4h-27.8L1860.7,386.4z M1896.8,371.9c1.3,3.2,3.3,6.1,5.8,8.5c2.5,2.4,5.5,4.2,8.7,5.3
	c3.5,1.2,7.1,1.9,10.8,1.8c3.7,0,7.4-0.6,10.8-2c3.2-1.3,6.2-3.1,8.7-5.5c2.5-2.4,4.5-5.3,5.8-8.5c1.5-3.5,2.2-7.2,2.1-11
	c0.1-3.9-0.7-7.8-2.1-11.4c-1.3-3.2-3.3-6.1-5.8-8.5c-2.5-2.4-5.5-4.2-8.7-5.3c-3.5-1.2-7.1-1.9-10.8-1.8c-3.7,0-7.4,0.6-10.8,2
	c-3.2,1.3-6.2,3.1-8.7,5.5c-2.5,2.4-4.5,5.3-5.8,8.5c-1.4,3.5-2.2,7.2-2.1,10.9C1894.6,364.4,1895.3,368.2,1896.8,371.9
	L1896.8,371.9z M1903.1,352.1c1-2.5,2.4-4.9,4.3-6.9c1.8-2,4.1-3.5,6.5-4.6c5.3-2.3,11.3-2.3,16.6,0c2.5,1.1,4.7,2.7,6.5,4.6
	c1.9,2,3.3,4.3,4.3,6.9c2.1,5.4,2.1,11.4,0,16.9c-1,2.5-2.4,4.9-4.3,6.9c-1.8,2-4.1,3.5-6.5,4.6c-5.3,2.2-11.3,2.2-16.6,0
	c-2.5-1.1-4.7-2.7-6.5-4.6c-1.9-2-3.3-4.3-4.3-6.9C1901.1,363.5,1901.1,357.5,1903.1,352.1L1903.1,352.1z M1965.7,339h7.7
	c1.8,0,3.6,0.2,5.4,0.9c1.3,0.5,2.6,1.3,3.6,2.3c0.9,0.9,1.6,2.1,2,3.3c0.4,1.3,0.6,2.6,0.6,4c0.1,1.6-0.3,3.3-1.1,4.7
	c-0.7,1.2-1.7,2.3-3,3c-1.3,0.8-2.7,1.3-4.2,1.6c-1.6,0.3-3.1,0.5-4.7,0.5h-6.4L1965.7,339z M1958.8,386.4h6.5l0.3-22.2h4.1
	c1.1,0,2.1,0.1,3.2,0.5c0.9,0.4,1.6,0.9,2.3,1.5c0.7,0.7,1.4,1.4,2,2.2c0.7,0.9,1.4,1.8,2.2,2.9l12.2,16.6l5.7-3.5l-10.4-13.8
	c-0.5-0.6-1.1-1.4-1.8-2.3c-0.6-0.9-1.3-1.7-2-2.5c-0.7-0.8-1.5-1.5-2.3-2.1c-0.7-0.6-1.6-1-2.5-1.2v-0.1c1.8-0.2,3.5-0.7,5.1-1.5
	c3.2-1.4,5.7-4,6.9-7.3c0.7-1.8,1.1-3.7,1-5.7c0-2-0.4-4-1.2-5.8c-0.8-1.7-1.9-3.1-3.4-4.3c-1.6-1.2-3.3-2.1-5.2-2.7
	c-2.2-0.6-4.4-1-6.7-0.9h-15.7L1958.8,386.4z M2020.7,386.4l6.2,1l7.1-44.4h0.2l15.1,43.4h6.1l16.1-43.4h0.1l6.6,44.4l6.3-1
	l-8.2-51.9h-7l-16.9,43.8l-15.7-43.8h-6.7L2020.7,386.4z M2092.9,371.9c1.3,3.2,3.3,6.1,5.9,8.5c2.5,2.4,5.5,4.2,8.7,5.3
	c3.5,1.2,7.1,1.9,10.8,1.8c3.7,0,7.4-0.6,10.8-2c3.2-1.3,6.2-3.1,8.7-5.5c2.5-2.4,4.5-5.3,5.9-8.5c1.5-3.5,2.2-7.2,2.1-11
	c0.1-3.9-0.7-7.8-2.1-11.4c-1.3-3.2-3.3-6.1-5.9-8.5c-2.5-2.4-5.5-4.2-8.7-5.3c-3.5-1.2-7.1-1.9-10.8-1.8c-3.7,0-7.4,0.6-10.8,2
	c-3.2,1.3-6.2,3.1-8.7,5.5c-2.5,2.4-4.5,5.3-5.9,8.5c-1.5,3.5-2.2,7.2-2.1,10.9C2090.7,364.4,2091.4,368.2,2092.9,371.9
	L2092.9,371.9z M2099.2,352.1c1-2.5,2.4-4.9,4.3-6.9c7.8-8.2,20.7-8.5,28.9-0.8c0.3,0.2,0.5,0.5,0.8,0.8c1.9,2,3.3,4.3,4.3,6.9
	c2.1,5.4,2.1,11.4,0,16.9c-1,2.5-2.4,4.9-4.3,6.9c-7.8,8.2-20.7,8.5-28.9,0.8c-0.3-0.3-0.5-0.5-0.8-0.8c-1.9-2-3.3-4.3-4.3-6.9
	C2097.2,363.5,2097.2,357.5,2099.2,352.1L2099.2,352.1z M2162,339h5.2c4.1,0,7.1,0.8,8.8,2.3c1.8,1.7,2.8,4.1,2.7,6.6
	c0.1,2.5-1,4.8-2.8,6.5c-1.9,1.6-4.9,2.5-9.1,2.5h-4.9L2162,339z M2161.8,361.8h6.1c3.7,0,6.7,0.8,8.8,2.4c2.2,1.7,3.4,4.4,3.2,7.2
	c0,3.6-1,6.2-2.9,7.7c-2.3,1.7-5,2.5-7.8,2.3h-7.5L2161.8,361.8z M2154.9,386.4h14.6c5.1,0,9.2-1.2,12.2-3.8c3-2.5,4.6-6.1,4.6-10.6
	c0.1-3-0.9-6-2.7-8.4c-1.9-2.3-4.6-3.9-7.6-4.3v-0.1c2.7-0.6,5.1-2.1,6.8-4.3c1.6-2.3,2.5-5,2.3-7.8c0-1.5-0.3-3-0.8-4.4
	c-0.5-1.5-1.4-2.9-2.6-4c-1.4-1.3-3-2.3-4.7-3c-2.3-0.8-4.7-1.2-7.2-1.2h-14.4L2154.9,386.4z M2196.3,386.4h6.4l0.4-51.9h-6.4
	L2196.3,386.4z M2244.1,386.4V381H2222l0.4-46.5h-6.4l-0.4,51.9H2244.1z M2252.7,386.4h6.4l0.4-51.9h-6.4L2252.7,386.4z
	 M2266.8,339.9h16.4l-0.4,46.5h6.4l0.4-46.5h16.4v-5.4h-39.3L2266.8,339.9L2266.8,339.9z M2324.9,386.4h6.4l0.4-22.2l19.6-27.5
	l-5.6-3.3l-16.9,25.8l-16-25.8l-5.9,3.2l18.2,27.5L2324.9,386.4z"/>
<path id="Westsächsische_Hochschule_Zwickau" class="st0" d="M371.2,145.4h18.4l21-74.4h0.3l18.6,74.4h18.7l29.3-92.5l-17-4.5
	L439.7,124h-0.3l-18.7-73.7h-18.6L380.7,124h-0.3l-17.9-75.6L345,52.8L371.2,145.4z M497.6,101c0.2-1.8,0.7-3.6,1.4-5.2
	c0.8-1.7,1.8-3.4,3-4.8c1.2-1.4,2.6-2.6,4.3-3.6c1.6-0.9,3.4-1.4,5.3-1.4c2-0.1,3.9,0.4,5.6,1.3c1.5,0.8,2.8,2,3.8,3.4
	c1,1.5,1.8,3.1,2.3,4.8c0.5,1.8,0.8,3.6,0.9,5.4L497.6,101L497.6,101z M540.2,112.9c0-12.1-2.3-21.6-7-28.4
	c-4.7-6.8-11.9-10.2-21.6-10.2c-4.7-0.1-9.3,1-13.5,3.2c-3.9,2-7.2,4.9-9.9,8.3c-2.7,3.6-4.8,7.6-6.1,11.8
	c-1.4,4.4-2.1,8.9-2.1,13.5c-0.1,5,0.7,10.1,2.3,14.8c1.3,4.2,3.5,8.1,6.3,11.5c2.6,3.1,5.9,5.6,9.6,7.4c3.8,1.8,8,2.7,12.2,2.6
	c5.4,0.1,10.8-1.2,15.6-3.7c4.8-2.5,9-5.9,12.6-9.9l-9.6-8.8c-2.1,2.3-4.5,4.4-7.2,6.2c-2.6,1.8-5.7,2.8-8.9,2.8
	c-2.6,0.1-5.1-0.6-7.4-1.9c-2-1.3-3.6-3-4.9-5c-1.3-2.1-2.3-4.4-2.8-6.8c-0.6-2.4-0.9-4.8-0.9-7.3H540.2z M549.2,140.8
	c3.6,2.1,7.4,3.8,11.4,4.9c4,1.1,8.2,1.7,12.4,1.7c3.3,0,6.6-0.5,9.8-1.4c3-0.9,5.8-2.3,8.3-4.1c2.4-1.8,4.4-4.2,5.8-6.9
	c1.5-3,2.3-6.4,2.2-9.8c0-4.2-0.8-7.6-2.5-10c-1.6-2.4-3.7-4.5-6.1-6c-2.5-1.5-5.2-2.7-8-3.5c-2.9-0.8-5.5-1.6-8-2.5
	c-2.2-0.7-4.2-1.7-6.1-3c-1.6-1.2-2.6-3.1-2.5-5.1c0-1.3,0.3-2.6,1-3.6c0.7-1,1.5-1.9,2.5-2.6c1-0.7,2.2-1.2,3.4-1.5
	c1.2-0.3,2.5-0.5,3.7-0.5c2.8,0,5.5,0.6,8,1.6c2.6,0.9,5,2.3,7.2,3.9l7.2-10.6c-3.2-2.7-7-4.7-11.1-5.8c-4-1.2-8.2-1.8-12.4-1.8
	c-3.3,0-6.5,0.4-9.7,1.4c-2.9,0.8-5.7,2.2-8.1,4.1c-2.3,1.8-4.3,4.1-5.6,6.7c-1.5,2.9-2.2,6.1-2.1,9.3c0,4.7,0.8,8.3,2.4,11
	c1.5,2.5,3.5,4.7,6,6.3c2.4,1.5,5,2.7,7.8,3.4c2.8,0.8,5.4,1.5,7.8,2.3c2.1,0.6,4.2,1.6,6,2.8c1.6,1.2,2.5,3.1,2.4,5.2
	c0,2.8-1,4.9-2.9,6.2c-2,1.3-4.3,2-6.7,1.9c-3.1,0-6.2-0.6-9.1-1.7c-2.8-1.1-5.6-2.5-8.2-4.1L549.2,140.8z M646.5,131.4
	c-1.2,0.8-2.4,1.6-3.6,2.3c-1.2,0.7-2.6,1-4.1,1c-2.1,0-3.6-0.6-4.4-1.9c-0.9-1.6-1.3-3.5-1.2-5.4V119c0-3.1,0-6.4,0.1-9.9l0.4-20.3
	h15.4V76.1l-15.4,0.3l0.5-24.8h-16.8L617,76.4l-9.3-0.3v12.7h9.3l-0.4,21.2c0,1.6,0,3.1-0.1,4.7s-0.1,3.2-0.1,4.7v7.2
	c0,7.4,1.7,12.7,5.1,16c3.4,3.2,8,4.8,13.8,4.8c1.5,0,2.9-0.2,4.3-0.4c2.2-0.4,4.2-1.2,6.1-2.3l5.6-3L646.5,131.4z M655.9,140.8
	c3.6,2.1,7.4,3.8,11.4,4.9c4,1.1,8.2,1.7,12.4,1.7c3.3,0,6.6-0.5,9.8-1.4c3-0.9,5.8-2.3,8.3-4.1c2.4-1.8,4.4-4.2,5.8-6.9
	c1.5-3,2.3-6.4,2.2-9.8c0-4.2-0.8-7.6-2.5-10c-1.6-2.4-3.7-4.5-6.1-6c-2.5-1.5-5.2-2.7-8-3.5c-2.9-0.8-5.5-1.6-8-2.5
	c-2.2-0.7-4.2-1.7-6.1-3c-1.6-1.2-2.6-3.1-2.5-5.1c0-1.3,0.3-2.6,1-3.6c0.7-1,1.5-1.9,2.5-2.6c1-0.7,2.2-1.2,3.4-1.5
	c1.2-0.3,2.5-0.5,3.7-0.5c2.8,0,5.5,0.6,8,1.6c2.6,0.9,5,2.3,7.2,3.9l7.2-10.6c-3.2-2.7-7-4.7-11.1-5.8c-4-1.2-8.2-1.8-12.4-1.8
	c-3.3,0-6.5,0.4-9.7,1.4c-2.9,0.8-5.7,2.2-8.1,4.1c-2.3,1.8-4.3,4.1-5.6,6.7c-1.5,2.9-2.2,6.1-2.1,9.3c0,4.7,0.8,8.3,2.4,11
	c1.5,2.5,3.5,4.7,6,6.3c2.4,1.5,5,2.7,7.8,3.4c2.8,0.8,5.4,1.5,7.8,2.3c2.1,0.6,4.2,1.6,6,2.8c1.6,1.2,2.5,3.1,2.4,5.2
	c0,2.8-1,4.9-2.9,6.2c-2,1.3-4.3,2-6.7,1.9c-3.1,0-6.2-0.6-9.1-1.7c-2.8-1.1-5.6-2.5-8.2-4.1L655.9,140.8z M752.2,128.3
	c-1.8,1.9-3.9,3.6-6.2,4.8c-1.8,1-3.7,1.6-5.8,1.6c-2.3,0.1-4.6-0.6-6.4-2.1c-1.7-1.5-2.5-3.7-2.4-6c-0.1-3.4,1.6-6.7,4.5-8.5
	c2-1.3,4.2-2.4,6.5-3.2c3.3-1.1,6.6-2.1,10-2.8L752.2,128.3z M726.7,97.2c2.6-2,4.8-3.6,6.7-4.9c1.6-1,3.3-2,5-2.9
	c1.1-0.6,2.3-1.1,3.6-1.4c0.9-0.2,1.8-0.3,2.8-0.3c2.1-0.1,4.1,0.5,5.8,1.7c1.5,1.1,2.2,3.6,2.2,7.5v4.5c-6.3,1-12.5,2.5-18.5,4.6
	c-4.1,1.4-7.9,3.4-11.3,6c-2.5,1.9-4.4,4.3-5.7,7.2c-1,2.5-1.6,5.2-1.6,8c0,6.2,1.9,11.2,5.7,14.8c3.8,3.6,8.8,5.4,15.1,5.4
	c3.3,0,6.6-0.8,9.5-2.4c3.2-1.7,6-4,8.2-6.8c0.5,2.7,2,5.2,4.3,6.8c2.2,1.6,4.9,2.5,7.7,2.4c1.9-0.1,3.8-0.4,5.6-1
	c3.1-1.2,6.1-2.7,8.8-4.6l-4-8.4c-1,0.5-2.1,1-3.2,1.4c-0.6,0.2-1.1,0.3-1.7,0.3c-0.9,0-1.8-0.6-2.5-1.9c-0.8-1.4-1.2-3.1-1.2-4.7
	c0-1.5,0-2.9,0.1-4.3c0-1.4,0.1-2.8,0.2-4.4l0.5-19.9c0.1-0.9,0.1-1.8,0.1-2.6v-3.2c0.1-3-0.5-6-1.7-8.8c-1-2.4-2.5-4.5-4.4-6.2
	c-1.8-1.7-4-2.9-6.3-3.7c-2.4-0.8-4.9-1.2-7.4-1.2c-1.9,0-3.8,0.2-5.7,0.5c-2.2,0.4-4.4,1-6.5,1.9c-2.8,1.2-5.4,2.6-8,4.2
	c-3.5,2.3-6.9,4.7-10,7.4L726.7,97.2z M725.8,65.4H741V50.3h-15.1V65.4L725.8,65.4z M750.3,65.4h15.1V50.3h-15.1V65.4L750.3,65.4z
	 M831.7,125.4c-1.9,2-4,3.8-6.2,5.4c-2.3,1.6-5.1,2.4-8,2.3c-4.2,0-7.7-1.9-10.6-5.8c-2.8-3.9-4.3-9.5-4.3-16.8c0-2.7,0.3-5.3,1-7.9
	c0.6-2.5,1.6-4.9,3-7c1.3-2,2.9-3.7,4.9-5c2-1.3,4.4-2,6.9-1.9c2.7-0.1,5.3,0.6,7.6,2c2.2,1.4,4.4,2.9,6.4,4.6l9.5-9.2
	c-3-3.4-6.6-6.3-10.6-8.5c-4.2-2.2-8.9-3.3-13.6-3.2c-4.8-0.1-9.5,1-13.8,3.2c-4,2.1-7.4,5-10.2,8.5c-2.9,3.6-5,7.7-6.4,12
	c-1.5,4.5-2.2,9.2-2.2,14c0,4.3,0.7,8.6,1.9,12.7c1.2,4.1,3.2,8,5.7,11.4c2.5,3.4,5.7,6.2,9.4,8.2c4,2.2,8.5,3.3,13.1,3.2
	c5.1,0.1,10.1-1.1,14.5-3.5c4.4-2.5,8.2-5.8,11.3-9.7L831.7,125.4z M850.1,145.4h16.8l0.3-47c1.1-1,2.3-2.1,3.5-3.2
	c1.2-1.1,2.5-2.1,3.8-3c1.2-0.9,2.6-1.6,4-2.1c1.3-0.5,2.6-0.8,4-0.8c3.5,0,5.9,0.9,7.2,2.7c1.3,2,2,4.3,1.9,6.7v5.5
	c0,2.2,0,4.6-0.1,7.3c0,2.7-0.1,5.4-0.1,8.3c0,2.9-0.1,5.7-0.1,8.3l-0.1,17.3h16.8l0.4-34.8c0-2.2,0-4.5,0.1-6.8
	c0-2.3,0.1-5.2,0.1-8.7c0-2.6-0.3-5.2-0.8-7.8c-0.5-2.4-1.5-4.7-2.9-6.7c-1.5-2-3.4-3.6-5.6-4.7c-2.8-1.3-6-1.9-9.1-1.8
	c-4.4-0.1-8.8,0.9-12.7,2.9c-3.7,1.8-7,4.3-9.7,7.4h-0.3l0.3-42.2h-16.8L850.1,145.4z M923,140.8c3.6,2.1,7.4,3.8,11.4,4.9
	c4,1.1,8.2,1.7,12.4,1.7c3.3,0,6.6-0.5,9.8-1.4c3-0.9,5.8-2.3,8.3-4.1c2.4-1.8,4.4-4.2,5.8-6.9c1.5-3,2.3-6.4,2.2-9.8
	c0-4.2-0.8-7.6-2.5-10c-1.6-2.4-3.7-4.5-6.1-6c-2.5-1.5-5.2-2.7-8-3.5c-2.9-0.8-5.5-1.6-8-2.5c-2.2-0.7-4.2-1.7-6.1-3
	c-1.6-1.2-2.6-3.1-2.5-5.1c0-1.3,0.3-2.6,1-3.6c0.7-1,1.5-1.9,2.5-2.6c1-0.7,2.2-1.2,3.4-1.5c1.2-0.3,2.5-0.5,3.7-0.5
	c2.8,0,5.5,0.6,8,1.6c2.6,0.9,5,2.3,7.2,3.9l7.2-10.6c-3.2-2.7-7-4.7-11.1-5.8c-4-1.2-8.2-1.8-12.4-1.8c-3.3,0-6.5,0.4-9.7,1.4
	c-2.9,0.8-5.7,2.2-8.1,4.1c-2.3,1.8-4.3,4.1-5.6,6.7c-1.5,2.9-2.2,6.1-2.1,9.3c0,4.7,0.8,8.3,2.4,11c1.5,2.5,3.5,4.7,6,6.3
	c2.4,1.5,5,2.7,7.8,3.4c2.8,0.8,5.4,1.5,7.8,2.3c2.1,0.6,4.2,1.6,6,2.8c1.6,1.2,2.5,3.1,2.4,5.2c0,2.8-1,4.9-2.9,6.2
	c-2,1.3-4.3,2-6.7,1.9c-3.1,0-6.2-0.6-9.1-1.7c-2.8-1.1-5.6-2.5-8.2-4.1L923,140.8z M989.4,66.5h16.8l0.1-16.2h-16.8L989.4,66.5z
	 M988.7,145.4h16.8l0.7-69.3h-16.8L988.7,145.4z M1022.2,140.8c3.6,2.1,7.4,3.8,11.4,4.9c4,1.1,8.2,1.7,12.4,1.7
	c3.3,0,6.6-0.5,9.8-1.4c3-0.9,5.8-2.3,8.3-4.1c2.4-1.8,4.4-4.2,5.8-6.9c1.5-3,2.3-6.4,2.2-9.8c0-4.2-0.8-7.6-2.5-10
	c-1.6-2.4-3.7-4.4-6.1-6c-2.5-1.5-5.2-2.7-8-3.5c-2.9-0.8-5.5-1.6-8-2.5c-2.2-0.7-4.2-1.7-6.1-3c-1.6-1.2-2.6-3.1-2.5-5.1
	c0-1.3,0.3-2.6,1-3.6c0.7-1,1.5-1.9,2.6-2.6c1-0.7,2.2-1.2,3.4-1.5c1.2-0.3,2.5-0.5,3.7-0.5c2.8,0,5.5,0.6,8,1.6
	c2.6,0.9,5,2.3,7.2,3.9l7.2-10.6c-3.2-2.7-7-4.7-11.1-5.8c-4-1.2-8.2-1.8-12.4-1.8c-3.3,0-6.6,0.4-9.7,1.4c-2.9,0.8-5.7,2.2-8.1,4.1
	c-2.3,1.8-4.3,4.1-5.6,6.7c-1.5,2.9-2.2,6.1-2.1,9.3c0,4.7,0.8,8.3,2.4,11c1.5,2.5,3.5,4.7,6,6.3c2.4,1.5,5,2.7,7.8,3.4
	c2.8,0.8,5.4,1.5,7.8,2.3c2.1,0.6,4.1,1.6,6,2.8c1.6,1.2,2.5,3.1,2.4,5.2c0,2.8-1,4.9-2.9,6.2c-2,1.3-4.4,2-6.7,1.9
	c-3.1,0-6.2-0.6-9.1-1.7c-2.8-1.1-5.6-2.5-8.2-4.1L1022.2,140.8z M1129.3,125.4c-1.9,2-4,3.8-6.2,5.4c-2.3,1.6-5.1,2.4-8,2.3
	c-4.2,0-7.7-1.9-10.6-5.8c-2.8-3.9-4.3-9.5-4.3-16.8c0-2.7,0.3-5.3,1-7.9c0.6-2.5,1.6-4.9,3-7c1.3-2,2.9-3.7,4.9-5
	c2-1.3,4.4-2,6.9-1.9c2.7-0.1,5.3,0.6,7.6,2c2.2,1.4,4.4,2.9,6.4,4.6l9.5-9.2c-3-3.4-6.6-6.3-10.6-8.5c-4.2-2.2-8.9-3.3-13.6-3.2
	c-4.8-0.1-9.5,1-13.8,3.2c-4,2.1-7.4,5-10.2,8.5c-2.9,3.6-5,7.7-6.4,12c-1.5,4.5-2.2,9.2-2.2,14c0,4.3,0.7,8.6,1.9,12.7
	c1.2,4.1,3.2,8,5.7,11.4c2.5,3.4,5.7,6.2,9.4,8.2c4,2.2,8.5,3.3,13.1,3.2c5.1,0.1,10.1-1.1,14.5-3.5c4.4-2.5,8.2-5.8,11.3-9.7
	L1129.3,125.4z M1147.7,145.4h16.8l0.3-47c1.1-1,2.3-2.1,3.5-3.2c1.2-1.1,2.5-2.1,3.8-3c1.2-0.9,2.6-1.6,4-2.1
	c1.3-0.5,2.6-0.8,4-0.8c3.5,0,5.9,0.9,7.2,2.7c1.3,2,2,4.3,1.9,6.7v5.5c0,2.2,0,4.6-0.1,7.3c-0.1,2.7-0.1,5.4-0.1,8.3
	s-0.1,5.7-0.1,8.3l-0.1,17.3h16.8l0.4-34.8c0-2.2,0-4.5,0.1-6.8c0-2.3,0.1-5.2,0.1-8.7c0-2.6-0.3-5.2-0.8-7.8
	c-0.5-2.4-1.5-4.7-2.9-6.7c-1.5-2-3.4-3.6-5.6-4.7c-2.8-1.3-5.9-1.9-9.1-1.8c-4.4-0.1-8.8,0.9-12.7,2.9c-3.7,1.8-7,4.3-9.7,7.4h-0.3
	l0.3-42.2h-16.8L1147.7,145.4z M1237.8,101c0.2-1.8,0.7-3.6,1.4-5.2c0.8-1.7,1.8-3.4,3-4.8c1.2-1.4,2.6-2.6,4.3-3.6
	c1.6-0.9,3.4-1.4,5.3-1.4c2-0.1,3.9,0.4,5.6,1.3c1.5,0.8,2.8,2,3.8,3.4c1,1.5,1.8,3.1,2.3,4.8c0.5,1.8,0.8,3.6,0.9,5.4L1237.8,101
	L1237.8,101z M1280.4,112.9c0-12.1-2.3-21.6-7-28.4c-4.7-6.8-11.9-10.2-21.6-10.2c-4.7-0.1-9.3,1-13.5,3.2c-3.9,2-7.2,4.9-9.9,8.3
	c-2.7,3.6-4.8,7.6-6.1,11.8c-1.4,4.4-2.1,8.9-2.1,13.5c-0.1,5,0.7,10.1,2.3,14.8c1.3,4.2,3.5,8.1,6.3,11.5c2.6,3.1,5.9,5.6,9.6,7.4
	c3.8,1.8,8,2.7,12.2,2.6c5.4,0.1,10.8-1.2,15.6-3.7c4.8-2.5,9-5.9,12.6-9.9l-9.6-8.8c-2.1,2.3-4.5,4.4-7.2,6.2
	c-2.6,1.8-5.7,2.8-8.9,2.8c-2.6,0.1-5.1-0.6-7.4-1.9c-2-1.3-3.6-3-4.9-5c-1.3-2.1-2.2-4.4-2.8-6.8c-0.6-2.4-0.9-4.8-0.9-7.3
	L1280.4,112.9L1280.4,112.9z M1332.5,145.4h17.7l0.6-41.2h41.9l-0.6,41.2h17.9l0.8-95.1H1393l-0.3,38.8h-41.9l0.3-38.8h-17.7
	L1332.5,145.4z M1444,103.6c0.5-2.7,1.4-5.3,2.7-7.7c1.2-2.3,2.9-4.3,5-5.8c2.3-1.6,5-2.4,7.8-2.3c5.7,0,9.8,2.1,12.4,6.4
	s3.9,10,3.9,17.3c0,2.5-0.3,5.1-0.8,7.6c-0.5,2.6-1.5,5-2.8,7.3c-1.3,2.2-3,4-5.1,5.5c-4.7,3-10.8,2.9-15.5-0.1
	c-2.1-1.5-3.8-3.5-5-5.8c-1.2-2.3-2.1-4.8-2.7-7.4c-0.5-2.3-0.8-4.7-0.8-7.1C1443.2,108.7,1443.5,106.1,1444,103.6z M1428.4,124.8
	c1.2,4.2,3.3,8.2,6.1,11.6c2.8,3.4,6.3,6.1,10.3,8c4.6,2.1,9.6,3.1,14.7,3c4.8,0.1,9.6-0.9,14-3c4-1.9,7.5-4.6,10.4-8
	c2.8-3.4,5-7.4,6.5-11.6c1.5-4.5,2.3-9.3,2.3-14c0-4.9-0.7-9.7-2.1-14.4c-1.3-4.3-3.4-8.2-6.3-11.6c-2.8-3.3-6.4-6-10.4-7.8
	c-4.6-2-9.5-2.9-14.4-2.8c-4.8-0.1-9.5,1-13.8,3.2c-4,2-7.5,4.9-10.4,8.3c-2.9,3.5-5.1,7.4-6.6,11.7c-1.6,4.3-2.3,8.8-2.3,13.4
	C1426.4,115.5,1427,120.3,1428.4,124.8z M1549.5,125.4c-1.9,2-4,3.8-6.2,5.4c-2.3,1.6-5.1,2.4-8,2.3c-4.2,0-7.7-1.9-10.6-5.8
	c-2.8-3.9-4.3-9.5-4.3-16.8c0-2.7,0.3-5.3,1-7.9c0.6-2.5,1.6-4.9,2.9-7c1.3-2,2.9-3.7,4.9-5c2-1.3,4.4-2,6.9-1.9
	c2.7-0.1,5.3,0.6,7.6,2c2.2,1.4,4.4,2.9,6.4,4.6l9.5-9.2c-3-3.4-6.6-6.3-10.6-8.5c-4.2-2.2-8.9-3.3-13.6-3.2
	c-4.8-0.1-9.5,1-13.8,3.2c-4,2.1-7.4,5-10.2,8.5c-2.9,3.6-5,7.7-6.4,12c-1.5,4.5-2.2,9.2-2.2,14c0,4.3,0.7,8.6,1.9,12.7
	c1.2,4.1,3.2,8,5.7,11.4c2.5,3.4,5.7,6.2,9.4,8.2c4,2.2,8.5,3.3,13.1,3.2c5.1,0.1,10.1-1.1,14.5-3.5c4.4-2.5,8.2-5.8,11.3-9.7
	L1549.5,125.4z M1567.9,145.4h16.8l0.3-47c1.1-1,2.3-2.1,3.5-3.2c1.2-1.1,2.5-2.1,3.8-3c1.2-0.9,2.6-1.6,4-2.1
	c1.3-0.5,2.6-0.8,4-0.8c3.5,0,5.9,0.9,7.2,2.7c1.3,2,2,4.3,1.9,6.7v5.5c0,2.2,0,4.6-0.1,7.3s-0.1,5.4-0.1,8.3s-0.1,5.7-0.1,8.3
	l-0.1,17.3h16.8l0.4-34.8c0-2.2,0-4.5,0.1-6.8c0-2.3,0.1-5.2,0.1-8.7c0-2.6-0.3-5.2-0.8-7.8c-0.5-2.4-1.5-4.7-2.9-6.7
	c-1.5-2-3.4-3.6-5.6-4.7c-2.8-1.3-6-1.9-9.1-1.8c-4.4-0.1-8.8,0.9-12.7,2.9c-3.7,1.8-7,4.4-9.7,7.4h-0.3l0.3-42.2h-16.8
	L1567.9,145.4z M1640.8,140.8c3.6,2.1,7.4,3.8,11.4,4.9c4,1.1,8.2,1.7,12.4,1.7c3.3,0,6.6-0.5,9.8-1.4c3-0.9,5.8-2.3,8.3-4.1
	c5.3-3.9,8.3-10.1,8.1-16.6c0-4.2-0.8-7.6-2.5-10c-1.6-2.4-3.7-4.5-6.1-6c-2.5-1.5-5.2-2.7-8-3.5c-2.9-0.8-5.5-1.6-8-2.5
	c-2.2-0.7-4.2-1.7-6.1-3c-1.6-1.2-2.6-3.1-2.5-5.1c0-1.3,0.3-2.6,1-3.6c0.7-1,1.5-1.9,2.5-2.6c1-0.7,2.2-1.2,3.4-1.5
	c1.2-0.3,2.5-0.5,3.7-0.5c2.8,0,5.5,0.6,8.1,1.6c2.6,0.9,5,2.3,7.2,3.9l7.2-10.6c-3.2-2.7-7-4.7-11.1-5.8c-4-1.2-8.2-1.8-12.4-1.8
	c-3.3,0-6.5,0.4-9.7,1.4c-2.9,0.8-5.7,2.2-8.1,4.1c-2.3,1.8-4.3,4.1-5.6,6.7c-1.5,2.9-2.2,6.1-2.1,9.3c0,4.7,0.8,8.3,2.4,11
	c1.5,2.5,3.5,4.7,6,6.3c2.4,1.5,5,2.7,7.8,3.4c2.8,0.8,5.4,1.5,7.8,2.3c2.1,0.6,4.2,1.6,6,2.8c1.6,1.2,2.5,3.1,2.4,5.2
	c0,2.8-1,4.9-2.9,6.2c-2,1.3-4.3,2-6.7,1.9c-3.1,0-6.2-0.6-9.1-1.7c-2.8-1.1-5.6-2.5-8.2-4.1L1640.8,140.8z M1747.9,125.4
	c-1.9,2-4,3.8-6.2,5.4c-2.3,1.6-5.1,2.4-8,2.3c-4.2,0-7.7-1.9-10.6-5.8c-2.8-3.9-4.3-9.5-4.3-16.8c0-2.7,0.3-5.3,1-7.9
	c0.6-2.5,1.6-4.9,3-7c1.3-2,2.9-3.7,4.9-5c2-1.3,4.4-2,6.9-1.9c2.7-0.1,5.3,0.6,7.6,2c2.2,1.4,4.4,2.9,6.4,4.6l9.5-9.2
	c-3-3.4-6.6-6.3-10.6-8.5c-4.2-2.2-8.9-3.3-13.6-3.2c-4.8-0.1-9.5,1-13.8,3.2c-4,2.1-7.4,5-10.2,8.5c-2.9,3.6-5,7.7-6.4,12
	c-1.5,4.5-2.2,9.2-2.2,14c0,4.3,0.7,8.6,1.9,12.7c1.2,4.1,3.2,8,5.7,11.4c2.5,3.4,5.7,6.2,9.4,8.2c4,2.2,8.5,3.3,13.1,3.2
	c5.1,0.1,10.1-1.1,14.5-3.5c4.4-2.5,8.2-5.8,11.3-9.7L1747.9,125.4z M1766.3,145.4h16.8l0.3-47c1.1-1,2.3-2.1,3.5-3.2
	c1.2-1.1,2.5-2.1,3.8-3c1.2-0.9,2.6-1.6,4-2.1c1.3-0.5,2.6-0.8,4-0.8c3.5,0,5.9,0.9,7.2,2.7c1.3,2,2,4.3,1.9,6.7v5.5
	c0,2.2,0,4.6-0.1,7.3s-0.1,5.4-0.1,8.3s-0.1,5.7-0.1,8.3l-0.1,17.3h16.8l0.4-34.8c0-2.2,0-4.5,0.1-6.8c0-2.3,0.1-5.2,0.1-8.7
	c0-2.6-0.3-5.2-0.8-7.8c-0.5-2.4-1.5-4.7-2.9-6.7c-1.5-2-3.4-3.6-5.6-4.7c-2.8-1.3-6-1.9-9.1-1.8c-4.4-0.1-8.8,0.9-12.7,2.9
	c-3.7,1.8-7,4.4-9.7,7.4h-0.3l0.3-42.2H1767L1766.3,145.4z M1901.2,76.1h-16.8l-0.3,47c-1.1,1-2.3,2.1-3.5,3.2
	c-1.2,1.1-2.5,2.1-3.8,3c-1.2,0.9-2.6,1.6-4,2.1c-1.3,0.5-2.6,0.8-4,0.8c-3.5,0-5.9-0.9-7.2-2.6c-1.3-1.7-1.9-4.7-1.9-8.8
	c0-3.8,0-8.1,0.1-12.8c0-4.7,0.1-9.5,0.2-14.6l0.1-17.3h-16.8l-0.4,34.8c0,2.2,0,4.4-0.1,6.5c0,2.2-0.1,4.3-0.1,6.4
	c0,3.1,0.3,6.3,0.9,9.3c0.5,2.6,1.5,5.2,3,7.4c1.5,2.1,3.5,3.9,5.8,4.9c3,1.3,6.2,1.9,9.5,1.8c4.1,0,8.2-1,11.9-2.9
	c3.6-1.9,6.9-4.4,9.6-7.4h0.3v8.4h16.8L1901.2,76.1z M1920.4,145.4h16.8l0.8-103.1h-16.8L1920.4,145.4z M1971,101
	c0.2-1.8,0.7-3.6,1.4-5.2c0.8-1.7,1.8-3.4,3-4.8c1.2-1.4,2.6-2.6,4.3-3.6c1.6-0.9,3.4-1.4,5.3-1.4c2-0.1,3.9,0.4,5.6,1.3
	c1.5,0.8,2.8,2,3.8,3.4c1,1.5,1.8,3.1,2.3,4.8c0.5,1.8,0.8,3.6,0.9,5.4L1971,101L1971,101z M2013.7,112.9c0-12.1-2.3-21.6-7-28.4
	c-4.7-6.8-11.9-10.2-21.6-10.2c-4.7-0.1-9.3,1-13.5,3.2c-3.9,2-7.2,4.9-9.9,8.3c-2.7,3.6-4.8,7.6-6.1,11.8
	c-1.4,4.4-2.1,8.9-2.1,13.5c-0.1,5,0.7,10.1,2.3,14.8c1.3,4.2,3.5,8.1,6.3,11.5c2.6,3.1,5.9,5.6,9.6,7.4c3.8,1.8,8,2.7,12.2,2.6
	c5.4,0.1,10.8-1.2,15.6-3.7c4.8-2.5,9-5.9,12.6-9.9l-9.6-8.8c-2.1,2.3-4.5,4.4-7.2,6.2c-2.6,1.8-5.7,2.8-8.9,2.8
	c-2.6,0.1-5.1-0.6-7.4-1.9c-2-1.3-3.6-3-4.9-5c-1.3-2.1-2.2-4.4-2.8-6.8c-0.6-2.4-0.9-4.8-0.9-7.3L2013.7,112.9L2013.7,112.9z
	 M2065.1,145.4h60.2v-15.1h-42.5l44.7-67.4l-5.5-12.7h-60.2v15.1h43.3l-45.5,68.8L2065.1,145.4z M2154.7,145.4h16.9l13.5-50.7h0.3
	l12.2,50.7h17.1l22.3-66.1l-15.5-5.1l-14,50.7h-0.3l-12.8-48.8h-17.7L2163,125h-0.3l-12.6-50.7l-16.5,4.1L2154.7,145.4z
	 M2249.8,66.5h16.8l0.1-16.2h-16.8L2249.8,66.5z M2249.1,145.4h16.8l0.7-69.3h-16.8L2249.1,145.4z M2328.7,125.4
	c-1.9,2-4,3.8-6.2,5.4c-2.3,1.6-5.1,2.4-8,2.3c-4.2,0-7.8-1.9-10.6-5.8c-2.8-3.9-4.3-9.5-4.3-16.8c0-2.7,0.3-5.3,1-7.9
	c0.6-2.5,1.6-4.9,3-7c1.3-2,2.9-3.7,4.9-5c2-1.3,4.4-2,6.9-1.9c2.7-0.1,5.3,0.6,7.6,2c2.2,1.4,4.4,2.9,6.4,4.6l9.5-9.2
	c-3-3.4-6.6-6.3-10.6-8.5c-4.2-2.2-8.9-3.3-13.6-3.2c-4.8-0.1-9.5,1-13.8,3.2c-4,2.1-7.4,5-10.2,8.5c-2.8,3.6-5,7.7-6.4,12
	c-1.5,4.5-2.2,9.2-2.2,14c0,4.3,0.7,8.6,1.9,12.7c1.2,4.1,3.2,8,5.7,11.4c2.5,3.4,5.7,6.2,9.4,8.2c4,2.2,8.5,3.3,13.1,3.2
	c5.1,0.1,10.1-1.1,14.5-3.5c4.4-2.5,8.2-5.8,11.3-9.7L2328.7,125.4z M2347.1,145.4h16.8v-34h0.3l27.6,38.2l13.8-9.5l-24.2-30.9
	l24.2-27.2l-12-10l-29.4,36.4h-0.3l0.8-66.1h-16.8L2347.1,145.4z M2447.8,128.3c-1.8,1.9-3.9,3.6-6.2,4.8c-1.8,1-3.7,1.6-5.8,1.6
	c-2.3,0.1-4.6-0.6-6.4-2.1c-1.7-1.5-2.5-3.7-2.4-6c-0.1-3.4,1.6-6.7,4.5-8.5c2-1.3,4.2-2.4,6.5-3.2c3.3-1.1,6.6-2.1,10-2.8
	L2447.8,128.3z M2422.2,97.2c2.6-2,4.8-3.6,6.7-4.9c1.6-1.1,3.2-2,4.9-2.9c1.1-0.6,2.3-1.1,3.6-1.4c0.9-0.2,1.8-0.3,2.8-0.3
	c2.1-0.1,4.1,0.5,5.8,1.7c1.5,1.1,2.2,3.6,2.2,7.5v4.5c-6.3,1-12.5,2.5-18.5,4.6c-4.1,1.4-7.9,3.4-11.3,6c-2.5,1.9-4.4,4.3-5.7,7.2
	c-1,2.5-1.6,5.2-1.6,8c0,6.2,1.9,11.2,5.7,14.8s8.8,5.4,15.1,5.4c3.3,0,6.6-0.8,9.5-2.4c3.2-1.7,6-4,8.2-6.8c0.5,2.7,2,5.2,4.3,6.8
	c2.2,1.6,4.9,2.5,7.7,2.4c1.9-0.1,3.8-0.4,5.6-1c3.1-1.2,6.1-2.7,8.8-4.6l-4-8.4c-1,0.5-2.1,1-3.2,1.4c-0.5,0.2-1.1,0.3-1.7,0.3
	c-0.9,0-1.8-0.6-2.6-1.9c-0.8-1.4-1.2-3.1-1.2-4.7c0-1.5,0-2.9,0.1-4.3s0.1-2.8,0.2-4.4l0.6-19.9c0.1-0.9,0.1-1.8,0.1-2.6v-3.2
	c0.1-3-0.5-6-1.6-8.8c-1-2.4-2.5-4.5-4.4-6.2c-1.8-1.6-4-2.9-6.3-3.7c-2.4-0.8-4.9-1.2-7.4-1.2c-1.9,0-3.8,0.2-5.7,0.5
	c-2.2,0.4-4.4,1-6.5,1.9c-2.8,1.2-5.4,2.6-8,4.2c-3.5,2.3-6.9,4.7-10,7.4L2422.2,97.2z M2543,76.1h-16.8l-0.3,47
	c-1.1,1-2.3,2.1-3.5,3.2c-1.2,1.1-2.5,2.1-3.8,3c-1.3,0.9-2.6,1.6-4,2.1c-1.3,0.5-2.6,0.8-4,0.8c-3.5,0-5.9-0.9-7.1-2.6
	s-1.9-4.7-1.9-8.8c0-3.9,0-8.1,0.1-12.8c0-4.7,0.1-9.5,0.2-14.6l0.1-17.3h-16.8l-0.4,34.8c0,2.2,0,4.4-0.1,6.5
	c0,2.2-0.1,4.3-0.1,6.4c0,3.1,0.3,6.3,0.9,9.3c0.5,2.6,1.5,5.2,3,7.4c1.5,2.1,3.5,3.9,5.9,4.9c3,1.3,6.2,1.9,9.5,1.8
	c4.1,0,8.2-1,11.9-2.9c3.6-1.9,6.9-4.4,9.6-7.4h0.3v8.4h16.8L2543,76.1z"/>
<path id="NEUES_Z_ALS_VEKTOR" class="st0" d="M149.8,6.5l143.8,143.8L149.8,294L6,150.2L149.8,6.5z M196,57.9l-46.5-46.6l-46.8,46.7
	L196,57.9z M200.9,62.8l81.8,81.8L204.4,223L101.8,223L200.9,62.8z M94.1,234l49.7,49.6l49.7-49.7L94.1,234z M89.9,229.7l-79.5-79.5
	L99.7,61l94.3,0.1L89.9,229.7z"/>
</svg>
