<svg width="147" height="173" viewBox="0 0 147 173" fill="none" xmlns="http://www.w3.org/2000/svg">
<path d="M43.2353 0H129.706V43.25H147V95.15H125.382L95.1176 129.75H77.8235L47.5588 95.15H25.9412V43.25H43.2353V0ZM69.1765 173H0V155.7H69.1765C71.4698 155.7 73.6692 154.789 75.2909 153.166C76.9125 151.544 77.8235 149.344 77.8235 147.05V138.4H95.1176V147.05C95.1176 153.932 92.3846 160.533 87.5197 165.399C82.6547 170.266 76.0565 173 69.1765 173ZM43.2353 60.55V77.85H56.2059L86.4706 112.45L116.735 77.85H129.706V60.55H112.412V17.3H60.5294V60.55H43.2353Z" fill="currentColor"/>
</svg>
