<?xml version="1.0" encoding="UTF-8"?> <!-- Generator: Adobe Illustrator 25.3.1, SVG Export Plug-In . SVG Version: 6.00 Build 0) --> <svg xmlns="http://www.w3.org/2000/svg" xmlns:xlink="http://www.w3.org/1999/xlink" version="1.1" id="Ebene_1" x="0px" y="0px" viewBox="0 0 200 72.1" style="enable-background:new 0 0 200 72.1;" xml:space="preserve"> <style type="text/css"> .st0{opacity:0.4;fill:#B63437;} .st1{opacity:0.4;fill:#184F70;} .st2{opacity:0.5;fill:#184F70;} .st3{opacity:0.2;fill:#184F70;} .st4{fill:#B63437;} </style> <g> <g> <rect x="37.28" y="22.67" transform="matrix(0.7071 0.7071 -0.7071 0.7071 38.4479 -24.487)" class="st0" width="23" height="23"></rect> <rect x="21.02" y="6.41" transform="matrix(0.7071 0.7071 -0.7071 0.7071 22.1871 -17.7515)" class="st1" width="23" height="23"></rect> <rect x="4.76" y="22.67" transform="matrix(0.7071 0.7071 -0.7071 0.7071 28.9226 -1.4908)" class="st2" width="23" height="23"></rect> <rect x="21.02" y="38.93" transform="matrix(0.7071 0.7071 -0.7071 0.7071 45.1833 -8.2262)" class="st3" width="23" height="23"></rect> <rect x="17.6" y="19.25" transform="matrix(0.7071 0.7071 -0.7071 0.7071 33.6851 -12.9885)" class="st3" width="29.84" height="29.84"></rect> </g> <g> <g> <path class="st4" d="M79.32,46.29v7.18h-3.97V34.76h5.45c2.54,0,4.42,0.46,5.64,1.39c1.22,0.93,1.83,2.33,1.83,4.22 c0,1.1-0.3,2.08-0.91,2.94c-0.61,0.86-1.46,1.53-2.57,2.02c2.82,4.21,4.65,6.92,5.5,8.15h-4.4l-4.47-7.18H79.32z M79.32,43.07 h1.28c1.25,0,2.18-0.21,2.78-0.63c0.6-0.42,0.9-1.07,0.9-1.97c0-0.89-0.3-1.52-0.91-1.89c-0.61-0.38-1.56-0.56-2.84-0.56h-1.2 V43.07z"></path> <path class="st4" d="M98.82,53.73c-2.3,0-4.1-0.63-5.4-1.91c-1.3-1.27-1.95-3.07-1.95-5.4c0-2.4,0.6-4.25,1.8-5.56 c1.2-1.31,2.86-1.96,4.97-1.96c2.02,0,3.6,0.58,4.72,1.73s1.69,2.74,1.69,4.77v1.89h-9.23c0.04,1.11,0.37,1.98,0.99,2.6 c0.61,0.62,1.48,0.93,2.59,0.93c0.86,0,1.68-0.09,2.44-0.27c0.77-0.18,1.57-0.46,2.41-0.86v3.02c-0.68,0.34-1.41,0.6-2.19,0.76 C100.89,53.64,99.94,53.73,98.82,53.73z M98.27,41.67c-0.83,0-1.48,0.26-1.95,0.79c-0.47,0.52-0.74,1.27-0.81,2.23H101 c-0.02-0.96-0.27-1.71-0.76-2.23C99.76,41.93,99.1,41.67,98.27,41.67z"></path> <path class="st4" d="M117.82,49.22c0,1.47-0.51,2.59-1.53,3.35c-1.02,0.77-2.54,1.15-4.58,1.15c-1.04,0-1.93-0.07-2.66-0.21 c-0.73-0.14-1.42-0.35-2.06-0.62v-3.22c0.72,0.34,1.54,0.63,2.45,0.86c0.91,0.23,1.71,0.35,2.4,0.35c1.42,0,2.12-0.41,2.12-1.23 c0-0.31-0.09-0.56-0.28-0.75c-0.19-0.19-0.51-0.41-0.97-0.65c-0.46-0.24-1.07-0.53-1.84-0.85c-1.1-0.46-1.91-0.89-2.43-1.28 c-0.52-0.39-0.89-0.84-1.13-1.35c-0.23-0.51-0.35-1.13-0.35-1.88c0-1.27,0.49-2.25,1.48-2.95c0.99-0.7,2.38-1.04,4.19-1.04 c1.72,0,3.4,0.38,5.03,1.13l-1.18,2.81c-0.72-0.31-1.39-0.56-2.01-0.76c-0.62-0.2-1.26-0.29-1.91-0.29 c-1.15,0-1.73,0.31-1.73,0.93c0,0.35,0.19,0.65,0.56,0.91c0.37,0.26,1.18,0.64,2.44,1.14c1.12,0.45,1.94,0.87,2.46,1.27 c0.52,0.39,0.9,0.84,1.15,1.36C117.69,47.9,117.82,48.51,117.82,49.22z"></path> <path class="st4" d="M136.22,53.47h-4.51l-4.9-7.88l-1.68,1.2v6.68h-3.97V34.76h3.97v8.56l1.56-2.2l5.07-6.36h4.4l-6.53,8.28 L136.22,53.47z"></path> <path class="st4" d="M146.26,38.89c0.53,0,0.97,0.04,1.32,0.12l-0.29,3.66c-0.32-0.09-0.7-0.13-1.15-0.13 c-1.25,0-2.22,0.32-2.91,0.96c-0.7,0.64-1.04,1.54-1.04,2.69v7.28h-3.9V39.16h2.96l0.58,2.41H142c0.44-0.8,1.04-1.45,1.8-1.94 C144.55,39.14,145.37,38.89,146.26,38.89z"></path> <path class="st4" d="M150.01,35.46c0-1.27,0.71-1.91,2.12-1.91c1.42,0,2.12,0.64,2.12,1.91c0,0.61-0.18,1.08-0.53,1.41 c-0.35,0.34-0.89,0.5-1.59,0.5C150.72,37.38,150.01,36.74,150.01,35.46z M154.08,53.47h-3.9V39.16h3.9V53.47z"></path> <path class="st4" d="M169.15,34.76h4.01l-6.36,18.71h-4.33l-6.35-18.71h4.01l3.52,11.13c0.2,0.66,0.4,1.42,0.61,2.3 c0.21,0.87,0.34,1.48,0.39,1.82c0.09-0.79,0.41-2.16,0.96-4.12L169.15,34.76z"></path> <path class="st4" d="M181.68,53.73c-2.3,0-4.1-0.63-5.4-1.91c-1.3-1.27-1.95-3.07-1.95-5.4c0-2.4,0.6-4.25,1.8-5.56 c1.2-1.31,2.86-1.96,4.97-1.96c2.02,0,3.6,0.58,4.72,1.73c1.13,1.15,1.69,2.74,1.69,4.77v1.89h-9.23 c0.04,1.11,0.37,1.98,0.99,2.6c0.61,0.62,1.48,0.93,2.59,0.93c0.86,0,1.68-0.09,2.44-0.27c0.77-0.18,1.57-0.46,2.41-0.86v3.02 c-0.68,0.34-1.41,0.6-2.19,0.76C183.75,53.64,182.8,53.73,181.68,53.73z M181.13,41.67c-0.83,0-1.48,0.26-1.95,0.79 c-0.47,0.52-0.74,1.27-0.81,2.23h5.48c-0.02-0.96-0.27-1.71-0.76-2.23C182.62,41.93,181.96,41.67,181.13,41.67z"></path> <path class="st4" d="M198.68,38.89c0.53,0,0.97,0.04,1.32,0.12l-0.29,3.66c-0.32-0.09-0.7-0.13-1.15-0.13 c-1.25,0-2.22,0.32-2.91,0.96c-0.7,0.64-1.04,1.54-1.04,2.69v7.28h-3.9V39.16h2.96l0.58,2.41h0.19c0.44-0.8,1.04-1.45,1.8-1.94 C196.97,39.14,197.79,38.89,198.68,38.89z"></path> </g> </g> <g> <g> <path class="st4" d="M76.23,64.44v2.87h-0.8V60.4h1.89c0.85,0,1.47,0.16,1.88,0.49c0.4,0.32,0.61,0.81,0.61,1.46 c0,0.91-0.46,1.53-1.39,1.85l1.88,3.1h-0.95l-1.67-2.87H76.23z M76.23,63.75h1.1c0.57,0,0.98-0.11,1.25-0.34 c0.26-0.22,0.4-0.56,0.4-1.01c0-0.46-0.13-0.79-0.4-0.99c-0.27-0.2-0.7-0.3-1.3-0.3h-1.04V63.75z"></path> <path class="st4" d="M83.38,67.4c-0.77,0-1.37-0.23-1.81-0.7c-0.44-0.47-0.66-1.11-0.66-1.94c0-0.83,0.21-1.5,0.62-1.99 c0.41-0.49,0.96-0.74,1.66-0.74c0.65,0,1.16,0.21,1.54,0.64c0.38,0.43,0.57,0.99,0.57,1.69v0.5h-3.57 c0.02,0.61,0.17,1.07,0.46,1.38c0.29,0.32,0.7,0.47,1.23,0.47c0.56,0,1.11-0.12,1.65-0.35v0.7c-0.28,0.12-0.54,0.21-0.79,0.26 C84.03,67.38,83.73,67.4,83.38,67.4z M83.17,62.69c-0.42,0-0.75,0.13-0.99,0.41s-0.39,0.64-0.44,1.12h2.71 c0-0.49-0.11-0.87-0.33-1.14C83.89,62.83,83.58,62.69,83.17,62.69z"></path> <path class="st4" d="M89.86,65.9c0,0.48-0.18,0.85-0.54,1.11c-0.36,0.26-0.86,0.39-1.51,0.39c-0.69,0-1.22-0.11-1.61-0.33v-0.73 c0.25,0.13,0.52,0.23,0.8,0.3s0.56,0.11,0.82,0.11c0.41,0,0.72-0.07,0.94-0.2c0.22-0.13,0.33-0.33,0.33-0.6 c0-0.2-0.09-0.37-0.26-0.52c-0.17-0.14-0.52-0.31-1.02-0.51c-0.48-0.18-0.82-0.34-1.03-0.47c-0.2-0.13-0.35-0.29-0.45-0.46 c-0.1-0.17-0.15-0.37-0.15-0.61c0-0.42,0.17-0.76,0.52-1c0.34-0.24,0.81-0.37,1.41-0.37c0.56,0,1.1,0.11,1.63,0.34l-0.28,0.64 c-0.52-0.21-0.99-0.32-1.41-0.32c-0.37,0-0.65,0.06-0.84,0.17c-0.19,0.12-0.28,0.28-0.28,0.48c0,0.14,0.04,0.26,0.11,0.35 c0.07,0.1,0.18,0.19,0.34,0.28c0.16,0.09,0.46,0.22,0.91,0.38c0.61,0.22,1.03,0.45,1.24,0.67C89.75,65.27,89.86,65.55,89.86,65.9 z"></path> <path class="st4" d="M90.97,60.73c0-0.18,0.04-0.31,0.13-0.39c0.09-0.08,0.2-0.12,0.33-0.12c0.13,0,0.23,0.04,0.33,0.13 c0.09,0.08,0.14,0.22,0.14,0.39s-0.05,0.31-0.14,0.39c-0.09,0.09-0.2,0.13-0.33,0.13c-0.13,0-0.24-0.04-0.33-0.13 C91.02,61.04,90.97,60.9,90.97,60.73z M91.82,67.31h-0.78v-5.18h0.78V67.31z"></path> <path class="st4" d="M94.17,67.31h-0.78v-7.35h0.78V67.31z"></path> <path class="st4" d="M95.68,60.73c0-0.18,0.04-0.31,0.13-0.39c0.09-0.08,0.2-0.12,0.33-0.12c0.13,0,0.23,0.04,0.33,0.13 c0.09,0.08,0.14,0.22,0.14,0.39s-0.05,0.31-0.14,0.39c-0.09,0.09-0.2,0.13-0.33,0.13c-0.13,0-0.24-0.04-0.33-0.13 C95.72,61.04,95.68,60.9,95.68,60.73z M96.53,67.31h-0.78v-5.18h0.78V67.31z"></path> <path class="st4" d="M100.28,67.4c-0.77,0-1.37-0.23-1.81-0.7c-0.44-0.47-0.66-1.11-0.66-1.94c0-0.83,0.21-1.5,0.62-1.99 c0.41-0.49,0.96-0.74,1.66-0.74c0.65,0,1.16,0.21,1.54,0.64c0.38,0.43,0.57,0.99,0.57,1.69v0.5h-3.57 c0.02,0.61,0.17,1.07,0.46,1.38c0.29,0.32,0.7,0.47,1.23,0.47c0.56,0,1.11-0.12,1.65-0.35v0.7c-0.28,0.12-0.54,0.21-0.79,0.26 C100.93,67.38,100.63,67.4,100.28,67.4z M100.07,62.69c-0.42,0-0.75,0.13-0.99,0.41c-0.25,0.27-0.39,0.64-0.44,1.12h2.71 c0-0.49-0.11-0.87-0.33-1.14C100.79,62.83,100.48,62.69,100.07,62.69z"></path> <path class="st4" d="M106.97,67.31v-3.35c0-0.42-0.1-0.74-0.29-0.94c-0.19-0.21-0.49-0.31-0.9-0.31c-0.54,0-0.94,0.15-1.19,0.44 c-0.25,0.29-0.38,0.78-0.38,1.45v2.72h-0.78v-5.18h0.64l0.13,0.71h0.04c0.16-0.26,0.39-0.45,0.68-0.59 c0.29-0.14,0.61-0.21,0.97-0.21c0.62,0,1.09,0.15,1.41,0.45c0.32,0.3,0.47,0.78,0.47,1.44v3.38H106.97z"></path> <path class="st4" d="M110.94,66.76c0.14,0,0.27-0.01,0.4-0.03c0.13-0.02,0.23-0.04,0.31-0.06v0.6c-0.09,0.04-0.21,0.08-0.38,0.1 c-0.16,0.03-0.31,0.04-0.45,0.04c-1,0-1.5-0.53-1.5-1.58v-3.08h-0.74v-0.38l0.74-0.33l0.33-1.11h0.45v1.2h1.5v0.61h-1.5v3.05 c0,0.31,0.07,0.55,0.22,0.72C110.47,66.67,110.68,66.76,110.94,66.76z"></path> <path class="st4" d="M114.77,67.4c-0.77,0-1.37-0.23-1.81-0.7c-0.44-0.47-0.66-1.11-0.66-1.94c0-0.83,0.21-1.5,0.62-1.99 c0.41-0.49,0.96-0.74,1.66-0.74c0.65,0,1.16,0.21,1.54,0.64c0.38,0.43,0.57,0.99,0.57,1.69v0.5h-3.57 c0.02,0.61,0.17,1.07,0.46,1.38c0.29,0.32,0.7,0.47,1.23,0.47c0.56,0,1.11-0.12,1.65-0.35v0.7c-0.28,0.12-0.54,0.21-0.79,0.26 C115.42,67.38,115.12,67.4,114.77,67.4z M114.56,62.69c-0.42,0-0.75,0.13-0.99,0.41c-0.25,0.27-0.39,0.64-0.44,1.12h2.71 c0-0.49-0.11-0.87-0.33-1.14C115.28,62.83,114.97,62.69,114.56,62.69z"></path> <path class="st4" d="M124.39,60.4h0.86l-2.49,6.91h-0.79l-2.48-6.91h0.85l1.59,4.47c0.18,0.51,0.33,1.01,0.43,1.5 c0.11-0.51,0.26-1.02,0.44-1.53L124.39,60.4z"></path> <path class="st4" d="M128.18,67.4c-0.77,0-1.37-0.23-1.81-0.7c-0.44-0.47-0.66-1.11-0.66-1.94c0-0.83,0.21-1.5,0.62-1.99 c0.41-0.49,0.96-0.74,1.66-0.74c0.65,0,1.16,0.21,1.54,0.64c0.38,0.43,0.57,0.99,0.57,1.69v0.5h-3.57 c0.02,0.61,0.17,1.07,0.46,1.38c0.29,0.32,0.7,0.47,1.23,0.47c0.56,0,1.11-0.12,1.65-0.35v0.7c-0.28,0.12-0.54,0.21-0.79,0.26 C128.83,67.38,128.53,67.4,128.18,67.4z M127.97,62.69c-0.42,0-0.75,0.13-0.99,0.41c-0.25,0.27-0.39,0.64-0.44,1.12h2.71 c0-0.49-0.11-0.87-0.33-1.14C128.69,62.83,128.38,62.69,127.97,62.69z"></path> <path class="st4" d="M133.68,62.04c0.23,0,0.44,0.02,0.62,0.06l-0.11,0.73c-0.21-0.05-0.4-0.07-0.57-0.07 c-0.42,0-0.78,0.17-1.07,0.51c-0.3,0.34-0.45,0.76-0.45,1.27v2.78h-0.78v-5.18h0.65l0.09,0.96h0.04c0.19-0.34,0.42-0.6,0.69-0.78 S133.36,62.04,133.68,62.04z"></path> <path class="st4" d="M138.52,65.9c0,0.48-0.18,0.85-0.54,1.11c-0.36,0.26-0.86,0.39-1.51,0.39c-0.69,0-1.22-0.11-1.61-0.33v-0.73 c0.25,0.13,0.52,0.23,0.8,0.3s0.56,0.11,0.82,0.11c0.41,0,0.72-0.07,0.94-0.2s0.33-0.33,0.33-0.6c0-0.2-0.09-0.37-0.26-0.52 c-0.17-0.14-0.52-0.31-1.02-0.51c-0.48-0.18-0.82-0.34-1.03-0.47c-0.2-0.13-0.35-0.29-0.45-0.46c-0.1-0.17-0.15-0.37-0.15-0.61 c0-0.42,0.17-0.76,0.52-1c0.34-0.24,0.81-0.37,1.41-0.37c0.56,0,1.1,0.11,1.63,0.34l-0.28,0.64c-0.52-0.21-0.99-0.32-1.41-0.32 c-0.37,0-0.65,0.06-0.84,0.17c-0.19,0.12-0.28,0.28-0.28,0.48c0,0.14,0.04,0.26,0.11,0.35c0.07,0.1,0.18,0.19,0.34,0.28 c0.16,0.09,0.46,0.22,0.91,0.38c0.61,0.22,1.03,0.45,1.24,0.67C138.41,65.27,138.52,65.55,138.52,65.9z"></path> <path class="st4" d="M144.16,64.72c0,0.84-0.21,1.5-0.64,1.98c-0.42,0.47-1.01,0.71-1.76,0.71c-0.46,0-0.87-0.11-1.23-0.33 c-0.36-0.22-0.64-0.53-0.83-0.93c-0.2-0.41-0.29-0.88-0.29-1.43c0-0.84,0.21-1.5,0.63-1.97c0.42-0.47,1.01-0.71,1.76-0.71 c0.72,0,1.3,0.24,1.73,0.72C143.95,63.24,144.16,63.89,144.16,64.72z M140.22,64.72c0,0.66,0.13,1.17,0.4,1.51 s0.65,0.52,1.17,0.52c0.51,0,0.9-0.17,1.17-0.52c0.27-0.34,0.4-0.85,0.4-1.51c0-0.66-0.13-1.16-0.4-1.5 c-0.27-0.34-0.66-0.51-1.18-0.51c-0.51,0-0.9,0.17-1.16,0.5C140.35,63.55,140.22,64.05,140.22,64.72z"></path> <path class="st4" d="M147.8,62.04c0.23,0,0.44,0.02,0.62,0.06l-0.11,0.73c-0.21-0.05-0.4-0.07-0.57-0.07 c-0.42,0-0.78,0.17-1.07,0.51c-0.3,0.34-0.45,0.76-0.45,1.27v2.78h-0.78v-5.18h0.65l0.09,0.96h0.04c0.19-0.34,0.42-0.6,0.69-0.78 S147.48,62.04,147.8,62.04z"></path> <path class="st4" d="M153.53,62.13v0.5l-0.96,0.11c0.09,0.11,0.17,0.25,0.24,0.43c0.07,0.18,0.1,0.38,0.1,0.6 c0,0.51-0.17,0.91-0.52,1.21c-0.35,0.3-0.82,0.45-1.43,0.45c-0.15,0-0.3-0.01-0.43-0.04c-0.33,0.18-0.5,0.4-0.5,0.67 c0,0.14,0.06,0.25,0.18,0.31c0.12,0.07,0.32,0.1,0.6,0.1h0.92c0.56,0,0.99,0.12,1.29,0.35c0.3,0.24,0.45,0.58,0.45,1.03 c0,0.57-0.23,1.01-0.69,1.31c-0.46,0.3-1.13,0.45-2.01,0.45c-0.68,0-1.2-0.13-1.57-0.38c-0.37-0.25-0.55-0.61-0.55-1.07 c0-0.32,0.1-0.59,0.3-0.82c0.2-0.23,0.49-0.39,0.85-0.47c-0.13-0.06-0.24-0.15-0.33-0.28c-0.09-0.13-0.13-0.27-0.13-0.44 c0-0.19,0.05-0.35,0.15-0.5c0.1-0.14,0.26-0.28,0.48-0.41c-0.27-0.11-0.49-0.3-0.65-0.56c-0.17-0.26-0.25-0.57-0.25-0.91 c0-0.57,0.17-1,0.51-1.31c0.34-0.31,0.82-0.46,1.45-0.46c0.27,0,0.52,0.03,0.73,0.09H153.53z M149.4,68.18 c0,0.28,0.12,0.49,0.35,0.64c0.24,0.14,0.57,0.22,1.02,0.22c0.66,0,1.15-0.1,1.46-0.3c0.32-0.2,0.47-0.46,0.47-0.8 c0-0.28-0.09-0.47-0.26-0.58c-0.17-0.11-0.5-0.16-0.98-0.16h-0.94c-0.36,0-0.63,0.09-0.83,0.26 C149.5,67.62,149.4,67.86,149.4,68.18z M149.83,63.79c0,0.36,0.1,0.64,0.31,0.82c0.21,0.19,0.49,0.28,0.86,0.28 c0.77,0,1.15-0.37,1.15-1.12c0-0.78-0.39-1.17-1.16-1.17c-0.37,0-0.65,0.1-0.85,0.3C149.93,63.1,149.83,63.4,149.83,63.79z"></path> <path class="st4" d="M155.23,62.13v3.36c0,0.42,0.1,0.74,0.29,0.94c0.19,0.21,0.49,0.31,0.9,0.31c0.54,0,0.94-0.15,1.19-0.44 c0.25-0.3,0.38-0.78,0.38-1.45v-2.72h0.78v5.18h-0.65l-0.11-0.69h-0.04c-0.16,0.26-0.38,0.45-0.67,0.59 c-0.29,0.13-0.61,0.2-0.98,0.2c-0.63,0-1.1-0.15-1.41-0.45c-0.31-0.3-0.47-0.78-0.47-1.44v-3.39H155.23z"></path> <path class="st4" d="M163.88,67.31v-3.35c0-0.42-0.1-0.74-0.29-0.94c-0.19-0.21-0.49-0.31-0.9-0.31c-0.54,0-0.94,0.15-1.19,0.44 c-0.25,0.29-0.38,0.78-0.38,1.45v2.72h-0.78v-5.18h0.64l0.13,0.71h0.04c0.16-0.26,0.39-0.45,0.68-0.59 c0.29-0.14,0.61-0.21,0.97-0.21c0.62,0,1.09,0.15,1.41,0.45c0.32,0.3,0.47,0.78,0.47,1.44v3.38H163.88z"></path> <path class="st4" d="M170.42,62.13v0.5l-0.96,0.11c0.09,0.11,0.17,0.25,0.24,0.43c0.07,0.18,0.1,0.38,0.1,0.6 c0,0.51-0.17,0.91-0.52,1.21c-0.35,0.3-0.82,0.45-1.43,0.45c-0.15,0-0.3-0.01-0.43-0.04c-0.33,0.18-0.5,0.4-0.5,0.67 c0,0.14,0.06,0.25,0.18,0.31c0.12,0.07,0.32,0.1,0.6,0.1h0.92c0.56,0,0.99,0.12,1.29,0.35c0.3,0.24,0.45,0.58,0.45,1.03 c0,0.57-0.23,1.01-0.69,1.31c-0.46,0.3-1.13,0.45-2.01,0.45c-0.68,0-1.2-0.13-1.57-0.38c-0.37-0.25-0.55-0.61-0.55-1.07 c0-0.32,0.1-0.59,0.3-0.82c0.2-0.23,0.49-0.39,0.85-0.47c-0.13-0.06-0.24-0.15-0.33-0.28c-0.09-0.13-0.13-0.27-0.13-0.44 c0-0.19,0.05-0.35,0.15-0.5c0.1-0.14,0.26-0.28,0.48-0.41c-0.27-0.11-0.49-0.3-0.65-0.56c-0.17-0.26-0.25-0.57-0.25-0.91 c0-0.57,0.17-1,0.51-1.31c0.34-0.31,0.82-0.46,1.45-0.46c0.27,0,0.52,0.03,0.73,0.09H170.42z M166.29,68.18 c0,0.28,0.12,0.49,0.35,0.64c0.24,0.14,0.57,0.22,1.02,0.22c0.66,0,1.15-0.1,1.46-0.3c0.32-0.2,0.47-0.46,0.47-0.8 c0-0.28-0.09-0.47-0.26-0.58c-0.17-0.11-0.5-0.16-0.98-0.16h-0.94c-0.36,0-0.63,0.09-0.83,0.26 C166.39,67.62,166.29,67.86,166.29,68.18z M166.71,63.79c0,0.36,0.1,0.64,0.31,0.82c0.21,0.19,0.49,0.28,0.86,0.28 c0.77,0,1.15-0.37,1.15-1.12c0-0.78-0.39-1.17-1.16-1.17c-0.37,0-0.65,0.1-0.85,0.3C166.81,63.1,166.71,63.4,166.71,63.79z"></path> <path class="st4" d="M174.72,65.9c0,0.48-0.18,0.85-0.54,1.11c-0.36,0.26-0.86,0.39-1.51,0.39c-0.69,0-1.22-0.11-1.61-0.33v-0.73 c0.25,0.13,0.52,0.23,0.8,0.3s0.56,0.11,0.82,0.11c0.41,0,0.72-0.07,0.94-0.2c0.22-0.13,0.33-0.33,0.33-0.6 c0-0.2-0.09-0.37-0.26-0.52c-0.17-0.14-0.52-0.31-1.02-0.51c-0.48-0.18-0.82-0.34-1.03-0.47c-0.2-0.13-0.35-0.29-0.45-0.46 c-0.1-0.17-0.15-0.37-0.15-0.61c0-0.42,0.17-0.76,0.52-1c0.34-0.24,0.81-0.37,1.41-0.37c0.56,0,1.1,0.11,1.63,0.34l-0.28,0.64 c-0.52-0.21-0.99-0.32-1.41-0.32c-0.37,0-0.65,0.06-0.84,0.17c-0.19,0.12-0.28,0.28-0.28,0.48c0,0.14,0.04,0.26,0.11,0.35 c0.07,0.1,0.18,0.19,0.34,0.28c0.16,0.09,0.46,0.22,0.91,0.38c0.61,0.22,1.03,0.45,1.24,0.67 C174.61,65.27,174.72,65.55,174.72,65.9z"></path> <path class="st4" d="M179.44,67.31v-3.35c0-0.42-0.1-0.74-0.29-0.94c-0.19-0.21-0.49-0.31-0.9-0.31c-0.54,0-0.94,0.15-1.19,0.44 c-0.25,0.29-0.38,0.78-0.38,1.45v2.72h-0.78v-5.18h0.64l0.13,0.71h0.04c0.16-0.26,0.39-0.45,0.68-0.59s0.61-0.21,0.97-0.21 c0.62,0,1.09,0.15,1.41,0.45c0.32,0.3,0.47,0.78,0.47,1.44v3.38H179.44z"></path> <path class="st4" d="M183.93,67.4c-0.77,0-1.37-0.23-1.81-0.7c-0.44-0.47-0.66-1.11-0.66-1.94c0-0.83,0.21-1.5,0.62-1.99 c0.41-0.49,0.96-0.74,1.66-0.74c0.65,0,1.16,0.21,1.54,0.64c0.38,0.43,0.57,0.99,0.57,1.69v0.5h-3.57 c0.02,0.61,0.17,1.07,0.46,1.38c0.29,0.32,0.7,0.47,1.23,0.47c0.56,0,1.11-0.12,1.65-0.35v0.7c-0.28,0.12-0.54,0.21-0.79,0.26 C184.58,67.38,184.28,67.4,183.93,67.4z M183.71,62.69c-0.42,0-0.75,0.13-0.99,0.41s-0.39,0.64-0.44,1.12h2.71 c0-0.49-0.11-0.87-0.33-1.14C184.44,62.83,184.12,62.69,183.71,62.69z"></path> <path class="st4" d="M188.74,66.76c0.14,0,0.27-0.01,0.4-0.03c0.13-0.02,0.23-0.04,0.31-0.06v0.6c-0.09,0.04-0.21,0.08-0.38,0.1 c-0.16,0.03-0.31,0.04-0.45,0.04c-1,0-1.5-0.53-1.5-1.58v-3.08h-0.74v-0.38l0.74-0.33l0.33-1.11h0.45v1.2h1.5v0.61h-1.5v3.05 c0,0.31,0.07,0.55,0.22,0.72C188.28,66.67,188.49,66.76,188.74,66.76z"></path> <path class="st4" d="M193.7,67.31h-3.76v-0.53l2.83-4.03h-2.65v-0.61h3.51v0.61l-2.79,3.96h2.86V67.31z"></path> <path class="st4" d="M197.01,67.4c-0.77,0-1.37-0.23-1.81-0.7c-0.44-0.47-0.66-1.11-0.66-1.94c0-0.83,0.21-1.5,0.62-1.99 c0.41-0.49,0.96-0.74,1.66-0.74c0.65,0,1.16,0.21,1.54,0.64c0.38,0.43,0.57,0.99,0.57,1.69v0.5h-3.57 c0.02,0.61,0.17,1.07,0.46,1.38c0.29,0.32,0.7,0.47,1.23,0.47c0.56,0,1.11-0.12,1.65-0.35v0.7c-0.28,0.12-0.54,0.21-0.79,0.26 C197.65,67.38,197.36,67.4,197.01,67.4z M196.79,62.69c-0.42,0-0.75,0.13-0.99,0.41c-0.25,0.27-0.39,0.64-0.44,1.12h2.71 c0-0.49-0.11-0.87-0.33-1.14C197.52,62.83,197.2,62.69,196.79,62.69z"></path> </g> </g> </g> </svg> 