<svg width="19" height="19" viewBox="0 0 19 19" fill="none" xmlns="http://www.w3.org/2000/svg">
<path fill-rule="evenodd" clip-rule="evenodd" d="M5.6514 6.47043C5.36883 6.07031 5.19929 5.61303 5.19929 5.09859C5.19929 3.78391 6.27305 2.75503 7.51636 2.75503C8.75967 2.75503 9.83343 3.84107 9.83343 5.09859C9.83343 5.49871 9.7204 5.89883 9.55086 6.24179C8.59013 8.01375 8.0815 8.64251 8.13801 9.49992C8.0815 10.3002 8.64664 10.9861 9.55086 12.758C9.7204 13.101 9.83343 13.5011 9.83343 13.9012C9.83343 15.2159 8.75967 16.2448 7.51636 16.2448C6.27305 16.2448 5.19929 15.2159 5.19929 13.9012C5.19929 13.3868 5.36883 12.9295 5.6514 12.5294C7.34682 10.0144 7.34682 8.87115 5.6514 6.47043ZM11.7549 11.9578C14.8632 13.9584 14.3546 12.4151 14.3546 16.6449C14.3546 17.045 14.4676 17.4452 14.6371 17.7881C15.2588 18.9313 16.6716 19.3314 17.8019 18.7027C18.9322 18.0739 19.3278 16.6449 18.7061 15.5017C18.4801 15.1016 18.1975 14.8158 17.8584 14.6443C15.4848 13.2153 15.0327 13.3868 15.1457 11.7292C15.2023 10.9289 15.2023 10.243 15.2588 9.49992C15.2588 8.81399 15.2023 8.07091 15.1457 7.27067C15.0327 5.61303 15.5413 5.78451 17.8584 4.35551C18.1975 4.12687 18.4801 3.84107 18.7061 3.49811C19.3278 2.35491 18.9322 0.925908 17.8019 0.297147C16.6716 -0.331613 15.2588 0.0685072 14.6371 1.21171C14.4111 1.55467 14.3546 1.95479 14.3546 2.35491C14.3546 6.58475 14.8632 5.04143 11.7549 7.04203C10.229 7.95659 10.116 10.8718 11.7549 11.9578ZM4.63415 9.44276C4.63415 10.7574 3.61689 11.7863 2.31707 11.7863C1.01725 11.7863 0 10.7574 0 9.44276C0 8.12807 1.01725 7.09919 2.31707 7.09919C3.61689 7.09919 4.63415 8.18524 4.63415 9.44276Z" fill="#21FEFE"/>
</svg>
