<svg width="40" height="40" viewBox="0 0 40 40" fill="none" xmlns="http://www.w3.org/2000/svg">
<g clip-path="url(#clip0_464_1659)">
<path d="M36.6667 3.33333V36.6667H3.33333V3.33333H36.6667ZM36.6667 0H3.33333C2.44928 0 1.60143 0.35119 0.976311 0.976311C0.35119 1.60143 0 2.44928 0 3.33333L0 36.6667C0 37.5507 0.35119 38.3986 0.976311 39.0237C1.60143 39.6488 2.44928 40 3.33333 40H36.6667C37.5507 40 38.3986 39.6488 39.0237 39.0237C39.6488 38.3986 40 37.5507 40 36.6667V3.33333C40 2.44928 39.6488 1.60143 39.0237 0.976311C38.3986 0.35119 37.5507 0 36.6667 0V0Z" fill="black"/>
<path d="M30 28.3333H10V31.6666H30V28.3333ZM21.6667 31.6666H18.3333V36.6666H21.6667V31.6666Z" fill="black"/>
<path fill-rule="evenodd" clip-rule="evenodd" d="M15.5452 11.8151C15.5133 11.7665 15.4827 11.717 15.4535 11.6668H3.3335V8.33342H15.4435C15.7357 7.82565 16.1568 7.40408 16.6643 7.1114C17.1718 6.81873 17.7477 6.66534 18.3335 6.66676H21.6668C22.2516 6.6674 22.8259 6.82171 23.3322 7.11422C23.8386 7.40673 24.2592 7.82718 24.5518 8.33342H38.3335V11.6668H24.5468C24.1111 12.4129 23.4022 12.9604 22.5702 13.1934L20.0002 18.3334L17.4302 13.1934C16.6559 12.977 15.9862 12.4873 15.5452 11.8151ZM20.0002 11.6668H18.3268H21.6735H20.0002ZM21.6668 10.0001C21.6668 10.4421 21.4912 10.866 21.1787 11.1786C20.8661 11.4912 20.4422 11.6668 20.0002 11.6668C19.5581 11.6668 19.1342 11.4912 18.8217 11.1786C18.5091 10.866 18.3335 10.4421 18.3335 10.0001C18.3335 9.55806 18.5091 9.13414 18.8217 8.82158C19.1342 8.50902 19.5581 8.33342 20.0002 8.33342C20.4422 8.33342 20.8661 8.50902 21.1787 8.82158C21.4912 9.13414 21.6668 9.55806 21.6668 10.0001Z" fill="black"/>
</g>
<defs>
<clipPath id="clip0_464_1659">
<rect width="40" height="40" fill="white"/>
</clipPath>
</defs>
</svg>
