<svg width="40" height="40" viewBox="0 0 40 40" fill="none" xmlns="http://www.w3.org/2000/svg">
<path d="M31.231 33.618L24 23.675V14H26V12H14V14H16V23.675L8.76903 33.618C8.33286 34.2174 8.07104 34.9259 8.01253 35.6649C7.95403 36.4039 8.10112 37.1447 8.43753 37.8053C8.77394 38.4659 9.28656 39.0206 9.91866 39.4079C10.5508 39.7953 11.2777 40.0002 12.019 40H27.98C28.7214 40.0002 29.4483 39.7953 30.0804 39.4079C30.7125 39.0206 31.2251 38.4659 31.5615 37.8053C31.8979 37.1447 32.045 36.4039 31.9865 35.6649C31.928 34.9259 31.6662 34.2174 31.23 33.618H31.231ZM18 24.325V14H22V24.325L24.673 28H15.327L18 24.325ZM27.981 38H12.02C11.6478 37.9996 11.283 37.8964 10.9657 37.7017C10.6485 37.507 10.3912 37.2285 10.2222 36.8968C10.0533 36.5652 9.9793 36.1933 10.0084 35.8222C10.0375 35.4511 10.1685 35.0953 10.387 34.794L13.873 30H26.127L29.614 34.794C29.8326 35.0953 29.9636 35.4511 29.9927 35.8222C30.0218 36.1933 29.9477 36.5652 29.7788 36.8968C29.6099 37.2285 29.3526 37.507 29.0353 37.7017C28.7181 37.8964 28.3532 37.9996 27.981 38Z" fill="black"/>
<path d="M19.5 8.40135C19.5 9.50592 18.6046 10.4013 17.5 10.4013C16.3954 10.4013 15.5 9.50592 15.5 8.40135C15.5 7.29678 16.3954 6.40135 17.5 6.40135C18.6046 6.40135 19.5 7.29678 19.5 8.40135Z" stroke="black" stroke-width="2"/>
<path d="M25.5 3.53544C25.5 4.91616 24.3807 6.03544 23 6.03544C21.6193 6.03544 20.5 4.91616 20.5 3.53544C20.5 2.15473 21.6193 1.03544 23 1.03544C24.3807 1.03544 25.5 2.15473 25.5 3.53544Z" stroke="black" stroke-width="2"/>
</svg>
