<svg width="40" height="40" viewBox="0 0 40 40" fill="none" xmlns="http://www.w3.org/2000/svg">
<g clip-path="url(#clip0_464_1633)">
<path d="M12.0111 40C10.9101 40 9.96788 39.6087 9.18449 38.826C8.39976 38.042 8.0074 37.1 8.0074 36C8.0074 34.9 8.39976 33.958 9.18449 33.174C9.96788 32.3913 10.9101 32 12.0111 32C13.1121 32 14.0543 32.3913 14.8377 33.174C15.6224 33.958 16.0148 34.9 16.0148 36C16.0148 37.1 15.6224 38.042 14.8377 38.826C14.0543 39.6087 13.1121 40 12.0111 40ZM32.0296 40C30.9286 40 29.9864 39.6087 29.203 38.826C28.4183 38.042 28.0259 37.1 28.0259 36C28.0259 34.9 28.4183 33.958 29.203 33.174C29.9864 32.3913 30.9286 32 32.0296 32C33.1306 32 34.0735 32.3913 34.8582 33.174C35.6416 33.958 36.0333 34.9 36.0333 36C36.0333 37.1 35.6416 38.042 34.8582 38.826C34.0735 39.6087 33.1306 40 32.0296 40ZM10.3095 8L15.114 18H29.1269L34.632 8H10.3095ZM8.40777 4H37.9351C38.7024 4 39.2863 4.34133 39.6867 5.024C40.087 5.708 40.1037 6.4 39.7367 7.1L32.6301 19.9C32.2631 20.5667 31.7707 21.0833 31.1528 21.45C30.5362 21.8167 29.8609 22 29.1269 22H14.2131L12.0111 26H36.0333V30H12.0111C10.5097 30 9.37533 29.3413 8.60795 28.024C7.84058 26.708 7.80721 25.4 8.50786 24.1L11.2104 19.2L4.0037 4H0V0H6.50601L8.40777 4ZM15.114 18H29.1269H15.114Z" fill="black"/>
</g>
<defs>
<clipPath id="clip0_464_1633">
<rect width="40" height="40" fill="white"/>
</clipPath>
</defs>
</svg>
