<svg width="40" height="40" viewBox="0 0 40 40" fill="none" xmlns="http://www.w3.org/2000/svg">
<path d="M12.7222 24C12.1713 24 11.7092 23.808 11.3358 23.424C10.9638 23.0413 10.7778 22.5667 10.7778 22C10.7778 21.4333 10.9638 20.958 11.3358 20.574C11.7092 20.1913 12.1713 20 12.7222 20C13.2731 20 13.7353 20.1913 14.1086 20.574C14.4806 20.958 14.6667 21.4333 14.6667 22C14.6667 22.5667 14.4806 23.0413 14.1086 23.424C13.7353 23.808 13.2731 24 12.7222 24ZM20.5 24C19.9491 24 19.4876 23.808 19.1156 23.424C18.7422 23.0413 18.5556 22.5667 18.5556 22C18.5556 21.4333 18.7422 20.958 19.1156 20.574C19.4876 20.1913 19.9491 20 20.5 20C21.0509 20 21.5131 20.1913 21.8864 20.574C22.2584 20.958 22.4444 21.4333 22.4444 22C22.4444 22.5667 22.2584 23.0413 21.8864 23.424C21.5131 23.808 21.0509 24 20.5 24ZM28.2778 24C27.7269 24 27.2654 23.808 26.8933 23.424C26.52 23.0413 26.3333 22.5667 26.3333 22C26.3333 21.4333 26.52 20.958 26.8933 20.574C27.2654 20.1913 27.7269 20 28.2778 20C28.8287 20 29.2902 20.1913 29.6622 20.574C30.0356 20.958 30.2222 21.4333 30.2222 22C30.2222 22.5667 30.0356 23.0413 29.6622 23.424C29.2902 23.808 28.8287 24 28.2778 24ZM6.88889 40C5.81944 40 4.90361 39.6087 4.14139 38.826C3.38046 38.042 3 37.1 3 36V8C3 6.9 3.38046 5.95867 4.14139 5.176C4.90361 4.392 5.81944 4 6.88889 4H8.83333V0H12.7222V4H28.2778V0H32.1667V4H34.1111C35.1806 4 36.0964 4.392 36.8586 5.176C37.6195 5.95867 38 6.9 38 8V36C38 37.1 37.6195 38.042 36.8586 38.826C36.0964 39.6087 35.1806 40 34.1111 40H6.88889ZM6.88889 36H34.1111V16H6.88889V36Z" fill="black"/>
</svg>
