<svg width="40" height="40" viewBox="0 0 40 40" fill="none" xmlns="http://www.w3.org/2000/svg">
<path d="M14.15 30L20 24.2222L25.85 30L29 26.8889L23.15 21.1111L29 15.3333L25.85 12.2222L20 18L14.15 12.2222L11 15.3333L16.85 21.1111L11 26.8889L14.15 30ZM8.75 40C7.5125 40 6.4535 39.5652 5.573 38.6956C4.691 37.8244 4.25 36.7778 4.25 35.5556V6.66667H2V2.22222H13.25V0H26.75V2.22222H38V6.66667H35.75V35.5556C35.75 36.7778 35.3098 37.8244 34.4293 38.6956C33.5473 39.5652 32.4875 40 31.25 40H8.75ZM31.25 6.66667H8.75V35.5556H31.25V6.66667Z" fill="black"/>
</svg>
