<svg width="40" height="40" viewBox="0 0 40 40" fill="none" xmlns="http://www.w3.org/2000/svg">
<path d="M21.2054 8.94875L21.2056 8.94846L21.2061 8.94783L21.2106 8.9418L21.2402 8.90301C21.2682 8.8667 21.3124 8.81009 21.3719 8.73608C21.4911 8.58792 21.6713 8.37085 21.9057 8.10787C22.3763 7.57996 23.0562 6.87746 23.8917 6.1785C25.6062 4.74421 27.766 3.5 30 3.5C34.6948 3.5 38.5 7.30299 38.5 11.9924C38.5 14.005 38.1096 17.4967 35.6692 21.7698C33.2247 26.0502 28.6769 31.1956 20.2371 36.4332C20.1645 36.4773 20.0826 36.5 20 36.5C19.9174 36.5 19.8355 36.4773 19.7629 36.4332C11.3231 31.1956 6.77532 26.0502 4.3308 21.7698C1.89045 17.4967 1.5 14.005 1.5 11.9924C1.5 7.30299 5.30523 3.5 10 3.5C12.234 3.5 14.3938 4.74421 16.1083 6.1785C16.9438 6.87746 17.6237 7.57996 18.0943 8.10787C18.3287 8.37085 18.5089 8.58792 18.6281 8.73608C18.6876 8.81009 18.7318 8.8667 18.7598 8.90301L18.7894 8.9418L18.7939 8.94783L18.7944 8.94846C18.7946 8.94878 18.7949 8.9491 18.7951 8.94943C19.078 9.33097 19.5249 9.55601 20 9.55601C20.4753 9.55601 20.9225 9.33071 21.2054 8.94875Z" stroke="black" stroke-width="3" stroke-linecap="round" stroke-linejoin="round"/>
</svg>
