<svg width="40" height="40" viewBox="0 0 40 40" fill="none" xmlns="http://www.w3.org/2000/svg">
<path d="M4 36C2.9 36 1.95867 35.6087 1.176 34.826C0.392 34.042 0 33.1 0 32V8C0 6.9 0.392 5.95867 1.176 5.176C1.95867 4.392 2.9 4 4 4H36C37.1 4 38.042 4.392 38.826 5.176C39.6087 5.95867 40 6.9 40 8V32C40 33.1 39.6087 34.042 38.826 34.826C38.042 35.6087 37.1 36 36 36H4ZM36 12L21.05 21.35C20.8833 21.45 20.708 21.5247 20.524 21.574C20.3413 21.6247 20.1667 21.65 20 21.65C19.8333 21.65 19.6587 21.6247 19.476 21.574C19.292 21.5247 19.1167 21.45 18.95 21.35L4 12V32H36V12ZM20 18L36 8H4L20 18ZM4 12V12.5V9.55V9.6V8V9.6V9.574V12.5V12V32V12Z" fill="black"/>
</svg>
