<svg width="40" height="40" viewBox="0 0 40 40" fill="none" xmlns="http://www.w3.org/2000/svg">
<path d="M37.2853 31.4286H31.5711V25.7144H28.714V31.4286H22.9998V34.2857H28.714V39.9999H31.5711V34.2857H37.2853V31.4286Z" fill="black"/>
<path d="M17.2855 37.1429H5.85711V2.85759H17.2855V11.4289C17.2878 12.186 17.5895 12.9114 18.1249 13.4467C18.6602 13.982 19.3856 14.2838 20.1426 14.286H28.714V20.0002H31.5711V11.4289C31.5761 11.2412 31.5404 11.0546 31.4664 10.8819C31.3925 10.7093 31.2819 10.5548 31.1425 10.4289L21.1426 0.429052C21.0169 0.289546 20.8623 0.178984 20.6897 0.104995C20.517 0.031005 20.3304 -0.00465113 20.1426 0.000485766H5.85711C5.10005 0.00274678 4.37465 0.304489 3.83933 0.839811C3.304 1.37513 3.00226 2.10054 3 2.85759V37.1429C3.00226 37.8999 3.304 38.6254 3.83933 39.1607C4.37465 39.696 5.10005 39.9977 5.85711 40H17.2855V37.1429ZM20.1426 3.42902L28.1426 11.4289H20.1426V3.42902Z" fill="black"/>
</svg>
