<svg width="40" height="40" viewBox="0 0 40 40" fill="none" xmlns="http://www.w3.org/2000/svg">
<path fill-rule="evenodd" clip-rule="evenodd" d="M4.41962 26.4854C10.3124 32.5442 19.8666 32.5442 25.7594 26.4854C31.6522 20.4265 31.6522 10.6031 25.7594 4.54417C19.8666 -1.51472 10.3124 -1.51472 4.41961 4.54417C-1.47321 10.6031 -1.4732 20.4265 4.41962 26.4854ZM8.26663 22.53C12.0348 26.4044 18.1442 26.4044 21.9124 22.53C25.6806 18.6556 25.6806 12.374 21.9124 8.49967C18.1442 4.6253 12.0348 4.6253 8.26663 8.49967C4.49846 12.374 4.49846 18.6556 8.26663 22.53Z" fill="black"/>
<path d="M24.5048 29.0999C25.132 28.4834 25.7582 27.854 26.3826 27.2121C27.0593 26.5163 27.7218 25.8181 28.3694 25.1189L38.9744 36.0228L35.1061 40L24.5048 29.0999Z" fill="black"/>
</svg>
