<svg width="40" height="40" viewBox="0 0 40 40" fill="none" xmlns="http://www.w3.org/2000/svg">
<g clip-path="url(#clip0_472_3506)">
<path d="M11 13.0344C14.8828 13.0344 18.0305 10.1165 18.0305 6.51719C18.0305 2.91785 14.8828 0 11 0C7.11707 0 3.96937 2.91785 3.96937 6.51719C3.96937 10.1165 7.11707 13.0344 11 13.0344Z" fill="black"/>
<path d="M22 21.4226L21.9999 21.4536L22 28.9998H11.0723L11 29L10.9277 28.9998H0V21.4226C0 17.2377 4.92487 13.8452 11 13.8452C17.0751 13.8452 22 17.2377 22 21.4226Z" fill="black"/>
<path fill-rule="evenodd" clip-rule="evenodd" d="M24.5926 35.1853C30.4427 35.1853 35.1852 30.2272 35.1852 24.1112C35.1852 17.9951 30.4427 13.0371 24.5926 13.0371C18.7425 13.0371 14 17.9951 14 24.1112C14 30.2272 18.7425 35.1853 24.5926 35.1853ZM24.5926 30.3705C27.7836 30.3705 30.3704 27.5681 30.3704 24.1112C30.3704 20.6543 27.7836 17.852 24.5926 17.852C21.4016 17.852 18.8148 20.6543 18.8148 24.1112C18.8148 27.5681 21.4016 30.3705 24.5926 30.3705Z" fill="#D9D9D9"/>
<path fill-rule="evenodd" clip-rule="evenodd" d="M17.802 31.2155C21.5876 35.1538 27.7251 35.1538 31.5107 31.2155C35.2962 27.2772 35.2962 20.892 31.5107 16.9537C27.7251 13.0154 21.5876 13.0154 17.802 16.9537C14.0165 20.892 14.0165 27.2772 17.802 31.2155ZM20.2734 28.6445C22.694 31.1628 26.6187 31.1628 29.0394 28.6445C31.46 26.1262 31.46 22.0431 29.0394 19.5248C26.6187 17.0064 22.694 17.0064 20.2734 19.5248C17.8527 22.0431 17.8527 26.1262 20.2734 28.6445Z" fill="black"/>
<path d="M30.7047 32.9149C31.1076 32.5142 31.5099 32.1051 31.911 31.6879C32.3457 31.2356 32.7713 30.7818 33.1873 30.3273L39.9999 37.4148L37.515 40L30.7047 32.9149Z" fill="black"/>
</g>
<defs>
<clipPath id="clip0_472_3506">
<rect width="40" height="40" fill="white"/>
</clipPath>
</defs>
</svg>
