<svg width="40" height="40" viewBox="0 0 40 40" fill="none" xmlns="http://www.w3.org/2000/svg">
<path d="M32.8333 40C31.1204 40 29.6644 39.4167 28.4653 38.25C27.2662 37.0833 26.6667 35.6667 26.6667 34C26.6667 33.7667 26.6838 33.5247 26.7181 33.274C26.7523 33.0247 26.8037 32.8 26.8722 32.6L12.3806 24.4C11.7981 24.9 11.1472 25.2913 10.4278 25.574C9.70833 25.858 8.95463 26 8.16667 26C6.4537 26 4.99769 25.4167 3.79861 24.25C2.59954 23.0833 2 21.6667 2 20C2 18.3333 2.59954 16.9167 3.79861 15.75C4.99769 14.5833 6.4537 14 8.16667 14C8.95463 14 9.70833 14.1413 10.4278 14.424C11.1472 14.708 11.7981 15.1 12.3806 15.6L26.8722 7.4C26.8037 7.2 26.7523 6.97533 26.7181 6.726C26.6838 6.47533 26.6667 6.23333 26.6667 6C26.6667 4.33333 27.2662 2.91667 28.4653 1.75C29.6644 0.583333 31.1204 0 32.8333 0C34.5463 0 36.0023 0.583333 37.2014 1.75C38.4005 2.91667 39 4.33333 39 6C39 7.66667 38.4005 9.08333 37.2014 10.25C36.0023 11.4167 34.5463 12 32.8333 12C32.0454 12 31.2917 11.858 30.5722 11.574C29.8528 11.2913 29.2019 10.9 28.6194 10.4L14.1278 18.6C14.1963 18.8 14.2477 19.0247 14.2819 19.274C14.3162 19.5247 14.3333 19.7667 14.3333 20C14.3333 20.2333 14.3162 20.4747 14.2819 20.724C14.2477 20.9747 14.1963 21.2 14.1278 21.4L28.6194 29.6C29.2019 29.1 29.8528 28.708 30.5722 28.424C31.2917 28.1413 32.0454 28 32.8333 28C34.5463 28 36.0023 28.5833 37.2014 29.75C38.4005 30.9167 39 32.3333 39 34C39 35.6667 38.4005 37.0833 37.2014 38.25C36.0023 39.4167 34.5463 40 32.8333 40ZM32.8333 8C33.4157 8 33.9036 7.80867 34.2969 7.426C34.6916 7.042 34.8889 6.56667 34.8889 6C34.8889 5.43333 34.6916 4.958 34.2969 4.574C33.9036 4.19133 33.4157 4 32.8333 4C32.2509 4 31.7631 4.19133 31.3698 4.574C30.9751 4.958 30.7778 5.43333 30.7778 6C30.7778 6.56667 30.9751 7.042 31.3698 7.426C31.7631 7.80867 32.2509 8 32.8333 8ZM8.16667 22C8.74907 22 9.23761 21.808 9.63228 21.424C10.0256 21.0413 10.2222 20.5667 10.2222 20C10.2222 19.4333 10.0256 18.958 9.63228 18.574C9.23761 18.1913 8.74907 18 8.16667 18C7.58426 18 7.09572 18.1913 6.70106 18.574C6.30776 18.958 6.11111 19.4333 6.11111 20C6.11111 20.5667 6.30776 21.0413 6.70106 21.424C7.09572 21.808 7.58426 22 8.16667 22ZM32.8333 36C33.4157 36 33.9036 35.808 34.2969 35.424C34.6916 35.0413 34.8889 34.5667 34.8889 34C34.8889 33.4333 34.6916 32.9587 34.2969 32.576C33.9036 32.192 33.4157 32 32.8333 32C32.2509 32 31.7631 32.192 31.3698 32.576C30.9751 32.9587 30.7778 33.4333 30.7778 34C30.7778 34.5667 30.9751 35.0413 31.3698 35.424C31.7631 35.808 32.2509 36 32.8333 36Z" fill="black"/>
</svg>
