<svg width="40" height="40" viewBox="0 0 40 40" fill="none" xmlns="http://www.w3.org/2000/svg">
<g clip-path="url(#clip0_464_1646)">
<path d="M11.1111 31.1111C11.7407 31.1111 12.2689 30.8978 12.6956 30.4711C13.1207 30.0459 13.3333 29.5185 13.3333 28.8889C13.3333 28.2593 13.1207 27.7311 12.6956 27.3044C12.2689 26.8793 11.7407 26.6667 11.1111 26.6667C10.4815 26.6667 9.95333 26.8793 9.52667 27.3044C9.10148 27.7311 8.88889 28.2593 8.88889 28.8889C8.88889 29.5185 9.10148 30.0459 9.52667 30.4711C9.95333 30.8978 10.4815 31.1111 11.1111 31.1111ZM11.1111 22.2222C11.7407 22.2222 12.2689 22.0089 12.6956 21.5822C13.1207 21.157 13.3333 20.6296 13.3333 20C13.3333 19.3704 13.1207 18.8422 12.6956 18.4156C12.2689 17.9904 11.7407 17.7778 11.1111 17.7778C10.4815 17.7778 9.95333 17.9904 9.52667 18.4156C9.10148 18.8422 8.88889 19.3704 8.88889 20C8.88889 20.6296 9.10148 21.157 9.52667 21.5822C9.95333 22.0089 10.4815 22.2222 11.1111 22.2222ZM11.1111 13.3333C11.7407 13.3333 12.2689 13.12 12.6956 12.6933C13.1207 12.2681 13.3333 11.7407 13.3333 11.1111C13.3333 10.4815 13.1207 9.95333 12.6956 9.52667C12.2689 9.10148 11.7407 8.88889 11.1111 8.88889C10.4815 8.88889 9.95333 9.10148 9.52667 9.52667C9.10148 9.95333 8.88889 10.4815 8.88889 11.1111C8.88889 11.7407 9.10148 12.2681 9.52667 12.6933C9.95333 13.12 10.4815 13.3333 11.1111 13.3333ZM17.7778 31.1111H31.1111V26.6667H17.7778V31.1111ZM17.7778 22.2222H31.1111V17.7778H17.7778V22.2222ZM17.7778 13.3333H31.1111V8.88889H17.7778V13.3333ZM4.44444 40C3.22222 40 2.17556 39.5652 1.30444 38.6956C0.434815 37.8244 0 36.7778 0 35.5556V4.44444C0 3.22222 0.434815 2.17556 1.30444 1.30444C2.17556 0.434815 3.22222 0 4.44444 0H35.5556C36.7778 0 37.8244 0.434815 38.6956 1.30444C39.5652 2.17556 40 3.22222 40 4.44444V35.5556C40 36.7778 39.5652 37.8244 38.6956 38.6956C37.8244 39.5652 36.7778 40 35.5556 40H4.44444ZM4.44444 35.5556H35.5556V4.44444H4.44444V35.5556ZM4.44444 4.44444V35.5556V4.44444Z" fill="black"/>
</g>
<defs>
<clipPath id="clip0_464_1646">
<rect width="40" height="40" fill="white"/>
</clipPath>
</defs>
</svg>
