<svg width="24" height="24" viewBox="0 0 24 24" fill="none" xmlns="http://www.w3.org/2000/svg">
<g clip-path="url(#clip0_464_1659)">
<path d="M22 2V22H2V2H22ZM22 0H2C1.46957 0 0.960859 0.210714 0.585786 0.585786C0.210714 0.960859 0 1.46957 0 2L0 22C0 22.5304 0.210714 23.0391 0.585786 23.4142C0.960859 23.7893 1.46957 24 2 24H22C22.5304 24 23.0391 23.7893 23.4142 23.4142C23.7893 23.0391 24 22.5304 24 22V2C24 1.46957 23.7893 0.960859 23.4142 0.585786C23.0391 0.210714 22.5304 0 22 0V0Z" fill="currentColor"/>
<path d="M18 17H6V19H18V17ZM13 19H11V22H13V19Z" fill="currentColor"/>
<path fill-rule="evenodd" clip-rule="evenodd" d="M9.327 7.08901C9.30789 7.05983 9.28955 7.03015 9.272 7.00001H2V5.00001H9.266C9.44131 4.69534 9.69401 4.4424 9.99851 4.26679C10.303 4.09119 10.6485 3.99915 11 4.00001H13C13.3509 4.00039 13.6954 4.09298 13.9992 4.26848C14.3031 4.44399 14.5554 4.69626 14.731 5.00001H23V7.00001H14.728C14.4666 7.44772 14.0412 7.7762 13.542 7.91601L12 11L10.458 7.91601C9.99341 7.78614 9.59162 7.49235 9.327 7.08901ZM12 7.00001H10.996H13.004H12ZM13 6.00001C13 6.26522 12.8946 6.51958 12.7071 6.70711C12.5196 6.89465 12.2652 7.00001 12 7.00001C11.7348 7.00001 11.4804 6.89465 11.2929 6.70711C11.1054 6.51958 11 6.26522 11 6.00001C11 5.73479 11.1054 5.48044 11.2929 5.2929C11.4804 5.10536 11.7348 5.00001 12 5.00001C12.2652 5.00001 12.5196 5.10536 12.7071 5.2929C12.8946 5.48044 13 5.73479 13 6.00001Z" fill="currentColor"/>
</g>
<defs>
<clipPath id="clip0_464_1659">
<rect width="24" height="24"/>
</clipPath>
</defs>
</svg>
