<svg width="24" height="24" viewBox="0 0 24 24" fill="none" xmlns="http://www.w3.org/2000/svg">
<path d="M18.7387 20.1708L14.4001 14.205V8.39995H15.6001V7.19995H8.40007V8.39995H9.60007V14.205L5.26147 20.1708C4.99977 20.5304 4.84267 20.9555 4.80757 21.3989C4.77247 21.8423 4.86072 22.2868 5.06257 22.6832C5.26441 23.0795 5.57198 23.4123 5.95124 23.6447C6.3305 23.8771 6.76666 24.0001 7.21147 24H16.7881C17.2329 24.0001 17.669 23.8771 18.0483 23.6447C18.4275 23.4123 18.7351 23.0795 18.937 22.6832C19.1388 22.2868 19.2271 21.8423 19.192 21.3989C19.1569 20.9555 18.9998 20.5304 18.7381 20.1708H18.7387ZM10.8001 14.595V8.39995H13.2001V14.595L14.8039 16.8H9.19627L10.8001 14.595ZM16.7887 22.8H7.21207C6.98874 22.7997 6.76982 22.7378 6.57948 22.621C6.38913 22.5042 6.23476 22.337 6.1334 22.138C6.03204 21.939 5.98763 21.7159 6.00508 21.4933C6.02252 21.2706 6.10114 21.0571 6.23227 20.8764L8.32387 18H15.6763L17.7685 20.8764C17.8996 21.0571 17.9782 21.2706 17.9957 21.4933C18.0131 21.7159 17.9687 21.939 17.8673 22.138C17.766 22.337 17.6116 22.5042 17.4213 22.621C17.2309 22.7378 17.012 22.7997 16.7887 22.8Z" fill="black"/>
<path d="M11.3 5.04071C11.3 5.48254 10.9418 5.84071 10.5 5.84071C10.0581 5.84071 9.69995 5.48254 9.69995 5.04071C9.69995 4.59888 10.0581 4.24071 10.5 4.24071C10.9418 4.24071 11.3 4.59888 11.3 5.04071Z" stroke="black" stroke-width="2"/>
<path d="M14.9 2.12127C14.9 2.72878 14.4075 3.22127 13.8 3.22127C13.1924 3.22127 12.7 2.72878 12.7 2.12127C12.7 1.51375 13.1924 1.02127 13.8 1.02127C14.4075 1.02127 14.9 1.51375 14.9 2.12127Z" stroke="black" stroke-width="2"/>
</svg>
