<svg width="24" height="24" viewBox="0 0 24 24" fill="none" xmlns="http://www.w3.org/2000/svg">
<g clip-path="url(#clip0_518_4193)">
<path d="M13.2 21.48C14.555 21.2029 15.7728 20.4664 16.6474 19.395C17.522 18.3236 17.9998 16.9831 18 15.6V12C18.0016 11.1742 17.832 10.357 17.502 9.6H6.498C6.16796 10.357 5.99839 11.1742 6 12V15.6C6.00017 16.9831 6.47796 18.3236 7.35257 19.395C8.22719 20.4664 9.44497 21.2029 10.8 21.48V14.4H13.2V21.48ZM4.2432 18.828C3.81738 17.8051 3.59876 16.708 3.6 15.6H0V13.2H3.6V12C3.6 11.2284 3.7044 10.482 3.8988 9.7728L1.2432 8.2392L2.4432 6.1608L4.8672 7.56C4.94371 7.43797 5.02333 7.31793 5.106 7.2H18.894C18.9768 7.3176 19.056 7.4388 19.1328 7.56L21.5568 6.1608L22.7568 8.2392L20.1012 9.7728C20.2956 10.4808 20.4 11.2284 20.4 12V13.2H24V15.6H20.4C20.4018 16.708 20.1832 17.8053 19.7568 18.828L22.7568 20.5608L21.5568 22.6392L18.5256 20.8896C17.7388 21.8621 16.7444 22.6461 15.6153 23.1843C14.4861 23.7225 13.2509 24.0012 12 24C10.7491 24.0012 9.51386 23.7225 8.38471 23.1843C7.25556 22.6461 6.26116 21.8621 5.4744 20.8896L2.4432 22.6392L1.2432 20.5608L4.2432 18.828ZM7.2 4.8C7.2 3.52696 7.70571 2.30606 8.60589 1.40589C9.50606 0.505713 10.727 0 12 0C13.273 0 14.4939 0.505713 15.3941 1.40589C16.2943 2.30606 16.8 3.52696 16.8 4.8H7.2Z" fill="black"/>
</g>
<defs>
<clipPath id="clip0_518_4193">
<rect width="24" height="24" fill="white"/>
</clipPath>
</defs>
</svg>
