<svg width="24" height="24" viewBox="0 0 24 24" fill="none" xmlns="http://www.w3.org/2000/svg">
<g clip-path="url(#clip0_464_1633)">
<path d="M7.20666 24C6.54605 24 5.98073 23.7652 5.51069 23.2956C5.03986 22.8252 4.80444 22.26 4.80444 21.6C4.80444 20.94 5.03986 20.3748 5.51069 19.9044C5.98073 19.4348 6.54605 19.2 7.20666 19.2C7.86727 19.2 8.43259 19.4348 8.90263 19.9044C9.37346 20.3748 9.60888 20.94 9.60888 21.6C9.60888 22.26 9.37346 22.8252 8.90263 23.2956C8.43259 23.7652 7.86727 24 7.20666 24ZM19.2178 24C18.5571 24 17.9918 23.7652 17.5218 23.2956C17.051 22.8252 16.8155 22.26 16.8155 21.6C16.8155 20.94 17.051 20.3748 17.5218 19.9044C17.9918 19.4348 18.5571 19.2 19.2178 19.2C19.8784 19.2 20.4441 19.4348 20.9149 19.9044C21.385 20.3748 21.62 20.94 21.62 21.6C21.62 22.26 21.385 22.8252 20.9149 23.2956C20.4441 23.7652 19.8784 24 19.2178 24ZM6.18572 4.8L9.06838 10.8H17.4761L20.7792 4.8H6.18572ZM5.04466 2.4H22.761C23.2215 2.4 23.5718 2.6048 23.812 3.0144C24.0522 3.4248 24.0622 3.84 23.842 4.26L19.5781 11.94C19.3579 12.34 19.0624 12.65 18.6917 12.87C18.3217 13.09 17.9166 13.2 17.4761 13.2H8.52788L7.20666 15.6H21.62V18H7.20666C6.30583 18 5.6252 17.6048 5.16477 16.8144C4.70435 16.0248 4.68433 15.24 5.10472 14.46L6.72621 11.52L2.40222 2.4H0V0H3.90361L5.04466 2.4ZM9.06838 10.8H17.4761H9.06838Z" fill="currentColor"/>
</g>
<defs>
<clipPath id="clip0_464_1633">
<rect width="24" height="24" fill="white"/>
</clipPath>
</defs>
</svg>
