<svg width="24" height="24" viewBox="0 0 24 24" fill="none" xmlns="http://www.w3.org/2000/svg">
<path d="M7.63338 14.4C7.30283 14.4 7.02555 14.2848 6.80155 14.0544C6.57833 13.8248 6.46672 13.54 6.46672 13.2C6.46672 12.86 6.57833 12.5748 6.80155 12.3444C7.02555 12.1148 7.30283 12 7.63338 12C7.96394 12 8.24122 12.1148 8.46522 12.3444C8.68844 12.5748 8.80005 12.86 8.80005 13.2C8.80005 13.54 8.68844 13.8248 8.46522 14.0544C8.24122 14.2848 7.96394 14.4 7.63338 14.4ZM12.3 14.4C11.9695 14.4 11.6926 14.2848 11.4694 14.0544C11.2454 13.8248 11.1334 13.54 11.1334 13.2C11.1334 12.86 11.2454 12.5748 11.4694 12.3444C11.6926 12.1148 11.9695 12 12.3 12C12.6306 12 12.9079 12.1148 13.1319 12.3444C13.3551 12.5748 13.4667 12.86 13.4667 13.2C13.4667 13.54 13.3551 13.8248 13.1319 14.0544C12.9079 14.2848 12.6306 14.4 12.3 14.4ZM16.9667 14.4C16.6362 14.4 16.3593 14.2848 16.136 14.0544C15.912 13.8248 15.8 13.54 15.8 13.2C15.8 12.86 15.912 12.5748 16.136 12.3444C16.3593 12.1148 16.6362 12 16.9667 12C17.2973 12 17.5742 12.1148 17.7974 12.3444C18.0214 12.5748 18.1334 12.86 18.1334 13.2C18.1334 13.54 18.0214 13.8248 17.7974 14.0544C17.5742 14.2848 17.2973 14.4 16.9667 14.4ZM4.13338 24C3.49172 24 2.94222 23.7652 2.48488 23.2956C2.02833 22.8252 1.80005 22.26 1.80005 21.6V4.8C1.80005 4.14 2.02833 3.5752 2.48488 3.1056C2.94222 2.6352 3.49172 2.4 4.13338 2.4H5.30005V0H7.63338V2.4H16.9667V0H19.3V2.4H20.4667C21.1084 2.4 21.6579 2.6352 22.1152 3.1056C22.5718 3.5752 22.8 4.14 22.8 4.8V21.6C22.8 22.26 22.5718 22.8252 22.1152 23.2956C21.6579 23.7652 21.1084 24 20.4667 24H4.13338ZM4.13338 21.6H20.4667V9.6H4.13338V21.6Z" fill="currentColor"/>
</svg>
