<svg width="24" height="24" viewBox="0 0 24 24" fill="none" xmlns="http://www.w3.org/2000/svg">
<path d="M8.48995 18L12 14.5333L15.51 18L17.4 16.1333L13.89 12.6667L17.4 9.2L15.51 7.33333L12 10.8L8.48995 7.33333L6.59995 9.2L10.11 12.6667L6.59995 16.1333L8.48995 18ZM5.24995 24C4.50745 24 3.87205 23.7391 3.34375 23.2173C2.81455 22.6947 2.54995 22.0667 2.54995 21.3333V4H1.19995V1.33333H7.94995V0H16.05V1.33333H22.8V4H21.45V21.3333C21.45 22.0667 21.1858 22.6947 20.6575 23.2173C20.1283 23.7391 19.4925 24 18.75 24H5.24995ZM18.75 4H5.24995V21.3333H18.75V4Z" fill="black"/>
</svg>
