<svg width="24" height="24" viewBox="0 0 24 24" fill="none" xmlns="http://www.w3.org/2000/svg">
<path d="M2.77895 13.8187L2.02105 12.3H7.32632L6.72 10.7812H1.76842L1.01053 9.26245H8.89263L8.28632 7.7437H0.869053L0 6.22495H3.78947C3.78947 5.68789 4.00241 5.17282 4.38143 4.79306C4.76045 4.4133 5.27451 4.19995 5.81053 4.19995H17.9368V8.24995H20.9684L24 12.3V17.3625H21.9789C21.9789 18.168 21.6595 18.9406 21.091 19.5103C20.5225 20.0799 19.7514 20.4 18.9474 20.4C18.1433 20.4 17.3722 20.0799 16.8037 19.5103C16.2352 18.9406 15.9158 18.168 15.9158 17.3625H11.8737C11.8737 18.168 11.5543 18.9406 10.9858 19.5103C10.4172 20.0799 9.64613 20.4 8.84211 20.4C8.03808 20.4 7.26699 20.0799 6.69846 19.5103C6.12992 18.9406 5.81053 18.168 5.81053 17.3625H3.78947V13.8187H2.77895ZM18.9474 18.8812C19.3494 18.8812 19.7349 18.7212 20.0192 18.4364C20.3035 18.1515 20.4632 17.7652 20.4632 17.3625C20.4632 16.9597 20.3035 16.5734 20.0192 16.2885C19.7349 16.0037 19.3494 15.8437 18.9474 15.8437C18.5454 15.8437 18.1598 16.0037 17.8755 16.2885C17.5913 16.5734 17.4316 16.9597 17.4316 17.3625C17.4316 17.7652 17.5913 18.1515 17.8755 18.4364C18.1598 18.7212 18.5454 18.8812 18.9474 18.8812ZM20.4632 9.7687H17.9368V12.3H22.4438L20.4632 9.7687ZM8.84211 18.8812C9.24412 18.8812 9.62966 18.7212 9.91393 18.4364C10.1982 18.1515 10.3579 17.7652 10.3579 17.3625C10.3579 16.9597 10.1982 16.5734 9.91393 16.2885C9.62966 16.0037 9.24412 15.8437 8.84211 15.8437C8.44009 15.8437 8.05455 16.0037 7.77028 16.2885C7.48601 16.5734 7.32632 16.9597 7.32632 17.3625C7.32632 17.7652 7.48601 18.1515 7.77028 18.4364C8.05455 18.7212 8.44009 18.8812 8.84211 18.8812Z" fill="currentColor"/>
</svg>
