<svg width="40" height="40" viewBox="0 0 40 40" fill="none" xmlns="http://www.w3.org/2000/svg">
<path d="M4.63158 23.0312L3.36842 20.5H12.2105L11.2 17.9688H2.94737L1.68421 15.4375H14.8211L13.8105 12.9062H1.44842L0 10.375H6.31579C6.31579 9.47989 6.67068 8.62145 7.30238 7.98851C7.93408 7.35558 8.79085 7 9.68421 7H29.8947V13.75H34.9474L40 20.5V28.9375H36.6316C36.6316 30.2802 36.0993 31.5678 35.1517 32.5172C34.2041 33.4666 32.919 34 31.5789 34C30.2389 34 28.9537 33.4666 28.0062 32.5172C27.0586 31.5678 26.5263 30.2802 26.5263 28.9375H19.7895C19.7895 30.2802 19.2571 31.5678 18.3096 32.5172C17.362 33.4666 16.0769 34 14.7368 34C13.3968 34 12.1116 33.4666 11.1641 32.5172C10.2165 31.5678 9.68421 30.2802 9.68421 28.9375H6.31579V23.0312H4.63158ZM31.5789 31.4688C32.249 31.4688 32.8915 31.2021 33.3653 30.7274C33.8391 30.2527 34.1053 29.6088 34.1053 28.9375C34.1053 28.2662 33.8391 27.6223 33.3653 27.1476C32.8915 26.6729 32.249 26.4062 31.5789 26.4062C30.9089 26.4062 30.2663 26.6729 29.7926 27.1476C29.3188 27.6223 29.0526 28.2662 29.0526 28.9375C29.0526 29.6088 29.3188 30.2527 29.7926 30.7274C30.2663 31.2021 30.9089 31.4688 31.5789 31.4688ZM34.1053 16.2812H29.8947V20.5H37.4063L34.1053 16.2812ZM14.7368 31.4688C15.4069 31.4688 16.0494 31.2021 16.5232 30.7274C16.997 30.2527 17.2632 29.6088 17.2632 28.9375C17.2632 28.2662 16.997 27.6223 16.5232 27.1476C16.0494 26.6729 15.4069 26.4062 14.7368 26.4062C14.0668 26.4062 13.4242 26.6729 12.9505 27.1476C12.4767 27.6223 12.2105 28.2662 12.2105 28.9375C12.2105 29.6088 12.4767 30.2527 12.9505 30.7274C13.4242 31.2021 14.0668 31.4688 14.7368 31.4688Z" fill="black"/>
</svg>
