<svg width="40" height="40" viewBox="0 0 40 40" fill="none" xmlns="http://www.w3.org/2000/svg">
<path d="M3 22.8571C3 27.4037 4.79107 31.7641 7.97918 34.979C11.1673 38.1939 15.4913 40 20 40C20 30.4762 12.3878 22.8571 3 22.8571ZM20 8.57143C21.2524 8.57143 22.4535 9.07313 23.3391 9.96616C24.2247 10.8592 24.7222 12.0704 24.7222 13.3333C24.7222 14.5963 24.2247 15.8075 23.3391 16.7005C22.4535 17.5935 21.2524 18.0952 20 18.0952C18.7476 18.0952 17.5465 17.5935 16.6609 16.7005C15.7753 15.8075 15.2778 14.5963 15.2778 13.3333C15.2778 12.0704 15.7753 10.8592 16.6609 9.96616C17.5465 9.07313 18.7476 8.57143 20 8.57143ZM7.91111 17.619C7.91111 18.882 8.40863 20.0932 9.29422 20.9862C10.1798 21.8793 11.3809 22.381 12.6333 22.381C13.6344 22.381 14.56 22.0571 15.2778 21.5429V21.9048C15.2778 23.1677 15.7753 24.3789 16.6609 25.2719C17.5465 26.165 18.7476 26.6667 20 26.6667C21.2524 26.6667 22.4535 26.165 23.3391 25.2719C24.2247 24.3789 24.7222 23.1677 24.7222 21.9048V21.5429C25.44 22.0571 26.3656 22.381 27.3667 22.381C28.6191 22.381 29.8202 21.8793 30.7058 20.9862C31.5914 20.0932 32.0889 18.882 32.0889 17.619C32.0889 15.7143 30.9744 14.0952 29.3878 13.3333C30.9744 12.5714 32.0889 10.9333 32.0889 9.04762C32.0889 7.78468 31.5914 6.57347 30.7058 5.68044C29.8202 4.78741 28.6191 4.28571 27.3667 4.28571C26.3656 4.28571 25.44 4.59048 24.7222 5.12381V4.7619C24.7222 3.49897 24.2247 2.28776 23.3391 1.39473C22.4535 0.501699 21.2524 0 20 0C18.7476 0 17.5465 0.501699 16.6609 1.39473C15.7753 2.28776 15.2778 3.49897 15.2778 4.7619V5.12381C14.56 4.59048 13.6344 4.28571 12.6333 4.28571C11.3809 4.28571 10.1798 4.78741 9.29422 5.68044C8.40863 6.57347 7.91111 7.78468 7.91111 9.04762C7.91111 10.9333 9.02556 12.5714 10.6122 13.3333C9.02556 14.0952 7.91111 15.7143 7.91111 17.619ZM20 40C24.5087 40 28.8327 38.1939 32.0208 34.979C35.2089 31.7641 37 27.4037 37 22.8571C27.5556 22.8571 20 30.4762 20 40Z" fill="black"/>
</svg>
