<svg width="24" height="24" viewBox="0 0 24 24" fill="none" xmlns="http://www.w3.org/2000/svg">
<path d="M1.80005 13.7143C1.80005 16.4422 2.87469 19.0584 4.78756 20.9874C6.70043 22.9163 9.29484 24 12 24C12 18.2857 7.43272 13.7143 1.80005 13.7143ZM12 5.14286C12.7515 5.14286 13.4722 5.44388 14.0035 5.9797C14.5349 6.51551 14.8334 7.24224 14.8334 8C14.8334 8.75776 14.5349 9.48449 14.0035 10.0203C13.4722 10.5561 12.7515 10.8571 12 10.8571C11.2486 10.8571 10.5279 10.5561 9.99658 10.0203C9.46523 9.48449 9.16672 8.75776 9.16672 8C9.16672 7.24224 9.46523 6.51551 9.99658 5.9797C10.5279 5.44388 11.2486 5.14286 12 5.14286ZM4.74672 10.5714C4.74672 11.3292 5.04523 12.0559 5.57658 12.5917C6.10793 13.1276 6.8286 13.4286 7.58005 13.4286C8.18072 13.4286 8.73605 13.2343 9.16672 12.9257V13.1429C9.16672 13.9006 9.46523 14.6273 9.99658 15.1632C10.5279 15.699 11.2486 16 12 16C12.7515 16 13.4722 15.699 14.0035 15.1632C14.5349 14.6273 14.8334 13.9006 14.8334 13.1429V12.9257C15.264 13.2343 15.8194 13.4286 16.42 13.4286C17.1715 13.4286 17.8922 13.1276 18.4235 12.5917C18.9549 12.0559 19.2534 11.3292 19.2534 10.5714C19.2534 9.42857 18.5847 8.45714 17.6327 8C18.5847 7.54286 19.2534 6.56 19.2534 5.42857C19.2534 4.67081 18.9549 3.94408 18.4235 3.40827C17.8922 2.87245 17.1715 2.57143 16.42 2.57143C15.8194 2.57143 15.264 2.75429 14.8334 3.07429V2.85714C14.8334 2.09938 14.5349 1.37266 14.0035 0.836838C13.4722 0.30102 12.7515 0 12 0C11.2486 0 10.5279 0.30102 9.99658 0.836838C9.46523 1.37266 9.16672 2.09938 9.16672 2.85714V3.07429C8.73605 2.75429 8.18072 2.57143 7.58005 2.57143C6.8286 2.57143 6.10793 2.87245 5.57658 3.40827C5.04523 3.94408 4.74672 4.67081 4.74672 5.42857C4.74672 6.56 5.41538 7.54286 6.36738 8C5.41538 8.45714 4.74672 9.42857 4.74672 10.5714ZM12 24C14.7053 24 17.2997 22.9163 19.2125 20.9874C21.1254 19.0584 22.2 16.4422 22.2 13.7143C16.5334 13.7143 12 18.2857 12 24Z" fill="currentColor"/>
</svg>
