<svg width="24" height="24" viewBox="0 0 24 24" fill="none" xmlns="http://www.w3.org/2000/svg">
<path d="M19.1999 21.6H13.2V15.528C15.8392 15.2329 18.2771 13.9758 20.048 11.9968C21.8189 10.0178 22.7986 7.45567 22.7999 4.8C22.8059 3.40394 22.5325 2.02079 21.9959 0.732C21.9338 0.587979 21.8441 0.45752 21.7319 0.348L21.5999 0.252C21.5233 0.18891 21.4385 0.136437 21.3479 0.0959999C21.2415 0.0467405 21.1282 0.014352 21.0119 0H3.00018C2.88111 0.00546188 2.76365 0.0297633 2.65219 0.0719999C2.56493 0.122946 2.48078 0.179045 2.40019 0.24L2.25619 0.348C2.14395 0.45752 2.05426 0.587979 1.9922 0.732C1.45963 2.02164 1.19036 3.40476 1.20021 4.8C1.20147 7.45567 2.18114 10.0178 3.95203 11.9968C5.72292 13.9758 8.16087 15.2329 10.8001 15.528V21.6H4.80015C4.4819 21.6 4.17668 21.7264 3.95164 21.9515C3.7266 22.1765 3.60017 22.4817 3.60017 22.8C3.60017 23.1183 3.7266 23.4235 3.95164 23.6485C4.17668 23.8736 4.4819 24 4.80015 24H19.1999C19.5182 24 19.8234 23.8736 20.0484 23.6485C20.2735 23.4235 20.3999 23.1183 20.3999 22.8C20.3999 22.4817 20.2735 22.1765 20.0484 21.9515C19.8234 21.7264 19.5182 21.6 19.1999 21.6ZM3.60017 4.8C3.59793 3.98727 3.71518 3.17862 3.94817 2.4H20.0519C20.2849 3.17862 20.4021 3.98727 20.3999 4.8C20.3999 7.02782 19.5149 9.16439 17.9396 10.7397C16.3644 12.315 14.2278 13.2 12 13.2C9.77225 13.2 7.63571 12.315 6.06043 10.7397C4.48515 9.16439 3.60017 7.02782 3.60017 4.8Z" fill="currentColor"/>
</svg>
