<svg width="40" height="40" viewBox="0 0 40 40" fill="none" xmlns="http://www.w3.org/2000/svg">
<path d="M31.9999 36H22.0001V25.88C26.3987 25.3882 30.462 23.293 33.4135 19.9946C36.365 16.6963 37.9977 12.4261 37.9998 8C38.0099 5.67324 37.5543 3.36798 36.6599 1.22C36.5564 0.979965 36.4069 0.762533 36.2199 0.58L35.9999 0.42C35.8722 0.31485 35.7309 0.227395 35.5799 0.16C35.4027 0.0779009 35.2137 0.0239201 35.0199 0H5.00039C4.80193 0.00910314 4.60617 0.0496055 4.42039 0.12C4.27496 0.204909 4.13471 0.298409 4.0004 0.4L3.76041 0.58C3.57333 0.762533 3.42385 0.979965 3.32041 1.22C2.4328 3.36939 1.98401 5.6746 2.00044 8C2.00254 12.4261 3.63532 16.6963 6.5868 19.9946C9.53828 23.293 13.6015 25.3882 18.0002 25.88V36H8.00034C7.46991 36 6.96121 36.2107 6.58615 36.5858C6.21108 36.9609 6.00037 37.4696 6.00037 38C6.00037 38.5304 6.21108 39.0391 6.58615 39.4142C6.96121 39.7893 7.46991 40 8.00034 40H31.9999C32.5304 40 33.0391 39.7893 33.4141 39.4142C33.7892 39.0391 33.9999 38.5304 33.9999 38C33.9999 37.4696 33.7892 36.9609 33.4141 36.5858C33.0391 36.2107 32.5304 36 31.9999 36ZM6.00037 8C5.99663 6.64545 6.19205 5.2977 6.58036 4H33.4199C33.8082 5.2977 34.0036 6.64545 33.9999 8C33.9999 11.713 32.5249 15.274 29.8995 17.8995C27.274 20.525 23.7131 22 20.0001 22C16.2872 22 12.7263 20.525 10.1008 17.8995C7.47534 15.274 6.00037 11.713 6.00037 8Z" fill="black"/>
</svg>
