<svg width="24" height="24" viewBox="0 0 24 24" fill="none" xmlns="http://www.w3.org/2000/svg">
<path d="M2.4 21.5999C1.74 21.5999 1.1752 21.3651 0.7056 20.8955C0.2352 20.4251 0 19.8599 0 19.1999V4.7999C0 4.1399 0.2352 3.5751 0.7056 3.1055C1.1752 2.6351 1.74 2.3999 2.4 2.3999H21.6C22.26 2.3999 22.8252 2.6351 23.2956 3.1055C23.7652 3.5751 24 4.1399 24 4.7999V19.1999C24 19.8599 23.7652 20.4251 23.2956 20.8955C22.8252 21.3651 22.26 21.5999 21.6 21.5999H2.4ZM21.6 7.1999L12.63 12.8099C12.53 12.8699 12.4248 12.9147 12.3144 12.9443C12.2048 12.9747 12.1 12.9899 12 12.9899C11.9 12.9899 11.7952 12.9747 11.6856 12.9443C11.5752 12.9147 11.47 12.8699 11.37 12.8099L2.4 7.1999V19.1999H21.6V7.1999ZM12 10.7999L21.6 4.7999H2.4L12 10.7999ZM2.4 7.1999V7.4999V5.7299V5.7599V4.7999V5.7599V5.7443V7.4999V7.1999V19.1999V7.1999Z" fill="black"/>
</svg>
