<svg width="24" height="24" viewBox="0 0 24 24" fill="none" xmlns="http://www.w3.org/2000/svg">
<g clip-path="url(#clip0_479_6188)">
<path d="M11.1094 3.68896L16.9434 8.31096L18.0884 12L12.6309 13.0425L6.29492 7.26547L7.64092 4.50047L11.1094 3.68896Z" stroke="black" stroke-width="2" stroke-linejoin="round"/>
<path d="M7.63989 4.50049L13.2429 9.30049" stroke="black" stroke-width="2" stroke-linecap="round"/>
<path d="M12.6315 13.0425L13.2435 9.06604L16.9435 8.31104M12.4965 15.5115L13.6395 19.0515L7.8005 20.1895L2 14.507L3.285 11.3125L6.014 10.677" stroke="black" stroke-width="2" stroke-linecap="round" stroke-linejoin="round"/>
<path d="M3.28491 11.3125L8.64191 16.379" stroke="black" stroke-width="2" stroke-linecap="round"/>
<path d="M7.80054 19.9325L8.74304 16.066L12.4955 15.522" stroke="black" stroke-width="2" stroke-linecap="round" stroke-linejoin="round"/>
<path d="M17.4435 14.804L17 18.4L21.618 17.4995L20.6405 14.0935L17.4435 14.804Z" stroke="black" stroke-width="2" stroke-linejoin="round"/>
</g>
<defs>
<clipPath id="clip0_479_6188">
<rect width="24" height="24" fill="white"/>
</clipPath>
</defs>
</svg>
