<svg width="40" height="40" viewBox="0 0 40 40" fill="none" xmlns="http://www.w3.org/2000/svg">
<g clip-path="url(#clip0_479_6188)">
<path d="M18.5159 6.14844L28.2392 13.8518L30.1475 20.0001L21.0517 21.7376L10.4917 12.1093L12.735 7.50094L18.5159 6.14844Z" stroke="black" stroke-width="2" stroke-linejoin="round"/>
<path d="M12.7332 7.50098L22.0715 15.501" stroke="black" stroke-width="2" stroke-linecap="round"/>
<path d="M21.0524 21.7376L22.0724 15.1101L28.2391 13.8518M20.8274 25.8526L22.7324 31.7526L13.0008 33.6493L3.33325 24.1785L5.47492 18.8543L10.0233 17.7951" stroke="black" stroke-width="2" stroke-linecap="round" stroke-linejoin="round"/>
<path d="M5.47485 18.8542L14.4032 27.2984" stroke="black" stroke-width="2" stroke-linecap="round"/>
<path d="M13.0007 33.221L14.5716 26.7768L20.8257 25.8701" stroke="black" stroke-width="2" stroke-linecap="round" stroke-linejoin="round"/>
<path d="M29.0724 24.6734L28.3333 30.6668L36.0299 29.1659L34.4008 23.4893L29.0724 24.6734Z" stroke="black" stroke-width="2" stroke-linejoin="round"/>
</g>
<defs>
<clipPath id="clip0_479_6188">
<rect width="40" height="40" fill="white"/>
</clipPath>
</defs>
</svg>
