<svg width="40" height="40" viewBox="0 0 40 40" fill="none" xmlns="http://www.w3.org/2000/svg">
<path d="M17.5459 27.3684C17.5459 24.5263 17.8012 22.4821 18.3118 21.2358C18.8211 19.9909 19.9021 18.6316 21.555 17.1579C22.9969 15.8947 24.0956 14.7979 24.851 13.8674C25.6078 12.9382 25.9862 11.8772 25.9862 10.6842C25.9862 9.24561 25.503 8.05263 24.5366 7.10526C23.5688 6.1579 22.2232 5.68421 20.5 5.68421C18.7064 5.68421 17.3433 6.22807 16.4106 7.31579C15.4794 8.40351 14.8203 9.50877 14.4335 10.6316L9 8.31579C9.73853 6.07018 11.0925 4.12281 13.0619 2.47368C15.0313 0.824562 17.5107 0 20.5 0C24.1927 0 27.0328 1.02667 29.0205 3.08C31.0068 5.13193 32 7.59649 32 10.4737C32 12.2281 31.6223 13.7284 30.8669 14.9747C30.1101 16.2197 28.9228 17.6316 27.305 19.2105C25.5818 20.8596 24.5359 22.1137 24.1673 22.9726C23.7974 23.833 23.6124 25.2982 23.6124 27.3684H17.5459ZM20.5 40C19.3394 40 18.3463 39.5881 17.5206 38.7642C16.6934 37.9389 16.2798 36.9474 16.2798 35.7895C16.2798 34.6316 16.6934 33.64 17.5206 32.8147C18.3463 31.9909 19.3394 31.5789 20.5 31.5789C21.6606 31.5789 22.6544 31.9909 23.4816 32.8147C24.3073 33.64 24.7202 34.6316 24.7202 35.7895C24.7202 36.9474 24.3073 37.9389 23.4816 38.7642C22.6544 39.5881 21.6606 40 20.5 40Z" fill="black"/>
</svg>
