<svg width="24" height="24" viewBox="0 0 24 24" fill="none" xmlns="http://www.w3.org/2000/svg">
<path d="M22.3711 18.857H18.9426V15.4285H17.2283V18.857H13.7998V20.5713H17.2283V23.9998H18.9426V20.5713H22.3711V18.857Z" fill="currentColor"/>
<path d="M10.3714 22.2857H3.51431V1.71456H10.3714V6.85735C10.3727 7.31159 10.5538 7.74683 10.875 8.06802C11.1962 8.38921 11.6314 8.57026 12.0856 8.57162H17.2284V12.0001H18.9427V6.85735C18.9457 6.7447 18.9243 6.63274 18.8799 6.52916C18.8355 6.42558 18.7692 6.33286 18.6856 6.25736L12.6856 0.257431C12.6102 0.173727 12.5174 0.107391 12.4139 0.0629968C12.3103 0.018603 12.1983 -0.00279068 12.0856 0.00029146H3.51431C3.06008 0.00164807 2.62484 0.182693 2.30364 0.503887C1.98245 0.82508 1.80141 1.26032 1.80005 1.71456V22.2857C1.80141 22.74 1.98245 23.1752 2.30364 23.4964C2.62484 23.8176 3.06008 23.9986 3.51431 24H10.3714V22.2857ZM12.0856 2.05741L16.8856 6.85735H12.0856V2.05741Z" fill="currentColor"/>
</svg>
