<svg width="40" height="40" viewBox="0 0 40 40" fill="none" xmlns="http://www.w3.org/2000/svg">
<path d="M38 29C38 29.76 37.58 30.42 36.94 30.76L21.14 39.64C20.82 39.88 20.42 40 20 40C19.58 40 19.18 39.88 18.86 39.64L3.06001 30.76C2.73937 30.5915 2.47103 30.3384 2.28415 30.0281C2.09728 29.7178 1.999 29.3622 2.00001 29V11C2.00001 10.24 2.42001 9.58 3.06001 9.24L18.86 0.36C19.18 0.12 19.58 0 20 0C20.42 0 20.82 0.12 21.14 0.36L36.94 9.24C37.58 9.58 38 10.24 38 11V29ZM20 4.3L16.22 6.44L28 13.22L31.92 11L20 4.3ZM8.08001 11L20 17.7L23.92 15.5L12.16 8.7L8.08001 11ZM6.00001 27.82L18 34.58V21.16L6.00001 14.42V27.82ZM34 27.82V14.42L22 21.16V34.58L34 27.82Z" fill="black"/>
</svg>
