<svg width="24" height="24" viewBox="0 0 24 24" fill="none" xmlns="http://www.w3.org/2000/svg">
<path d="M22.8 17.4C22.8 17.856 22.548 18.252 22.164 18.456L12.684 23.784C12.492 23.928 12.252 24 12 24C11.748 24 11.508 23.928 11.316 23.784L1.83596 18.456C1.64357 18.3549 1.48257 18.203 1.37044 18.0168C1.25832 17.8307 1.19935 17.6173 1.19996 17.4V6.6C1.19996 6.144 1.45196 5.748 1.83596 5.544L11.316 0.216C11.508 0.0720001 11.748 0 12 0C12.252 0 12.492 0.0720001 12.684 0.216L22.164 5.544C22.548 5.748 22.8 6.144 22.8 6.6V17.4ZM12 2.58L9.73195 3.864L16.8 7.932L19.152 6.6L12 2.58ZM4.84796 6.6L12 10.62L14.352 9.3L7.29595 5.22L4.84796 6.6ZM3.59996 16.692L10.8 20.748V12.696L3.59996 8.652V16.692ZM20.4 16.692V8.652L13.2 12.696V20.748L20.4 16.692Z" fill="currentColor"/>
</svg>
