<svg width="40" height="40" viewBox="0 0 40 40" fill="none" xmlns="http://www.w3.org/2000/svg">
<path d="M25.7639 2.00106C23.3394 2.059 21.2428 3.15368 20.0867 5.37904C18.9305 7.60527 18.6976 11.0816 20.3973 15.9537V15.9712C20.6734 16.7964 20.6044 17.6567 20.173 18.2887C19.7416 18.9296 19.0599 19.3071 18.2834 19.5616C16.7304 20.0708 14.6338 20.1235 12.3043 19.9567C8.10244 19.6494 3.21039 18.5784 0.0197664 17.5075C-0.182128 22.4498 1.16556 27.4886 3.92651 31.3073C6.87727 35.3893 11.3638 38.1107 17.3861 37.9965C21.2946 37.9263 25.9105 37.3469 29.4825 35.758C33.0545 34.1779 35.5221 31.7374 35.6343 27.6467V27.6379C35.686 25.8997 34.0467 23.5032 32.5023 21.0803C31.7344 19.8689 31.0097 18.6399 30.6128 17.3582C30.2159 16.0853 30.1814 14.6983 30.8889 13.4518L30.9061 13.4254L30.9234 13.3991C32.8388 10.5373 32.5368 7.73695 31.2599 5.56514C29.9916 3.38894 27.6793 1.95541 25.7639 2.00106ZM28.3954 5.69243C28.8071 5.69243 29.202 5.85879 29.4932 6.15493C29.7845 6.45107 29.9482 6.85276 29.9484 7.27169C29.9484 7.47919 29.9083 7.68467 29.8302 7.87638C29.7522 8.06809 29.6378 8.24228 29.4936 8.38901C29.3493 8.53574 29.1781 8.65213 28.9897 8.73154C28.8013 8.81095 28.5993 8.85182 28.3954 8.85182C27.9835 8.85182 27.5885 8.68535 27.2972 8.38901C27.006 8.09268 26.8424 7.69077 26.8424 7.27169C26.8426 6.85276 27.0063 6.45107 27.2975 6.15493C27.5888 5.85879 27.9837 5.69243 28.3954 5.69243ZM33.8051 8.95717C33.8396 10.2125 33.5981 11.5293 33.0114 12.8373C34.6938 12.7319 36.359 12.5388 37.6359 12.0999C38.4642 11.8277 39.1113 11.4503 39.5168 11.0201C39.7498 10.7655 39.9051 10.4934 40 10.1686C37.8689 10.1949 35.5997 9.61556 33.8051 8.95717ZM27.5412 21.4666C28.102 22.6605 28.0675 23.9421 27.6016 25.057C27.1357 26.1719 26.2815 27.1463 25.2117 28.0329C23.0806 29.7886 20.0694 31.1493 17.1359 31.9657C14.2024 32.7821 11.4069 33.0893 9.48291 32.3871C8.51658 32.0359 7.70555 31.281 7.5675 30.2363C7.42946 29.1829 7.87811 28.0592 8.80993 26.7425L10.0696 27.673C9.25858 28.8142 9.05151 29.6218 9.10328 30.0256C9.16368 30.4382 9.37075 30.6665 10.0006 30.9035C11.2689 31.36 13.9608 31.2107 16.7304 30.4382C19.4913 29.6745 22.3645 28.3489 24.2367 26.8039C25.1685 26.0314 25.8501 25.2062 26.1694 24.4337C26.4972 23.6612 26.5231 22.9589 26.1435 22.1513L27.5412 21.4666Z" fill="black"/>
</svg>
