<svg width="24" height="24" viewBox="0 0 24 24" fill="none" xmlns="http://www.w3.org/2000/svg">
<path d="M15.4583 1.20059C14.0036 1.23535 12.7457 1.89216 12.052 3.22737C11.3583 4.56311 11.2185 6.64889 12.2384 9.57214V9.58268C12.404 10.0778 12.3626 10.594 12.1038 10.9732C11.8449 11.3577 11.436 11.5842 10.9701 11.7369C10.0382 12.0424 8.78028 12.074 7.38255 11.9739C4.86146 11.7896 1.92623 11.147 0.0118598 10.5044C-0.109277 13.4698 0.699335 16.4931 2.3559 18.7843C4.12636 21.2335 6.81828 22.8663 10.4317 22.7979C12.7768 22.7557 15.5463 22.4081 17.6895 21.4548C19.8327 20.5067 21.3133 19.0424 21.3806 16.5879V16.5827C21.4116 15.5398 20.428 14.1019 19.5014 12.6481C19.0407 11.9213 18.6058 11.1839 18.3677 10.4149C18.1295 9.65115 18.1088 8.81895 18.5333 8.07102L18.5437 8.05521L18.554 8.03941C19.7033 6.32233 19.5221 4.64212 18.7559 3.33904C17.9949 2.03332 16.6076 1.1732 15.4583 1.20059ZM17.0372 3.41541C17.2843 3.41541 17.5212 3.51522 17.696 3.69291C17.8707 3.8706 17.9689 4.11161 17.9691 4.36296C17.9691 4.48747 17.945 4.61075 17.8981 4.72578C17.8513 4.84081 17.7827 4.94532 17.6961 5.03336C17.6096 5.1214 17.5069 5.19123 17.3938 5.23888C17.2808 5.28652 17.1596 5.31105 17.0372 5.31105C16.7901 5.31105 16.5531 5.21116 16.3783 5.03336C16.2036 4.85556 16.1054 4.61441 16.1054 4.36296C16.1056 4.11161 16.2038 3.8706 16.3785 3.69291C16.5533 3.51522 16.7902 3.41541 17.0372 3.41541ZM20.2831 5.37425C20.3038 6.12745 20.1588 6.91752 19.8068 7.70232C20.8163 7.63911 21.8154 7.52324 22.5816 7.25988C23.0785 7.0966 23.4668 6.87011 23.7101 6.61202C23.8499 6.45928 23.9431 6.296 24 6.10111C22.7213 6.11692 21.3598 5.76928 20.2831 5.37425ZM16.5247 12.8799C16.8612 13.5962 16.8405 14.3652 16.561 15.0341C16.2814 15.7031 15.7689 16.2877 15.127 16.8197C13.8483 17.8731 12.0417 18.6895 10.2815 19.1794C8.52144 19.6692 6.84417 19.8536 5.68975 19.4322C5.10995 19.2215 4.62333 18.7685 4.5405 18.1417C4.45767 17.5097 4.72687 16.8355 5.28596 16.0454L6.04177 16.6037C5.55515 17.2885 5.43091 17.773 5.46197 18.0153C5.49821 18.2629 5.62245 18.3998 6.00035 18.542C6.76134 18.8159 8.37649 18.7264 10.0382 18.2629C11.6948 17.8046 13.4187 17.0093 14.542 16.0823C15.1011 15.6188 15.5101 15.1237 15.7016 14.6602C15.8983 14.1967 15.9139 13.7753 15.6861 13.2907L16.5247 12.8799Z" fill="black"/>
</svg>
