<svg width="24" height="24" viewBox="0 0 24 24" fill="none" xmlns="http://www.w3.org/2000/svg">
<path d="M10.5274 16.4211C10.5274 14.7158 10.6806 13.4893 10.987 12.7415C11.2925 11.9945 11.9412 11.1789 12.9329 10.2947C13.7981 9.53684 14.4573 8.87874 14.9105 8.32042C15.3646 7.76295 15.5916 7.12632 15.5916 6.41053C15.5916 5.54737 15.3017 4.83158 14.7219 4.26316C14.1412 3.69474 13.3338 3.41053 12.2999 3.41053C11.2238 3.41053 10.4059 3.73684 9.84629 4.38947C9.28754 5.0421 8.8921 5.70526 8.65999 6.37895L5.3999 4.98947C5.84302 3.6421 6.65541 2.47368 7.83706 1.48421C9.01871 0.494737 10.5063 0 12.2999 0C14.5155 0 16.2196 0.616 17.4122 1.848C18.604 3.07916 19.1999 4.55789 19.1999 6.28421C19.1999 7.33684 18.9733 8.23705 18.52 8.98484C18.0659 9.73179 17.3536 10.5789 16.3829 11.5263C15.349 12.5158 14.7214 13.2682 14.5003 13.7836C14.2783 14.2998 14.1673 15.1789 14.1673 16.4211H10.5274ZM12.2999 24C11.6036 24 11.0077 23.7528 10.5122 23.2585C10.0159 22.7634 9.76779 22.1684 9.76779 21.4737C9.76779 20.7789 10.0159 20.184 10.5122 19.6888C11.0077 19.1945 11.6036 18.9474 12.2999 18.9474C12.9962 18.9474 13.5925 19.1945 14.0888 19.6888C14.5843 20.184 14.832 20.7789 14.832 21.4737C14.832 22.1684 14.5843 22.7634 14.0888 23.2585C13.5925 23.7528 12.9962 24 12.2999 24Z" fill="currentColor"/>
</svg>
