<svg width="40" height="40" viewBox="0 0 40 40" fill="none" xmlns="http://www.w3.org/2000/svg">
<g clip-path="url(#clip0_472_3435)">
<path d="M3.9611 22.0889L1 20.5V16.8889" stroke="black" stroke-width="2" stroke-linecap="round" stroke-linejoin="round"/>
<path d="M1 11.1111V7.50002L3.9611 5.91113" stroke="black" stroke-width="2" stroke-linecap="round" stroke-linejoin="round"/>
<path d="M9.88306 2.58888L12.8442 1L15.8053 2.58888" stroke="black" stroke-width="2" stroke-linecap="round" stroke-linejoin="round"/>
<path d="M21.7275 5.91113L24.6886 7.50002V11.1111" stroke="black" stroke-width="2" stroke-linecap="round" stroke-linejoin="round"/>
<path d="M24.6886 16.8889V20.5L21.7275 22.1178" stroke="black" stroke-width="2" stroke-linecap="round" stroke-linejoin="round"/>
<path d="M15.8053 25.4111L12.8442 27L9.88306 25.4111" stroke="black" stroke-width="2" stroke-linecap="round" stroke-linejoin="round"/>
<path d="M12.8445 14L15.8056 12.4111" stroke="black" stroke-width="2" stroke-linecap="round" stroke-linejoin="round"/>
<path d="M21.7275 9.08888L24.6886 7.5" stroke="black" stroke-width="2" stroke-linecap="round" stroke-linejoin="round"/>
<path d="M12.8445 14V17.6111" stroke="black" stroke-width="2" stroke-linecap="round" stroke-linejoin="round"/>
<path d="M12.8445 23.3889V27" stroke="black" stroke-width="2" stroke-linecap="round" stroke-linejoin="round"/>
<path d="M12.8442 13.9999L9.88306 12.3821" stroke="black" stroke-width="2" stroke-linecap="round" stroke-linejoin="round"/>
<path d="M3.9611 9.08888L1 7.5" stroke="black" stroke-width="2" stroke-linecap="round" stroke-linejoin="round"/>
<path fill-rule="evenodd" clip-rule="evenodd" d="M24.5926 35.1853C30.4427 35.1853 35.1852 30.2272 35.1852 24.1112C35.1852 17.9951 30.4427 13.0371 24.5926 13.0371C18.7425 13.0371 14 17.9951 14 24.1112C14 30.2272 18.7425 35.1853 24.5926 35.1853ZM24.5926 30.3705C27.7836 30.3705 30.3704 27.5681 30.3704 24.1112C30.3704 20.6543 27.7836 17.852 24.5926 17.852C21.4016 17.852 18.8148 20.6543 18.8148 24.1112C18.8148 27.5681 21.4016 30.3705 24.5926 30.3705Z" fill="#D9D9D9"/>
<path fill-rule="evenodd" clip-rule="evenodd" d="M17.802 31.2155C21.5876 35.1538 27.7251 35.1538 31.5107 31.2155C35.2962 27.2772 35.2962 20.892 31.5107 16.9537C27.7251 13.0154 21.5876 13.0154 17.802 16.9537C14.0165 20.892 14.0165 27.2772 17.802 31.2155ZM20.2734 28.6445C22.694 31.1628 26.6187 31.1628 29.0394 28.6445C31.46 26.1262 31.46 22.0431 29.0394 19.5248C26.6187 17.0064 22.694 17.0064 20.2734 19.5248C17.8527 22.0431 17.8527 26.1262 20.2734 28.6445Z" fill="black"/>
<path d="M30.7047 32.9149C31.1076 32.5142 31.5099 32.1051 31.911 31.6879C32.3457 31.2356 32.7713 30.7818 33.1873 30.3273L39.9999 37.4148L37.515 40L30.7047 32.9149Z" fill="black"/>
</g>
<defs>
<clipPath id="clip0_472_3435">
<rect width="40" height="40" fill="white"/>
</clipPath>
</defs>
</svg>
