<svg width="24" height="24" viewBox="0 0 24 24" fill="none" xmlns="http://www.w3.org/2000/svg">
<g clip-path="url(#clip0_472_3506)">
<path d="M6.59997 7.82063C8.9297 7.82063 10.8183 6.06992 10.8183 3.91032C10.8183 1.75071 8.9297 0 6.59997 0C4.27024 0 2.38162 1.75071 2.38162 3.91032C2.38162 6.06992 4.27024 7.82063 6.59997 7.82063Z" fill="currentColor"/>
<path d="M13.2 12.8536L13.1999 12.8722L13.2 17.3999H6.6434L6.6 17.4L6.5566 17.3999H0V12.8536C0 10.3426 2.95492 8.30711 6.6 8.30711C10.2451 8.30711 13.2 10.3426 13.2 12.8536Z" fill="currentColor"/>
<path fill-rule="evenodd" clip-rule="evenodd" d="M14.7555 21.1112C18.2655 21.1112 21.111 18.1363 21.111 14.4667C21.111 10.7971 18.2655 7.82227 14.7555 7.82227C11.2454 7.82227 8.3999 10.7971 8.3999 14.4667C8.3999 18.1363 11.2454 21.1112 14.7555 21.1112ZM14.7555 18.2223C16.67 18.2223 18.2221 16.5409 18.2221 14.4667C18.2221 12.3926 16.67 10.7112 14.7555 10.7112C12.8409 10.7112 11.2888 12.3926 11.2888 14.4667C11.2888 16.5409 12.8409 18.2223 14.7555 18.2223Z" fill="#D9D9D9"/>
<path fill-rule="evenodd" clip-rule="evenodd" d="M10.6813 18.7294C12.9526 21.0924 16.6351 21.0924 18.9065 18.7294C21.1778 16.3665 21.1778 12.5353 18.9065 10.1724C16.6351 7.8094 12.9526 7.8094 10.6813 10.1724C8.40995 12.5353 8.40995 16.3665 10.6813 18.7294ZM12.1641 17.1868C13.6165 18.6978 15.9713 18.6978 17.4237 17.1868C18.8761 15.6758 18.8761 13.226 17.4237 11.715C15.9713 10.204 13.6165 10.204 12.1641 11.715C10.7117 13.226 10.7117 15.6758 12.1641 17.1868Z" fill="currentColor"/>
<path d="M18.4229 19.7491C18.6646 19.5087 18.906 19.2632 19.1466 19.0129C19.4075 18.7415 19.6628 18.4692 19.9124 18.1965L24 22.449L22.509 24.0001L18.4229 19.7491Z" fill="currentColor"/>
</g>
<defs>
<clipPath id="clip0_472_3506">
<rect width="24" height="24" fill="white"/>
</clipPath>
</defs>
</svg>
