<svg width="24" height="24" viewBox="0 0 24 24" fill="none" xmlns="http://www.w3.org/2000/svg">
<g clip-path="url(#clip0_472_3021)">
<path fill-rule="evenodd" clip-rule="evenodd" d="M2.65177 15.8912C6.18746 19.5265 11.92 19.5265 15.4556 15.8912C18.9913 12.2559 18.9913 6.36184 15.4556 2.7265C11.92 -0.908834 6.18746 -0.908834 2.65177 2.7265C-0.883923 6.36184 -0.883923 12.2559 2.65177 15.8912ZM4.95998 13.518C7.22088 15.8426 10.8865 15.8426 13.1474 13.518C15.4083 11.1934 15.4083 7.42442 13.1474 5.0998C10.8865 2.77518 7.22088 2.77518 4.95998 5.0998C2.69907 7.42442 2.69907 11.1934 4.95998 13.518Z" fill="currentColor"/>
<path d="M14.7029 17.4599C15.0792 17.0901 15.4549 16.7124 15.8295 16.3272C16.2356 15.9098 16.6331 15.4909 17.0216 15.0714L23.3846 21.6137L21.0637 24L14.7029 17.4599Z" fill="currentColor"/>
</g>
<defs>
<clipPath id="clip0_472_3021">
<rect width="24" height="24" fill="white"/>
</clipPath>
</defs>
</svg>
