<svg width="24" height="24" viewBox="0 0 24 24" fill="none" xmlns="http://www.w3.org/2000/svg">
<path d="M19.7 24C18.6722 24 17.7986 23.65 17.0791 22.95C16.3597 22.25 16 21.4 16 20.4C16 20.26 16.0102 20.1148 16.0308 19.9644C16.0513 19.8148 16.0822 19.68 16.1233 19.56L7.42828 14.64C7.07884 14.94 6.68828 15.1748 6.25662 15.3444C5.82495 15.5148 5.37273 15.6 4.89995 15.6C3.87217 15.6 2.99856 15.25 2.27912 14.55C1.55967 13.85 1.19995 13 1.19995 12C1.19995 11 1.55967 10.15 2.27912 9.45C2.99856 8.75 3.87217 8.4 4.89995 8.4C5.37273 8.4 5.82495 8.4848 6.25662 8.6544C6.68828 8.8248 7.07884 9.06 7.42828 9.36L16.1233 4.44C16.0822 4.32 16.0513 4.1852 16.0308 4.0356C16.0102 3.8852 16 3.74 16 3.6C16 2.6 16.3597 1.75 17.0791 1.05C17.7986 0.35 18.6722 0 19.7 0C20.7277 0 21.6013 0.35 22.3208 1.05C23.0402 1.75 23.4 2.6 23.4 3.6C23.4 4.6 23.0402 5.45 22.3208 6.15C21.6013 6.85 20.7277 7.2 19.7 7.2C19.2272 7.2 18.775 7.1148 18.3433 6.9444C17.9116 6.7748 17.5211 6.54 17.1716 6.24L8.47662 11.16C8.51773 11.28 8.54856 11.4148 8.56912 11.5644C8.58967 11.7148 8.59995 11.86 8.59995 12C8.59995 12.14 8.58967 12.2848 8.56912 12.4344C8.54856 12.5848 8.51773 12.72 8.47662 12.84L17.1716 17.76C17.5211 17.46 17.9116 17.2248 18.3433 17.0544C18.775 16.8848 19.2272 16.8 19.7 16.8C20.7277 16.8 21.6013 17.15 22.3208 17.85C23.0402 18.55 23.4 19.4 23.4 20.4C23.4 21.4 23.0402 22.25 22.3208 22.95C21.6013 23.65 20.7277 24 19.7 24ZM19.7 4.8C20.0494 4.8 20.3421 4.6852 20.5781 4.4556C20.8149 4.2252 20.9333 3.94 20.9333 3.6C20.9333 3.26 20.8149 2.9748 20.5781 2.7444C20.3421 2.5148 20.0494 2.4 19.7 2.4C19.3505 2.4 19.0578 2.5148 18.8218 2.7444C18.585 2.9748 18.4666 3.26 18.4666 3.6C18.4666 3.94 18.585 4.2252 18.8218 4.4556C19.0578 4.6852 19.3505 4.8 19.7 4.8ZM4.89995 13.2C5.2494 13.2 5.54252 13.0848 5.77932 12.8544C6.0153 12.6248 6.13328 12.34 6.13328 12C6.13328 11.66 6.0153 11.3748 5.77932 11.1444C5.54252 10.9148 5.2494 10.8 4.89995 10.8C4.55051 10.8 4.25738 10.9148 4.02058 11.1444C3.78461 11.3748 3.66662 11.66 3.66662 12C3.66662 12.34 3.78461 12.6248 4.02058 12.8544C4.25738 13.0848 4.55051 13.2 4.89995 13.2ZM19.7 21.6C20.0494 21.6 20.3421 21.4848 20.5781 21.2544C20.8149 21.0248 20.9333 20.74 20.9333 20.4C20.9333 20.06 20.8149 19.7752 20.5781 19.5456C20.3421 19.3152 20.0494 19.2 19.7 19.2C19.3505 19.2 19.0578 19.3152 18.8218 19.5456C18.585 19.7752 18.4666 20.06 18.4666 20.4C18.4666 20.74 18.585 21.0248 18.8218 21.2544C19.0578 21.4848 19.3505 21.6 19.7 21.6Z" fill="currentColor"/>
</svg>
