<svg width="24" height="24" viewBox="0 0 24 24" fill="none" xmlns="http://www.w3.org/2000/svg">
<g clip-path="url(#clip0_472_3659)">
<rect x="1" y="19.6001" width="3.4" height="3.4" stroke="black" stroke-width="2"/>
<rect x="4.6001" y="5.19995" width="3.4" height="3.4" stroke="black" stroke-width="2"/>
<rect x="19.6001" y="1" width="3.4" height="3.4" stroke="black" stroke-width="2"/>
<rect x="17.8" y="16" width="3.4" height="3.4" stroke="black" stroke-width="2"/>
<path d="M10.8943 17.866L14.3124 19.5545L12.6239 22.9726L11.7694 22.5505L12.6982 20.6701L8.49106 22.0951L8.14135 21.0626L12.3368 19.6416L10.4722 18.7205L10.8943 17.866Z" fill="currentColor"/>
<path d="M18.0674 10.1759L20.4854 7.80006L22.8613 10.2181L22.2568 10.812L20.9498 9.48186L20.9151 13.4314L19.9458 13.4229L19.9804 9.48434L18.6614 10.7804L18.0674 10.1759Z" fill="currentColor"/>
<path d="M13.3378 2.01137L16.6273 3.43217L15.2065 6.72167L14.3841 6.36647L15.1657 4.55689L11.285 6.09646L10.9072 5.1441L14.7771 3.60882L12.9826 2.83375L13.3378 2.01137Z" fill="currentColor"/>
<path fill-rule="evenodd" clip-rule="evenodd" d="M15.7444 14.6667L12.4166 14.8771L12.364 14.0451L14.1794 13.9304L13.7933 13.5902L13.7932 13.5902L10.8864 11.029L11.0011 12.8443L10.1692 12.8969L9.95883 9.56915L13.2866 9.3588L13.3392 10.1907L11.5086 10.3065L11.9028 10.6538L11.9028 10.6538L14.8178 13.2221L14.7021 11.3915L15.534 11.3389L15.7444 14.6667Z" fill="currentColor"/>
<path d="M1.85075 12.5465L5.27564 11.1046L6.71755 14.5295L5.86133 14.89L5.06812 13.0059L3.4344 17.0155L2.4504 16.6146L4.07957 12.6162L2.21123 13.4027L1.85075 12.5465Z" fill="currentColor"/>
</g>
<defs>
<clipPath id="clip0_472_3659">
<rect width="24" height="24" fill="white"/>
</clipPath>
</defs>
</svg>
