<svg width="40" height="40" viewBox="0 0 40 40" fill="none" xmlns="http://www.w3.org/2000/svg">
<g clip-path="url(#clip0_472_3659)">
<rect x="1" y="32" width="7" height="7" stroke="black" stroke-width="2"/>
<rect x="7" y="8" width="7" height="7" stroke="black" stroke-width="2"/>
<rect x="32" y="1" width="7" height="7" stroke="black" stroke-width="2"/>
<rect x="29" y="26" width="7" height="7" stroke="black" stroke-width="2"/>
<path d="M18.1571 29.7769L23.8539 32.591L21.0398 38.2878L19.6156 37.5843L21.1637 34.4504L14.1518 36.8254L13.5689 35.1046L20.5613 32.7362L17.4536 31.2011L18.1571 29.7769Z" fill="black"/>
<path d="M30.1125 16.9596L34.1425 12.9999L38.1023 17.0299L37.0948 18.0198L34.9165 15.8029L34.8586 22.3854L33.2432 22.3712L33.3009 15.807L31.1025 17.9671L30.1125 16.9596Z" fill="black"/>
<path d="M22.2298 3.35245L27.7123 5.72045L25.3443 11.203L23.9737 10.611L25.2764 7.59497L18.8085 10.1609L18.1788 8.57367L24.6286 6.01486L21.6378 4.72307L22.2298 3.35245Z" fill="black"/>
<path fill-rule="evenodd" clip-rule="evenodd" d="M26.2405 24.4444L20.6942 24.795L20.6065 23.4084L23.6321 23.2172L22.9886 22.6502L22.9886 22.6503L18.1438 18.3816L18.3351 21.4072L16.9485 21.4948L16.5979 15.9485L22.1442 15.5979L22.2319 16.9845L19.1808 17.1774L19.8378 17.7563L19.8379 17.7562L24.6962 22.0368L24.5033 18.9858L25.8899 18.8981L26.2405 24.4444Z" fill="black"/>
<path d="M3.08459 20.911L8.79273 18.5078L11.1959 24.216L9.76888 24.8168L8.44687 21.6767L5.724 28.3594L4.08399 27.6912L6.79928 21.0271L3.68539 22.3381L3.08459 20.911Z" fill="black"/>
</g>
<defs>
<clipPath id="clip0_472_3659">
<rect width="40" height="40" fill="white"/>
</clipPath>
</defs>
</svg>
