<svg width="24" height="24" viewBox="0 0 24 24" fill="none" xmlns="http://www.w3.org/2000/svg">
<path d="M18.2556 8.56675C17.9244 8.56675 17.6004 8.59675 17.2848 8.64835C16.4976 6.07435 14.0592 4.19995 11.1708 4.19995C7.644 4.19995 4.7868 6.99355 4.7868 10.4388C4.7868 10.746 4.8108 11.0484 4.8552 11.346C4.68441 11.3248 4.5125 11.314 4.3404 11.3136C1.9428 11.3136 0 13.212 0 15.5556C0 17.8992 1.9428 19.8 4.3404 19.8H9.6V15H6.6L12 8.99995L17.4 15H14.4V19.8H18.2556C21.4272 19.8 24 17.2848 24 14.184C24 11.0808 21.4272 8.56675 18.2556 8.56675V8.56675Z" fill="currentColor"/>
</svg>
